<?xml version="1.0" standalone="no"?>
<!DOCTYPE svg PUBLIC "-//W3C//DTD SVG 1.1//EN" "http://www.w3.org/Graphics/SVG/1.1/DTD/svg11.dtd" >
<svg>
<metadata>
Created by FontForge 20090914 at Tue Oct  9 06:03:37 2012
 By www-data
Copyright (c) 2010, 2011, Natalia Raices &#60;nraices@gmail.com&#62;, with Reserved Font Name "Delius" "Delius Unicase" "Delius Swash Caps".
</metadata>
<defs>
<font id="DeliusSwashCaps-Regular" horiz-adv-x="224" >
  <font-face 
    font-family="Delius Swash Caps"
    font-weight="400"
    font-variant="small-caps"
    font-stretch="normal"
    units-per-em="1000"
    panose-1="2 0 6 3 0 0 0 0 0 0"
    ascent="800"
    descent="-200"
    x-height="505"
    cap-height="760"
    bbox="-66 -270 1187 986.003"
    underline-thickness="50"
    underline-position="-150"
    unicode-range="U+0020-U+FB03"
  />
<missing-glyph horiz-adv-x="238" 
 />
    <glyph glyph-name=".notdef" horiz-adv-x="238" 
 />
    <glyph glyph-name="space" unicode=" " horiz-adv-x="238" 
 />
    <glyph glyph-name="exclam" unicode="!" horiz-adv-x="242" 
d="M89.5 81.5c9.66699 12.333 21.333 18.499 35 18.499s24.167 -4.83301 31.5 -14.5s11 -22.667 11 -39s-4.83301 -30.666 -14.5 -42.999s-21.167 -18.5 -34.5 -18.5s-23.833 5.16699 -31.5 15.5s-11.5 23.333 -11.5 39s4.83301 29.667 14.5 42zM153.999 467.999l3 -212
c0 -33.333 -12 -50 -36 -50s-36 16.667 -36 50l3 212c0 45.333 -1.16699 96 -3.5 152s-3.5 86 -3.5 90c0 33.333 13.333 50 40 50s40 -16.667 40 -50c0 -10.667 -1.16699 -44 -3.5 -100s-3.5 -103.333 -3.5 -142z" />
    <glyph glyph-name="quotedbl" unicode="&#x22;" horiz-adv-x="342" 
d="M247 725c12 0 21.667 -4.66602 29 -13.999s11 -18.5 11 -27.5s-1.5 -24.5 -4.5 -46.5s-5.16699 -41.5 -6.5 -58.5l-3 -39c-0.666992 -9 -2 -17.833 -4 -26.5s-4.66699 -14.667 -8 -18s-8 -5 -14 -5s-10.667 1.66699 -14 5s-5.83301 9.33301 -7.5 18s-3 17.5 -4 26.5
s-2.16699 22 -3.5 39s-3.5 36.167 -6.5 57.5s-4.5 37.166 -4.5 47.499s3.66699 19.833 11 28.5s17 13 29 13zM95 725.001c12 0 21.667 -4.66602 29 -13.999s11 -18.5 11 -27.5s-1.5 -24.5 -4.5 -46.5s-5.16699 -41.5 -6.5 -58.5l-3 -39c-0.666992 -9 -2 -17.833 -4 -26.5
s-4.66699 -14.667 -8 -18s-8 -5 -14 -5s-10.667 1.66699 -14 5s-5.83301 9.33301 -7.5 18s-3 17.5 -4 26.5s-2.16699 22 -3.5 39s-3.5 36.167 -6.5 57.5s-4.5 37.166 -4.5 47.499s3.66699 19.833 11 28.5s17 13 29 13z" />
    <glyph glyph-name="numbersign" unicode="#" horiz-adv-x="803" 
d="M296 274h176l32 167h-176zM665 212l-141 1.99902c-9.33301 -49.333 -20.333 -111.666 -33 -186.999c-5.33301 -27.333 -19 -41 -41 -41c-18.667 0 -28 11.667 -28 35c0 9.33301 4.5 35.833 13.5 79.5s16.5 82.167 22.5 115.5h-173l-33 -190
c-5.33301 -27.333 -19 -41 -41 -41c-8.66699 0 -15.667 3 -21 9s-8 13.167 -8 21.5s1.66699 20.833 5 37.5l15 70c9.33301 41.333 15.666 72 18.999 92l-127 -3c-30.667 0 -46 11 -46 33s15.333 33 46 33l140 -3l32 165l-129 -3c-30.667 0 -46 11 -46 33s15.333 33 46 33
l139 -3c8.66699 42.667 15.334 78 20.001 106l12 66c5.33301 27.333 19 41 41 41c8 0 14.833 -3.16699 20.5 -9.5s8.5 -13.333 8.5 -21s-2.66699 -23 -8 -46s-15 -68.833 -29 -137.5h173l21 107l12 67c5.33301 27.333 19 41 41 41c8 0 14.833 -3.16699 20.5 -9.5
s8.5 -13.333 8.5 -21s-2.66699 -23 -8 -46s-15 -68.833 -29 -137.5l129 3c30.667 0 46 -11 46 -33s-15.333 -33 -46 -33l-142 3l-32 -165l130 3c30.667 0 46 -11 46 -33s-15.333 -33 -46 -33z" />
    <glyph glyph-name="dollar" unicode="$" horiz-adv-x="554" 
d="M503 186c0 -50.667 -16.833 -94.002 -50.5 -130.002s-78.167 -58.333 -133.5 -67c1.33301 -22.667 2 -38.667 2 -48c0 -34 -11.667 -51 -35 -51s-35 17 -35 51l1 46c-52 3.33301 -98.333 16.333 -139 39s-61 45 -61 67c0 14.667 5.66699 24.334 17 29.001
c2.66699 0.666992 7.33398 1 14.001 1s17 -5 31 -15c42.667 -34.667 89.334 -53.667 140.001 -57c1.33301 124 2 226.333 2 307c-58.667 32.667 -102.334 64.334 -131.001 95.001s-43 65.334 -43 104.001s15.667 72.5 47 101.5s72.333 46.167 123 51.5v39
c0 34 11.333 51 34 51s34 -17 34 -51v-39c42 -4 77.5 -14 106.5 -30s43.5 -33.667 43.5 -53c0 -8 -2.66699 -14.667 -8 -20s-12.833 -8 -22.5 -8s-27 7.5 -52 22.5s-48.167 22.833 -69.5 23.5c-1.33301 -106.667 -2 -187 -2 -241
c75.333 -45.333 124.666 -82.833 147.999 -112.5s36.333 -64.834 39 -105.501zM316 322.998c0 -149.333 0.333984 -239 1.00098 -269c31.333 5.33301 57.666 20 78.999 44c21.333 25.333 32 52.5 32 81.5s-9 54.167 -27 75.5s-46.333 44 -85 68zM155.001 554.998
c0 -34.667 33.666 -73.667 100.999 -117c0 75.333 -0.666992 144.333 -2 207c-29.333 -3.33301 -53.166 -12.833 -71.499 -28.5s-27.5 -36.167 -27.5 -61.5z" />
    <glyph glyph-name="percent" unicode="%" horiz-adv-x="804" 
d="M558 755c18.667 -9.33301 27.8311 -26.833 27.498 -52.5s-19.166 -59.167 -56.499 -100.5c-133.333 -381.333 -203 -579.5 -209 -594.5s-17.667 -22.5 -35 -22.5c-8.66699 0 -16 3 -22 9s-9 14.333 -9 25s8.33301 36 25 76c71.333 176 130.666 336.667 177.999 482
c-11.333 -5.33301 -26.5 -8 -45.5 -8s-44.167 4.66699 -75.5 14c3.33301 -13.333 5 -27 5 -41c0 -48.667 -13.667 -89.667 -41 -123s-62.666 -50 -105.999 -50s-78.666 16 -105.999 48c-26.667 32.667 -40 74 -40 124s14 91.5 42 124.5s61.667 49.5 101 49.5
s76.5 -14.5 111.5 -43.5s68.5 -43.5 100.5 -43.5s55 6 69 18l8 28c12 44 24.333 70.333 37 79c4.66699 6 10.5 9 17.5 9s14.833 -2.33301 23.5 -7zM133.997 459c15.333 -22 35.833 -33 61.5 -33s46.167 10.667 61.5 32s23 49 23 83s-7.5 62 -22.5 84s-35.5 33 -61.5 33
s-46.667 -10.667 -62 -32s-23 -49 -23 -83s7.66699 -62 23 -84zM500.997 33c-26.667 32.667 -40 74 -40 124s14 91.5 42 124.5s63.833 49.5 107.5 49.5s79 -16 106 -48s40.5 -73.167 40.5 -123.5s-14 -92 -42 -125s-63.833 -49.5 -107.5 -49.5s-79.167 16 -106.5 48z
M547.497 75c15 -22 35.333 -33 61 -33s46.167 10.667 61.5 32s23 49 23 83s-7.5 62 -22.5 84s-35.333 33 -61 33s-46.167 -10.667 -61.5 -32s-23 -49 -23 -83s7.5 -62 22.5 -84z" />
    <glyph glyph-name="ampersand" unicode="&#x26;" horiz-adv-x="765" 
d="M410 354l125.001 -4.99805c34.667 0 66.667 8.66699 96 26s44 42.333 44 75c0 50 -25.333 83.333 -76 100c-20 6.66699 -34 13 -42 19s-12 14 -12 24c0 22 12.667 33 38 33c36.667 0 72.5 -18.167 107.5 -54.5s52.5 -75 52.5 -116s-12.333 -74.167 -37 -99.5
c-42.667 -46.667 -108.667 -70 -198 -70c18 -30 27 -66.333 27 -109s-21.167 -85.334 -63.5 -128.001s-100.166 -64 -173.499 -64s-133.5 23.5 -180.5 70.5s-70.5 105.833 -70.5 176.5c0 40 11.5 78.833 34.5 116.5s53.833 69.5 92.5 95.5c-22 19.333 -40.167 42 -54.5 68
s-21.5 52 -21.5 78c0 42.667 15.333 79.167 46 109.5s72.667 45.5 126 45.5c34.667 0 66.667 -7.66699 96 -23s44 -32 44 -50c0 -10 -3 -18 -9 -24s-13 -9 -21 -9s-22.167 6.83301 -42.5 20.5s-44.333 20.5 -72 20.5s-50.834 -8 -69.501 -24s-28 -36 -28 -60
s5.66699 -46.833 17 -68.5s25.666 -38.5 42.999 -50.5c11.333 4.66699 23.166 7 35.499 7s24.5 -1.66699 36.5 -5c26.667 -6.66699 40 -20.834 40 -42.501s-14 -35.834 -42 -42.501c-10 -2.66699 -21.667 -4 -35 -4s-27 3.66699 -41 11c-68.667 -34 -103 -89.333 -103 -166
c0 -51.333 16.667 -94.666 50 -129.999c34 -34.667 76.333 -52 127 -52s91.5 14 122.5 42s46.5 61 46.5 99c0 58 -16.667 87 -50 87c-5.33301 0 -16.333 -3 -33 -9s-29.167 -9 -37.5 -9s-15.666 3.5 -21.999 10.5s-9.5 17 -9.5 30s9.33301 24.667 28 35s41.667 15.5 69 15.5
z" />
    <glyph glyph-name="quotesingle" unicode="'" horiz-adv-x="190" 
d="M95 725c12 0 21.667 -4.66602 29 -13.999s11 -18.5 11 -27.5s-1.5 -24.5 -4.5 -46.5s-5.16699 -41.5 -6.5 -58.5l-3 -39c-0.666992 -9 -2 -17.833 -4 -26.5s-4.66699 -14.667 -8 -18s-8 -5 -14 -5s-10.667 1.66699 -14 5s-5.83301 9.33301 -7.5 18s-3 17.5 -4 26.5
s-2.16699 22 -3.5 39s-3.5 36.167 -6.5 57.5s-4.5 37.166 -4.5 47.499s3.66699 19.833 11 28.5s17 13 29 13z" />
    <glyph glyph-name="parenleft" unicode="(" horiz-adv-x="302" 
d="M243 654c-81.333 -106.667 -122.002 -245 -122.002 -415c0 -169.333 45 -310.333 135 -423c8 -10 12 -18.333 12 -25c0 -14 -6.33301 -21 -19 -21c-21.333 0 -45.666 18.667 -72.999 56c-86.667 116.667 -130 269.334 -130 458.001c0 54.667 7 112 21 172
s31 111.5 51 154.5s41.5 78.667 64.5 107s42.167 42.5 57.5 42.5c28 0 42 -12.333 42 -37c0 -10 -2.16699 -18.333 -6.5 -25s-15.166 -21.334 -32.499 -44.001z" />
    <glyph glyph-name="parenright" unicode=")" horiz-adv-x="303" 
d="M256 284c0 -189.333 -43.667 -342.332 -131 -458.999c-26.667 -36.667 -50.667 -55 -72 -55c-12.667 0 -19 7 -19 21c0 6.66699 4 15 12 25c90 113.333 135 254.333 135 423s-41 307.667 -123 417c-18 24 -28.833 39 -32.5 45s-5.5 13.5 -5.5 22.5s3 17.5 9 25.5
c7.33301 7.33301 18.5 11 33.5 11s33.833 -14.333 56.5 -43c24 -28.667 45.833 -64.334 65.5 -107.001s36.5 -94 50.5 -154s21 -117.333 21 -172z" />
    <glyph glyph-name="asterisk" unicode="*" horiz-adv-x="424" 
d="M234 555l11.002 -89.999c0 -18 -7 -30.667 -21 -38c-4.66699 -2.66699 -10.167 -4 -16.5 -4s-12.666 4 -18.999 12s-9.5 16.5 -9.5 25.5s1.83301 25.833 5.5 50.5s5.5 39.334 5.5 44.001c-8 -5.33301 -21.167 -15.333 -39.5 -30s-30.666 -23.834 -36.999 -27.501
s-13.166 -5.5 -20.499 -5.5s-14.333 3 -21 9c-6 6 -9 13.333 -9 22c0 15.333 8.33301 26.666 25 33.999c32.667 10.667 60 22 82 34c-22 12 -49.333 23.333 -82 34c-16.667 6.66699 -25 18 -25 34c0 8 3 15 9 21s13.167 9 21.5 9s15.5 -1.83301 21.5 -5.5
s18.167 -12.834 36.5 -27.501s31.166 -24.334 38.499 -29.001c-2.66699 20.667 -6.33398 51.334 -11.001 92.001c0 18 7 30.667 21 38c4.66699 2.66699 10.167 4 16.5 4s12.666 -3.83301 18.999 -11.5s9.5 -15.334 9.5 -23.001s-1.66699 -22.667 -5 -45
s-5.33301 -40.5 -6 -54.5c7.33301 4.66699 20.166 14.334 38.499 29.001s30.833 23.834 37.5 27.501s13.667 5.5 21 5.5s14.166 -2.83301 20.499 -8.5s9.5 -12.834 9.5 -21.501c0 -15.333 -8.66699 -26.666 -26 -33.999c-41.333 -16 -68.333 -27.333 -81 -34
c12.667 -6.66699 39.667 -18 81 -34c17.333 -6 26 -17.333 26 -34c0 -8 -3.16699 -15 -9.5 -21s-13.5 -9 -21.5 -9s-14.833 1.66699 -20.5 5s-17.667 12.333 -36 27s-31.5 24.667 -39.5 30z" />
    <glyph glyph-name="plus" unicode="+" horiz-adv-x="529" 
d="M296 291l146 3.00098h5c14 0 23.5 -4 28.5 -12s7.5 -15 7.5 -21s-2.5 -13 -7.5 -21s-14.5 -12 -28.5 -12h-28.5c-17.667 0 -58.5 1 -122.5 3l4 -157c0 -12.667 -3.16699 -22.667 -9.5 -30s-14.833 -11 -25.5 -11c-22 0 -33 13.667 -33 41c0 14.667 1.33301 67 4 157
c-68 -2 -112.667 -3 -134 -3s-36 3.16699 -44 9.5s-12 12.666 -12 18.999s1.33301 12.166 4 17.499c7.33301 13.333 20 20 38 20l148 -3c-2.66699 82.667 -4 130.334 -4 143.001c0 27.333 11 41 33 41c10.667 0 19.167 -3.5 25.5 -10.5s9.5 -17 9.5 -30
s-1.33301 -60.833 -4 -143.5z" />
    <glyph glyph-name="comma" unicode="," horiz-adv-x="210" 
d="M65 -28l-6.99902 64.001c0 19.333 4.33301 35 13 47c11.333 12.667 21.666 19 30.999 19s17.333 -1.33301 24 -4c17.333 -8.66699 26 -22 26 -40c0 -2.66699 -0.333008 -5.66699 -1 -9c0 -44.667 -11.5 -89.5 -34.5 -134.5s-45.833 -67.5 -68.5 -67.5
c-5.33301 0 -10 1.83301 -14 5.5s-6 8.16699 -6 13.5s6.16699 18.166 18.5 38.499s18.5 42.833 18.5 67.5z" />
    <glyph glyph-name="hyphen" unicode="-" horiz-adv-x="428" 
d="M107 294l107 -3l107 3h5c14 0 23.5 -4 28.5 -12s7.5 -15 7.5 -21s-2.5 -13 -7.5 -21s-14.5 -12 -28.5 -12h-5l-107 3l-107 -3h-5c-14 0 -23.5 4 -28.5 12s-7.5 15 -7.5 21s2.5 13 7.5 21s14.5 12 28.5 12h5z" />
    <glyph glyph-name="period" unicode="." horiz-adv-x="207" 
d="M106 107c14 0 24.833 -5 32.5 -15s11.5 -23.167 11.5 -39.5s-5 -30.833 -15 -43.5s-21.667 -19 -35 -19s-24 5.16699 -32 15.5s-12 23.5 -12 39.5s4.83301 30.333 14.5 43s21.5 19 35.5 19z" />
    <glyph glyph-name="slash" unicode="/" horiz-adv-x="363" 
d="M92 -152c-24 0 -36.001 13.3311 -36.001 39.998c0 11.333 12.333 70 37 176c37.333 158 64 278.5 80 361.5l34.5 178.5l15.5 80.5c3.33301 17.667 5.66602 28.834 6.99902 33.501c6 28 19.333 42 40 42c24 0 36 -14 36 -42c0 -9.33301 -4 -31.666 -12 -66.999
c-61.333 -258 -110.666 -488.667 -147.999 -692c-6 -32.667 -10.667 -55.667 -14 -69c-5.33301 -28 -18.666 -42 -39.999 -42z" />
    <glyph glyph-name="zero" unicode="0" horiz-adv-x="658" 
d="M329 715c79.333 0 143.666 -36.167 192.999 -108.5s74 -157.833 74 -256.5s-24.667 -184.167 -74 -256.5s-113.666 -108.5 -192.999 -108.5s-143.666 36.167 -192.999 108.5s-74 157.833 -74 256.5s24.667 184.167 74 256.5s113.666 108.5 192.999 108.5zM468 140
c37.333 60.667 56 130.832 56 210.499s-18.667 149.334 -56 209.001s-84 89.5 -140 89.5s-102.333 -29.667 -139 -89s-55 -129.333 -55 -210s18.5 -150.667 55.5 -210s83.333 -89 139 -89s102.167 29.667 139.5 89z" />
    <glyph glyph-name="one" unicode="1" horiz-adv-x="397" 
d="M295 205l4 -172c0 -10.667 -3.83301 -20.5 -11.5 -29.5s-17 -13.5 -28 -13.5s-20.167 4.66699 -27.5 14s-11 21.333 -11 36s0.833008 41.667 2.5 81s2.5 116 2.5 230v251l-48 -60l-26 -34c-36 -47.333 -59.333 -75.333 -70 -84s-20 -13 -28 -13s-15.333 3.66699 -22 11
c-6.66699 12 -10 21.167 -10 27.5s4.83301 15.5 14.5 27.5s23.667 27.833 42 47.5s33.833 37.5 46.5 53.5c16 18 31 36.333 45 55l36 45c17.333 22 35 33 53 33c10.667 0 20 -4.83301 28 -14.5s12 -22 12 -37s-0.833008 -42.667 -2.5 -83s-2.5 -104.5 -2.5 -192.5
s0.333008 -147.667 1 -179z" />
    <glyph glyph-name="two" unicode="2" horiz-adv-x="548" 
d="M128 64l138.999 0.00195312l190 5c14 0 25.833 -3.66699 35.5 -11s14.5 -16 14.5 -26c0 -24.667 -16.667 -37 -50 -37l-190 5l-171 -5c-33.333 0 -50 15.333 -50 46c0 25.333 10.333 50.833 31 76.5s35 42.834 43 51.501l60 65l56 61.5l38 41.5
c19.333 21.333 31.833 35.5 37.5 42.5l20.5 24.5c8 9.33301 20.167 27.833 36.5 55.5s24.5 51.834 24.5 72.501c0 33.333 -11.833 61.166 -35.5 83.499s-51.167 33.5 -82.5 33.5c-54.667 0 -93 -17.667 -115 -53s-41.667 -53 -59 -53
c-9.33301 0 -17.166 3.16699 -23.499 9.5s-9.5 14.166 -9.5 23.499c0 26.667 19.5 56.5 58.5 89.5s87.667 49.5 146 49.5s105 -18.5 140 -55.5s52.5 -77.5 52.5 -121.5s-12 -83.5 -36 -118.5s-46.833 -64.167 -68.5 -87.5s-39.167 -42.833 -52.5 -58.5
s-38.333 -42.834 -75 -81.501c-60.667 -62.667 -95.667 -105.334 -105 -128.001z" />
    <glyph glyph-name="three" unicode="3" horiz-adv-x="568" 
d="M107 705l160.001 -4.99902l152 4c40 0 60 -15.333 60 -46c0 -14.667 -7.5 -30.834 -22.5 -48.501s-37.5 -41.667 -67.5 -72s-58.667 -61.833 -86 -94.5c64.667 -13.333 114.667 -40 150 -80s53 -89.5 53 -148.5s-21.167 -112 -63.5 -159s-100.5 -70.5 -174.5 -70.5
c-56 0 -105.333 15.333 -148 46c-42 31.333 -63 60 -63 86c0.666992 19.333 10 29 28 29c12.667 0 23 -7.66699 31 -23c12 -14 29.667 -29.5 53 -46.5s58.666 -25.5 105.999 -25.5s85.333 16 114 48c30 32 45 72 45 120s-16.833 87 -50.5 117s-73.834 46.667 -120.501 50
c-34 -36 -64.333 -54 -91 -54c-12 0 -23.333 3.33301 -34 10c-11.333 10 -14.333 23.667 -9 41c10.667 34 43.334 56.333 98.001 67c55.333 61.333 107.333 122 156 182l-116 4l-152 -5h-8c-16 0 -26.667 4.5 -32 13.5s-8 16.833 -8 23.5s2.66699 14.5 8 23.5
s16 13.5 32 13.5z" />
    <glyph glyph-name="four" unicode="4" horiz-adv-x="578" 
d="M497 226l-65.001 1.99902l5 -188v-7c0 -17.333 -6 -29.666 -18 -36.999c-7.33301 -4 -14.333 -6 -21 -6l-21 6c-12 7.33301 -18 19.666 -18 36.999v7l4 190l-74 1l-219 -4h-3c-18 0 -30.333 7 -37 21c-4 8.66699 -6 15.834 -6 21.501s0.833008 11.167 2.5 16.5
s8.33398 17 20.001 35s27 38.333 46 61l105.5 132l117 149c24 31.333 47.333 47 70 47c34.667 0 52 -20 52 -60c0 -14 -0.833008 -41.5 -2.5 -82.5s-2.5 -131.167 -2.5 -270.5l57 3c14.667 0 26.667 -3.33301 36 -10s14 -15.5 14 -26.5s-4.5 -20 -13.5 -27
s-18.5 -10.5 -28.5 -10.5zM114.999 294.999l249 -0.000976562c1.33301 65.333 2 125 2 179l-2 140c-70.667 -81.333 -153.667 -187.666 -249 -318.999z" />
    <glyph glyph-name="five" unicode="5" horiz-adv-x="575" 
d="M432 631l-142.003 5c-28.667 0 -58 -0.666992 -88 -2s-45.333 -2 -46 -2c4 -34 6 -67.333 6 -100s-2 -67 -6 -103l-2 -18c46.667 36 95.667 54 147 54c70.667 0 125.167 -21.833 163.5 -65.5s57.5 -99.167 57.5 -166.5s-21.667 -125.5 -65 -174.5
s-102.333 -73.5 -177 -73.5c-58.667 0 -109.667 17.833 -153 53.5s-65 69.167 -65 100.5c0 10 2.83301 18.167 8.5 24.5s12.834 9.5 21.501 9.5s15.167 -2 19.5 -6s10.5 -12 18.5 -24l14 -21c40 -47.333 85.333 -71 136 -71s91.667 18.667 123 56s47 79.833 47 127.5
s-13.833 87 -41.5 118s-64.667 46.5 -111 46.5s-93.166 -18.333 -140.499 -55c-15.333 -12.667 -27.666 -19 -36.999 -19c-26 0 -39 14 -39 42c0 7.33301 2.16699 29.166 6.5 65.499s6.5 67 6.5 92s-1.83301 52.833 -5.5 83.5s-5.5 47.334 -5.5 50.001
c0 31.333 18.333 47 55 47l152 -5l142 5h8c16 0 26.667 -4.5 32 -13.5s8 -16.833 8 -23.5s-2.66699 -14.5 -8 -23.5s-16 -13.5 -32 -13.5h-8z" />
    <glyph glyph-name="six" unicode="6" horiz-adv-x="577" 
d="M62 266c0 123.333 34.168 228.168 102.501 314.501s154.833 129.5 259.5 129.5c42.667 0 64 -11.667 64 -35c0 -24.667 -18.333 -37 -55 -37c-76.667 0 -142 -27.333 -196 -82s-86 -119.667 -96 -195c17.333 26 41.5 47.833 72.5 65.5s64.5 26.5 100.5 26.5
c65.333 0 116.666 -22.667 153.999 -68s56 -99.333 56 -162s-19.667 -118 -59 -166s-95.5 -72 -168.5 -72s-130.5 26.333 -172.5 79c-41.333 53.333 -62 120.666 -62 201.999zM186.001 335.002c-30 -36 -45 -76.833 -45 -122.5s15.333 -84.334 46 -116.001
s68.167 -47.5 112.5 -47.5s80.833 16.333 109.5 49s43 72.834 43 120.501s-13.5 88 -40.5 121s-63.833 49.5 -110.5 49.5s-85 -18 -115 -54z" />
    <glyph glyph-name="seven" unicode="7" horiz-adv-x="490" 
d="M81 705l162.004 -4.99805l162 5c40 0 60 -15.667 60 -47c0 -13.333 -6.33301 -34 -19 -62s-31.834 -67.333 -57.501 -118s-55.834 -116.167 -90.501 -196.5s-61.334 -152.833 -80.001 -217.5l-11 -40c-8.66699 -22.667 -22.334 -34 -41.001 -34
c-22.667 0 -34 14.333 -34 43c0 4.66699 1.66699 15.667 5 33s10.333 39.333 21 66l14 35c15.333 39.333 25.833 65.166 31.5 77.499s25.5 58.166 59.5 137.499l111 250l-131 4l-162 -5c-33.333 0 -50 12.333 -50 37s16.667 37 50 37z" />
    <glyph glyph-name="eight" unicode="8" horiz-adv-x="576" 
d="M223 394c-42.667 24 -74.333 49 -95 75s-31 58 -31 96s17.833 72.5 53.5 103.5s81 46.5 136 46.5s100.833 -15.5 137.5 -46.5s55 -65.167 55 -102.5s-9.66699 -69 -29 -95s-49 -51.667 -89 -77c104 -51.333 156 -122.666 156 -213.999c0 -52 -21.5 -97.5 -64.5 -136.5
s-97.833 -58.5 -164.5 -58.5s-121.5 19.5 -164.5 58.5s-64.5 84.5 -64.5 136.5c0 93.333 54.667 164.666 164 213.999zM445.001 188c0 66.667 -52.333 122.334 -157 167.001c-104.667 -44.667 -157 -100.334 -157 -167.001c0 -41.333 14.833 -74.5 44.5 -99.5
s67.167 -37.5 112.5 -37.5s82.833 12.5 112.5 37.5s44.5 58.167 44.5 99.5zM290.001 430c40.667 22 70.665 42.999 89.998 62.999s29 42.5 29 67.5s-12.167 46 -36.5 63s-52.166 25.5 -83.499 25.5s-59.5 -8.5 -84.5 -25.5s-37.5 -38 -37.5 -63s9.83301 -47.167 29.5 -66.5
s50.834 -40.666 93.501 -63.999z" />
    <glyph glyph-name="nine" unicode="9" horiz-adv-x="575" 
d="M513 434c0 -126.667 -33.835 -232.333 -101.502 -317s-154.5 -127 -260.5 -127c-42.667 0 -64 11.667 -64 35c0 24.667 18.333 37 55 37c78.667 0 144.5 26.5 197.5 79.5s84.5 118.833 94.5 197.5c-17.333 -26 -41.5 -47.833 -72.5 -65.5s-64.5 -26.5 -100.5 -26.5
c-65.333 0 -116.666 23.667 -153.999 71s-56 101.833 -56 163.5s20.667 116.167 62 163.5c42 46.667 98.333 70 169 70s126.834 -26.5 168.501 -79.5s62.5 -120.167 62.5 -201.5zM277.998 651.001c-44 0 -81 -16.334 -111 -49.001c-29.333 -33.333 -44 -73.666 -44 -120.999
s13.5 -87.5 40.5 -120.5s63.833 -49.5 110.5 -49.5s85 18 115 54s45 76.667 45 122s-15 84 -45 116s-67 48 -111 48z" />
    <glyph glyph-name="colon" unicode=":" horiz-adv-x="226" 
d="M116 510c14 0 24.833 -5 32.5 -15s11.5 -23.167 11.5 -39.5s-5 -30.833 -15 -43.5s-21.667 -19 -35 -19s-24 5.16699 -32 15.5s-12 23.5 -12 39.5s4.83301 30.333 14.5 43s21.5 19 35.5 19zM116 107c14 0 24.833 -5 32.5 -15s11.5 -23.167 11.5 -39.5
s-5 -30.833 -15 -43.5s-21.667 -19 -35 -19s-24 5.16699 -32 15.5s-12 23.5 -12 39.5s4.83301 30.333 14.5 43s21.5 19 35.5 19z" />
    <glyph glyph-name="semicolon" unicode=";" horiz-adv-x="242" 
d="M84 -28l-6.99902 64.001c0 19.333 4.33301 35 13 47c11.333 12.667 21.666 19 30.999 19s17.333 -1.33301 24 -4c17.333 -8.66699 26 -22 26 -40c0 -2.66699 -0.333008 -5.66699 -1 -9c0 -44.667 -11.5 -89.5 -34.5 -134.5s-45.833 -67.5 -68.5 -67.5
c-5.33301 0 -10 1.83301 -14 5.5s-6 8.16699 -6 13.5s6.16699 18.166 18.5 38.499s18.5 42.833 18.5 67.5zM127.001 510.001c14 0 24.834 -5 32.501 -15s11.5 -23.167 11.5 -39.5s-4.83301 -30.833 -14.5 -43.5s-21.334 -19 -35.001 -19s-24.5 5.16699 -32.5 15.5
s-12 23.5 -12 39.5s4.83301 30.333 14.5 43s21.5 19 35.5 19z" />
    <glyph glyph-name="less" unicode="&#x3c;" horiz-adv-x="543" 
d="M438 508c22.667 0 34.0029 -10.665 34.0029 -31.998v-5c0 -9.33301 -5 -17.333 -15 -24s-32.833 -17.334 -68.5 -32.001s-68.334 -29 -98.001 -43l-67 -31c-15 -6.66699 -33.5 -16.334 -55.5 -29.001c-11.333 -7.33301 -17 -13.333 -17 -18
c0 -10.667 65 -44.667 195 -102c58 -26 89.333 -40.333 94 -43c22 -12 33 -26.333 33 -43c0 -9.33301 -3.5 -17.333 -10.5 -24s-12.333 -10 -16 -10h-6.5c-20 0 -50.667 12 -92 36c-72.667 38.667 -126.334 66 -161.001 82l-71 34c-48 21.333 -72 45 -72 71
c0 20 20.667 39.667 62 59c15.333 8 42.666 21.333 81.999 40l119 60c50.667 26 82 41.5 94 46.5s24.333 7.5 37 7.5z" />
    <glyph glyph-name="equal" unicode="=" horiz-adv-x="592" 
d="M296 363l177 3h5c14 0 23.5 -4 28.5 -12s7.5 -15 7.5 -21s-2.5 -13 -7.5 -21s-14.5 -12 -28.5 -12h-5l-177 3l-177 -3h-5c-14 0 -23.5 4 -28.5 12s-7.5 15 -7.5 21s2.5 13 7.5 21s14.5 12 28.5 12h5zM119 222l177 -3l177 3h5c14 0 23.5 -4 28.5 -12s7.5 -15 7.5 -21
s-2.5 -13 -7.5 -21s-14.5 -12 -28.5 -12h-5l-177 3l-177 -3h-5c-14 0 -23.5 4 -28.5 12s-7.5 15 -7.5 21s2.5 13 7.5 21s14.5 12 28.5 12h5z" />
    <glyph glyph-name="greater" unicode="&#x3e;" horiz-adv-x="543" 
d="M200.5 110.5l-49.9961 -26.0059c-15 -7.66699 -29.167 -11.5 -42.5 -11.5c-25.333 0 -38 13 -38 39c0 10.667 5.33301 19.334 16 26.001c13.333 8.66699 36.166 20.167 68.499 34.5l143 64.5c63 28.667 94.5 47.667 94.5 57c0 6.66699 -18.667 19.667 -56 39
c-3.33301 2 -7.83301 4.16699 -13.5 6.5s-8.83398 3.83301 -9.50098 4.5l-57 26c-18.667 9.33301 -38 18 -58 26l-57 24c-47.333 16 -71 34.333 -71 55c0 7.33301 3.66699 15.333 11 24l9 5.5c2.66699 1.66699 5.16699 2.83398 7.5 3.50098s5.16602 1 8.49902 1h8
c1.33301 0 4 -0.666992 8 -2s6.83301 -2.16602 8.5 -2.49902s5.16699 -1.83301 10.5 -4.5c22 -9.33301 53.333 -24.666 94 -45.999l120 -60c52.667 -24 88 -41.667 106 -53c24.667 -15.333 37 -29.666 37 -42.999c0 -8 -2.33301 -18 -7 -30c-6 -8 -15.333 -16 -28 -24
s-42.834 -23.167 -90.501 -45.5s-83.667 -40.166 -108 -53.499z" />
    <glyph glyph-name="question" unicode="?" horiz-adv-x="451" 
d="M339 436c-11.333 -12.667 -28.6641 -30.666 -51.9971 -53.999c-41.333 -41.333 -62 -81.5 -62 -120.5s-11.667 -58.5 -35 -58.5c-24.667 0 -37 18.667 -37 56c0 50 20.667 97.667 62 143c11.333 12.667 28.666 30.667 51.999 54c41.333 43.333 62 83 62 119
s-11.5 65.167 -34.5 87.5s-46.833 33.5 -71.5 33.5c-43.333 0 -74.833 -12.667 -94.5 -38s-34.834 -38 -45.501 -38s-19 3 -25 9s-9 13.667 -9 23c0 23.333 17.167 47.166 51.5 71.499s72.5 36.5 114.5 36.5c55.333 0 100.166 -17.167 134.499 -51.5s51.5 -77.5 51.5 -129.5
s-20.667 -99.667 -62 -143zM157.502 81.501c9.66699 12.333 21.333 18.499 35 18.499s24.167 -4.83301 31.5 -14.5s11 -22.667 11 -39s-4.83301 -30.666 -14.5 -42.999s-21.167 -18.5 -34.5 -18.5s-23.833 5.16699 -31.5 15.5s-11.5 23.333 -11.5 39s4.83301 29.667 14.5 42
z" />
    <glyph glyph-name="at" unicode="@" horiz-adv-x="1003" 
d="M710 413c0 -8 -6.66699 -64.666 -20 -169.999v-44c0 -94 25.333 -141 76 -141c29.333 0 55.5 17.167 78.5 51.5s34.5 89.166 34.5 164.499s-17.667 141.666 -53 198.999c-34 56.667 -78.667 99.334 -134 128.001s-117 43 -185 43c-102.667 0 -190.5 -41.5 -263.5 -124.5
s-109.5 -182 -109.5 -297s31.667 -208.167 95 -279.5s138.333 -107 225 -107c70 0 126.5 13.167 169.5 39.5s68.667 39.5 77 39.5s14.166 -2.66699 17.499 -8c5.33301 -6 8 -13.333 8 -22s-7 -19.334 -21 -32.001c-19.333 -20.667 -52.833 -39.667 -100.5 -57
s-99.5 -26 -155.5 -26c-110.667 0 -203.334 41.667 -278.001 125s-112 191 -112 323v13c0 82 19.167 160.167 57.5 234.5s92 133.666 161 177.999s143.5 66.5 223.5 66.5h7c128.667 0 235.167 -39.667 319.5 -119s126.5 -187.333 126.5 -324
c0 -79.333 -18.167 -145.166 -54.5 -197.499s-80.5 -78.5 -132.5 -78.5c-74 0 -117.667 42 -131 126c-16 -35.333 -38.667 -65.166 -68 -89.499s-64.666 -36.5 -105.999 -36.5s-75.666 13.333 -102.999 40c-49.333 47.333 -74 112.333 -74 195
c0 68.667 20.5 128.5 61.5 179.5s93.833 76.5 158.5 76.5c40.667 0 82 -15 124 -45c4.66699 30 18.667 45 42 45c26 0 39 -23 39 -69zM630 216.001v148.999c-34.667 34 -74.167 51 -118.5 51s-81.5 -17.667 -111.5 -53s-45 -78.166 -45 -128.499s9.5 -93 28.5 -128
s46 -52.5 81 -52.5s67 15.5 96 46.5s52.167 69.5 69.5 115.5z" />
    <glyph glyph-name="A" unicode="A" horiz-adv-x="817" 
d="M577 338c-63.333 205.333 -99.167 308 -107.5 308s-36.5 -76 -84.5 -228l-24 -76c29.333 4.66699 61.833 7 97.5 7s75.167 -3.66699 118.5 -11zM265.999 259c-46.667 -15.333 -86.501 -39.332 -119.501 -71.999s-49.5 -63.334 -49.5 -92.001
c0 -14 3.5 -24.833 10.5 -32.5s16.167 -11.5 27.5 -11.5c36.667 0 80.334 69.333 131.001 208zM791.998 52.001c0 -20 -5.33105 -36.165 -15.998 -48.498s-24 -18.5 -40 -18.5c-29.333 0 -51.666 21.667 -66.999 65c-30 89.333 -54 163.333 -72 222
c-50.667 8.66699 -96.834 13 -138.501 13s-79.834 -3.33301 -114.501 -10c-43.333 -108.667 -75.333 -179.334 -96 -212.001c-33.333 -52 -72 -78 -116 -78c-30.667 0 -55 10.333 -73 31s-27 46.334 -27 77.001c0 46 23.333 92.333 70 139s107.334 78.667 182.001 96
c29.333 81.333 56.833 161.666 82.5 240.999s40.167 123 43.5 131c14 40 33.333 60 58 60c27.333 0 47.666 -17.333 60.999 -52c3.33301 -9.33301 12.666 -37 27.999 -83l99 -300c27.333 -8 49.666 -18.333 66.999 -31s26 -23.667 26 -33c0 -15.333 -8.33301 -23 -25 -23
c-6 0 -22 4.66699 -48 14c28.667 -92.667 47.334 -145.667 56.001 -159s15.667 -21.333 21 -24s11.333 -4.66699 18 -6c14 -2.66699 21 -6.33398 21 -11.001z" />
    <glyph glyph-name="B" unicode="B" horiz-adv-x="742" 
d="M187 165l5 129.998c-44 2 -78.167 12.5 -102.5 31.5s-36.5 41.167 -36.5 66.5s12.167 47.333 36.5 66s58.5 31.334 102.5 38.001c-6 102 -9 160 -9 174c0 62.667 60.667 94 182 94c85.333 0 151.5 -17.5 198.5 -52.5s70.5 -78.5 70.5 -130.5s-26 -100.333 -78 -145
c88.667 -48.667 133 -113.334 133 -194.001c0 -52.667 -16.333 -99.167 -49 -139.5s-75 -70.166 -127 -89.499s-104.333 -29 -157 -29c-58.667 0 -112.334 7.16699 -161.001 21.5s-86 31.166 -112 50.499s-39 35.5 -39 48.5s3.33301 23 10 30s14.667 10.5 24 10.5h4.5
c3 0 12 -4.5 27 -13.5l51 -31.5c19 -12 44 -22.667 75 -32s61.833 -14 92.5 -14h6c79.333 0 145 17.333 197 52s78 79.334 78 134.001c0 31.333 -9.33301 60.333 -28 87s-44 48 -76 64c-68.667 -50.667 -149 -82 -241 -94l4 -128v-7c0 -17.333 -6 -29.666 -18 -36.999
c-7.33301 -4.66699 -14.666 -7 -21.999 -7l-22 7c-12.667 8 -19 21 -19 39zM262 671.998c0 -23.333 0.667969 -79.667 2.00098 -169c80.667 0 157 -12.667 229 -38c44.667 34 67 71.333 67 112s-16.667 70.5 -50 89.5s-74.833 28.5 -124.5 28.5
s-90.834 -7.66699 -123.501 -23zM262.001 434.997v-68.998c29.333 1.33301 61.833 7.16602 97.5 17.499s63.5 22.166 83.5 35.499c-36.667 12 -87.667 18 -153 18c-12 0 -21.333 -0.666992 -28 -2zM193.001 361.999v68c-47.333 -5.33301 -71 -16.333 -71 -33
c0 -22 23.667 -33.667 71 -35z" />
    <glyph glyph-name="C" unicode="C" horiz-adv-x="696" 
d="M383 765c74 0 134.668 -20.668 182.001 -62.001s71 -89.666 71 -144.999c0 -43.333 -13.667 -79.166 -41 -107.499s-59.666 -42.5 -96.999 -42.5s-68.666 12 -93.999 36c-25.333 25.333 -38 52.5 -38 81.5s6.33301 53.167 19 72.5s28 29 46 29
c10 0 18.333 -2.83301 25 -8.5s10 -12.667 10 -21s-4.66699 -19 -14 -32s-14 -26.667 -14 -41s5.66699 -26.333 17 -36s26.166 -14.5 44.499 -14.5s33.666 7.16699 45.999 21.5s18.5 33.5 18.5 57.5c0 35.333 -16 67.666 -48 96.999c-30.667 30 -75 45 -133 45
c-71.333 0 -130 -31.5 -176 -94.5s-69 -137.167 -69 -222.5s24 -160.5 72 -225.5s108.667 -97.5 182 -97.5c32.667 0 63.167 4.33301 91.5 13s49.833 19 64.5 31c35.333 29.333 56.833 44 64.5 44s14.167 -2.5 19.5 -7.5s8 -11.167 8 -18.5c0 -26 -24.833 -54.5 -74.5 -85.5
s-107.834 -46.5 -174.501 -46.5c-96 0 -175.667 37.667 -239 113c-63.333 76.667 -95 169.5 -95 278.5s31 201 93 276s139.667 112.5 233 112.5z" />
    <glyph glyph-name="D" unicode="D" horiz-adv-x="823" 
d="M767 373c0 -69.333 -15.834 -132.667 -47.501 -190s-79 -104.666 -142 -141.999s-137.667 -56 -224 -56s-158.5 25 -216.5 75s-87 112 -87 186c0 54 17.167 100.167 51.5 138.5s76.5 62.166 126.5 71.499c0 56.667 -1.33301 124 -4 202c-32 0 -48 11.333 -48 34
s22.333 39.667 67 51s94.334 17 149.001 17s107 -11 157 -33s90.333 -51.667 121 -89c64.667 -76.667 97 -165 97 -265zM224.999 214.999l4 123.002v48c-30.667 -8.66699 -55.167 -25.834 -73.5 -51.501s-27.5 -55.167 -27.5 -88.5c0 -52 21 -97 63 -135
c43.333 -37.333 98.666 -56 165.999 -56c92.667 0 170.5 30.5 233.5 91.5s94.5 133.167 94.5 216.5s-24.667 157.666 -74 222.999c-24.667 32 -57 57.333 -97 76s-84.333 28 -133 28c-23.333 0 -48.333 -3 -75 -9l-5 -220c44.667 -2.66699 85 -16.5 121 -41.5
s54 -51.167 54 -78.5c0 -16 -6.66699 -26.333 -20 -31c-3.33301 -2 -8.33301 -3 -15 -3s-13 2.5 -19 7.5s-14.667 13.833 -26 26.5s-20 21.667 -26 27c-22.667 17.333 -46 26 -70 26l1 -72l3 -60c1.33301 -17.333 2 -29.5 2 -36.5s-0.166992 -14.167 -0.5 -21.5
s-4.16602 -15.5 -11.499 -24.5s-14.833 -13.5 -22.5 -13.5s-14.5 1.33301 -20.5 4c-17.333 8.66699 -26 23.667 -26 45z" />
    <glyph glyph-name="E" unicode="E" horiz-adv-x="631" 
d="M233 473c48.667 23.333 93.998 35.001 135.998 35.001s71.667 -8.33301 89 -25c20 -14.667 30 -33 30 -55c0 -17.333 -5.66699 -32.666 -17 -45.999c-24.667 -26.667 -63 -40 -115 -40c-21.333 0 -45 4.83301 -71 14.5s-48.333 21.5 -67 35.5
c-56.667 -38.667 -85 -91 -85 -157c0 -44.667 19.667 -85.834 59 -123.501s92.833 -56.5 160.5 -56.5s119.834 14.333 156.501 43s60 43 70 43c18.667 0 28 -8.66699 28 -26c0 -14.667 -10.667 -32 -32 -52s-52.166 -38 -92.499 -54s-81.833 -24 -124.5 -24
c-94 0 -168.667 24.667 -224 74c-54 50 -81 105.667 -81 167c0 89.333 39 159.666 117 210.999c-36.667 37.333 -55 84.333 -55 141s22.333 102 67 136c45.333 34 96.333 51 153 51s106.334 -10.5 149.001 -31.5s64 -44.167 64 -69.5c0 -16 -6.66699 -26.667 -20 -32
c-4 -0.666992 -9.83301 -1 -17.5 -1s-19.167 5 -34.5 15c-43.333 32.667 -86.833 49 -130.5 49s-79.834 -10.333 -108.501 -31c-32 -20 -48 -50.833 -48 -92.5s14.667 -74.5 44 -98.5zM283.998 433.001l-10.999 -5c23.333 -17.333 52.666 -26 87.999 -26s53 8.33301 53 25
c0 14 -16.333 21 -49 21s-59.667 -5 -81 -15z" />
    <glyph glyph-name="F" unicode="F" horiz-adv-x="642" 
d="M170 48l5.00098 295.001c-44 7.33301 -66 22.666 -66 45.999c0 10.667 3 19 9 25c6.66699 6.66699 13.167 10 19.5 10s18.833 -2 37.5 -6l-3 161c-44.667 5.33301 -80.334 18.5 -107.001 39.5s-40 47.167 -40 78.5c0 20.667 8.33301 40.5 25 59.5
s41.834 28.5 75.501 28.5s60.5 -12.5 80.5 -37.5s32.333 -58.5 37 -100.5c116 0 222.333 37 319 111c16 10.667 27 16 33 16c16 0 25.333 -8.66699 28 -26c0 -28 -20.167 -55.667 -60.5 -83s-89.833 -49.5 -148.5 -66.5s-114.334 -25.5 -167.001 -25.5v-165
c22 -3.33301 48.167 -5 78.5 -5s65.833 3.83301 106.5 11.5s63.5 11.5 68.5 11.5s10.667 -2.5 17 -7.5s9.5 -11.833 9.5 -20.5c0 -18.667 -23.833 -34 -71.5 -46s-99.5 -18 -155.5 -18c-17.333 0 -35 0.666992 -53 2l5 -288c0 -38.667 -13.667 -58 -41 -58
s-41 19.333 -41 58zM170.001 651.001c-5.33301 46 -20.667 69 -46 69c-8 0 -15 -2.66699 -21 -8s-9 -11.333 -9 -18c0 -22.667 25.333 -37 76 -43z" />
    <glyph glyph-name="G" unicode="G" horiz-adv-x="781" 
d="M585 341c-10.667 15.333 -36.333 26.667 -77 34c-18 3.33301 -34 5 -48 5s-24.667 -2.33301 -32 -7c-20.667 -6.66699 -31 -15 -31 -25c0 -17.333 21.833 -26 65.5 -26s84.5 6.33301 122.5 19zM595.001 281.001c-44.667 -16 -89.0029 -24 -133.003 -24
s-78.833 8.16699 -104.5 24.5s-38.5 37 -38.5 62s12.333 48.5 37 70.5c25.333 22 61 33 107 33s85.333 -8.5 118 -25.5s55.667 -33.833 69 -50.5c12 4.66699 28.333 14.667 49 30s34.334 23 41.001 23c17.333 0 26 -10 26 -30c0 -22.667 -32 -51 -96 -85
c0 -93.333 -27.167 -170.833 -81.5 -232.5s-122.833 -92.5 -205.5 -92.5c-94 0 -172 38 -234 114c-61.333 76.667 -92 169.334 -92 278.001s31.667 200.667 95 276c64 75.333 144.333 113 241 113c59.333 0 113.333 -11.5 162 -34.5s73 -48.5 73 -76.5
c0 -16.667 -6.66699 -27.334 -20 -32.001c-4.66699 -1.33301 -10.667 -2 -18 -2c-13.333 0 -36.666 12.333 -69.999 37c-29.333 25.333 -71.666 38 -126.999 38c-74 0 -135 -31.5 -183 -94.5s-72 -137.167 -72 -222.5s23 -160.5 69 -225.5s104.333 -97.5 175 -97.5
c58.667 0 108.667 23.167 150 69.5s62.333 98.5 63 156.5z" />
    <glyph glyph-name="H" unicode="H" horiz-adv-x="715" 
d="M45 397c2 23.333 10.9961 34.998 26.9961 34.998c10.667 0 24.334 -5.33301 41.001 -16l-6 293c0 14.667 4 26.834 12 36.501s17.667 14.5 29 14.5s21 -4.66699 29 -14s12 -21.666 12 -36.999s-0.833008 -44 -2.5 -86s-2.5 -120 -2.5 -234c28.667 -10 67 -15 115 -15
c106.667 0 186 32.667 238 98l-5 221c0 44.667 14.667 67 44 67c23.333 0 37.333 -10.333 42 -31c5.33301 -19.333 8 -50.833 8 -94.5s-6.33301 -109.5 -19 -197.5l7 -396c0.666992 -20.667 -6 -35.334 -20 -44.001c-6.66699 -4.66699 -13.667 -7 -21 -7l-21 7
c-14 8.66699 -20.667 23.334 -20 44.001l6 304v32c-25.333 -21.333 -61.166 -38.333 -107.499 -51s-90.666 -19 -132.999 -19s-80.166 3.33301 -113.499 10l5 -276c0.666992 -20.667 -6 -35.334 -20 -44.001c-7.33301 -4.66699 -14.333 -7 -21 -7l-21 7
c-14 8.66699 -20.667 23.334 -20 44.001l4 293c-44 14.667 -66 35.667 -66 63z" />
    <glyph glyph-name="I" unicode="I" horiz-adv-x="598" 
d="M487 444l-1.00098 -168.999c0 -98.667 -23.5 -171.667 -70.5 -219s-104 -71 -171 -71s-118.5 19.333 -154.5 58c-35.333 39.333 -53 83.166 -53 131.499s15.333 87.666 46 117.999s66 45.5 106 45.5s71.667 -12.667 95 -38s35 -56.333 35 -93
s-12.333 -63.334 -37 -80.001c-8 -4.66699 -14.667 -7 -20 -7c-10 0 -14.333 5 -13 15c0 0.666992 1 4.33398 3 11.001c4 18.667 6 36.667 6 54s-7 33.5 -21 48.5s-31.667 22.5 -53 22.5s-39.166 -8.5 -53.499 -25.5s-21.5 -40 -21.5 -69s10.667 -56.833 32 -83.5
c22 -25.333 54 -38 96 -38c55.333 0 98.666 18.5 129.999 55.5s47 88.833 47 155.5l1 178c0 92.667 -0.666992 168.334 -2 227.001c-39.333 -6 -72.333 -9 -99 -9c-144 0 -216 21 -216 63c0 23.333 12.667 35 38 35c3.33301 0 25.166 -4.16699 65.499 -12.5
s77.833 -12.5 112.5 -12.5s75.834 4.16699 123.501 12.5s73.834 12.5 78.501 12.5c28 0 42 -11.167 42 -33.5s-23 -37.5 -69 -45.5c-1.33301 -62.667 -2 -141.667 -2 -237z" />
    <glyph glyph-name="J" unicode="J" horiz-adv-x="576" 
d="M460 485l-1.00195 -246.999v-163c0 -104 -22.5 -181.667 -67.5 -233s-101.333 -77 -169 -77s-120.5 21.333 -158.5 64c-37.333 43.333 -56 91.333 -56 144s16 96.5 48 131.5s69.167 52.5 111.5 52.5s75.833 -12.667 100.5 -38s37 -56.333 37 -93
s-12.667 -63.334 -38 -80.001c-8 -4.66699 -14.333 -7 -19 -7c-10 0 -14.333 5 -13 15c0 0.666992 1 4.66699 3 12c4 18 6 35.833 6 53.5s-7.33301 34 -22 49s-33.667 22.5 -57 22.5s-43.333 -11.5 -60 -34.5s-25 -52 -25 -87s12.333 -66.5 37 -94.5s58.334 -42 101.001 -42
c54 0 96 21.5 126 64.5s45 102.5 45 178.5c0 182 -0.5 318.667 -1.5 410s-1.5 153.333 -1.5 186c-38.667 -6 -71.667 -9 -99 -9c-144 0 -216 21 -216 63c0 23.333 12.667 35 38 35c3.33301 0 25 -4.16699 65 -12.5s77.5 -12.5 112.5 -12.5s76.333 4.16699 124 12.5
s73.834 12.5 78.501 12.5c28 0 42 -11.167 42 -33.5s-23 -37.5 -69 -45.5v-14z" />
    <glyph glyph-name="K" unicode="K" horiz-adv-x="706" 
d="M238 437l0.999023 -88c42.667 4 74.334 13.333 95.001 28c-22 32.667 -54 52.667 -96 60zM169.999 355v86.001c-18 -2.66699 -32.333 -7.83398 -43 -15.501s-16 -16.5 -16 -26.5c0 -20 19.667 -34.667 59 -44zM164.999 34.001l2.99414 248.998
c-39.333 8 -70.166 22.833 -92.499 44.5s-33.5 46.5 -33.5 74.5s11.333 52.667 34 74s53.334 34.333 92.001 39l-5 194c0 15.333 3.66699 27.666 11 36.999s17.333 14 30 14s22.667 -4.66699 30 -14s11 -20.166 11 -32.499s-1.66699 -79.5 -5 -201.5
c65.333 -11.333 115.333 -40 150 -86c32 36 59.5 79.833 82.5 131.5s38.5 104.5 46.5 158.5c5.33301 29.333 19 44 41 44c10 0 18.167 -3.33301 24.5 -10s9.5 -15.667 9.5 -27c0 -47.333 -16.667 -106.666 -50 -177.999s-71.333 -130.333 -114 -177
c66.667 -136.667 120.334 -237.667 161.001 -303c27.333 -44 57 -67 89 -69h8c11.333 0 17 -1.66699 17 -5v-5c0 -20 -5.83301 -36.167 -17.5 -48.5s-25.5 -18.5 -41.5 -18.5s-29.5 3.33301 -40.5 10s-18.667 12.334 -23 17.001s-11.166 12.667 -20.499 24
c-19.333 22 -47.666 68.333 -84.999 139l-108 212c-38 -21.333 -81 -35 -129 -41l7 -239v-7c0 -17.333 -6.33301 -30 -19 -38c-7.33301 -4 -14.666 -6 -21.999 -6l-22 6c-12.667 8 -19 20.667 -19 38z" />
    <glyph glyph-name="L" unicode="L" horiz-adv-x="621" 
d="M160 13c-31.333 -14.667 -54.6641 -22.001 -69.9971 -22.001s-28.333 5.5 -39 16.5s-16 24.5 -16 40.5s5 29.333 15 40c10 11.333 21.333 17 34 17s27 -2.33301 43 -7c13.333 44 20 138.667 20 284c0 76.667 -4.33301 151 -13 223s-13 112.167 -13 120.5
s3.66699 16.5 11 24.5s16.666 12 27.999 12c24 0 38.667 -17 44 -51c10 -72.667 15 -181.5 15 -326.5s-7 -247.5 -21 -307.5c46 -14.667 102 -22 168 -22c40 0 74.5 9.5 103.5 28.5s43.5 44.167 43.5 75.5c0 15.333 -4.83301 28.5 -14.5 39.5s-21.5 16.5 -35.5 16.5
c-26 0 -41.667 -13 -47 -39c-6.66699 -26 -16.334 -39 -29.001 -39c-8 0 -15 5.33301 -21 16s-9 22.334 -9 35.001c0 24.667 10.167 46.334 30.5 65.001s46.166 28 77.499 28s59.5 -11 84.5 -33s37.5 -51.667 37.5 -89c0 -52.667 -21.667 -94.334 -65 -125.001
c-46 -32.667 -99.667 -49 -161 -49s-128.333 9.33301 -201 28z" />
    <glyph glyph-name="M" unicode="M" horiz-adv-x="989" 
d="M253 626l-2 89.998c0 10.667 3.66699 20.334 11 29.001c6 8.66699 15 13 27 13c18.667 0 33.334 -11.667 44.001 -35c91.333 -208.667 167 -373 227 -493c65.333 126 125.333 256 180 390l46 108c9.33301 20 23 30 41 30c27.333 0 41 -17 41 -51l-5 -332
c0 -166.667 12.667 -266.334 38 -299.001c3.33301 -3.33301 8.5 -5.33301 15.5 -6s13.167 -1.33398 18.5 -2.00098s8 -3 8 -7c0 -20 -5.83301 -36.333 -17.5 -49s-25.834 -19 -42.501 -19c-60 0 -90 80 -90 240v336l-193 -424c-9.33301 -20.667 -21.333 -31 -36 -31
c-15.333 0 -29 11.333 -41 34c-0.666992 1.33301 -15.667 36.333 -45 105s-79.333 175.334 -150 320.001v-233c0 -106 -9.16699 -184.5 -27.5 -235.5s-43.5 -84.5 -75.5 -100.5c-20 -9.33301 -42 -14 -66 -14c-39.333 0 -70.5 14.167 -93.5 42.5s-34.5 60.833 -34.5 97.5
s12.5 69.5 37.5 98.5s54.833 43.5 89.5 43.5c14.667 0 26.834 -3.5 36.501 -10.5s14.5 -17.167 14.5 -30.5c0 -24.667 -16 -37 -48 -37c-14.667 0 -27.334 -6.16699 -38.001 -18.5s-16 -27.666 -16 -45.999s5 -33.333 15 -45s24 -17.5 42 -17.5
c35.333 0 59.5 25.333 72.5 76s19.5 131.834 19.5 243.501s-1 191.5 -3 239.5z" />
    <glyph glyph-name="N" unicode="N" horiz-adv-x="878" 
d="M159 -8c-39.333 0 -70.501 14.166 -93.501 42.499s-34.5 60.833 -34.5 97.5s12.5 69.5 37.5 98.5s54.833 43.5 89.5 43.5c14.667 0 26.834 -3.5 36.501 -10.5s14.5 -17.167 14.5 -30.5c0 -24.667 -16 -37 -48 -37c-14.667 0 -27.334 -6.16699 -38.001 -18.5
s-16 -27.666 -16 -45.999s5 -33.333 15 -45s24 -17.5 42 -17.5c62 0 93 96 93 288c0 52.667 -5.33301 121.667 -16 207s-16 135.166 -16 149.499s4.66699 25.833 14 34.5s20.333 13 33 13c18.667 0 33.667 -11.667 45 -35c36 -70 87.333 -163.667 154 -281
s124.334 -214.666 173.001 -291.999c-2.66699 0 -5.83398 46.5 -9.50098 139.5s-5.5 154.167 -5.5 183.5c0 74 7.33301 137 22 189c8.66699 30 22.834 53.5 42.501 70.5s42.334 25.5 68.001 25.5s47.5 -6.83301 65.5 -20.5s27 -29.5 27 -47.5s-7.66699 -27 -23 -27
c-4.66699 0 -14.334 3 -29.001 9s-27.667 9 -39 9c-42 0 -63 -96.333 -63 -289c0 -45.333 3.66699 -114.666 11 -207.999s11 -145.333 11 -156s-4.5 -20.334 -13.5 -29.001s-19.5 -13 -31.5 -13c-18 0 -33.667 11.667 -47 35l-114 199l-127 227
c-36.667 68 -62 112.667 -76 134c9.33301 -88 14 -171.667 14 -251c0 -227.333 -56 -341 -168 -341z" />
    <glyph glyph-name="O" unicode="O" horiz-adv-x="811" 
d="M462 695c-45.333 0 -85.333 -16.498 -120 -49.498s-60.334 -73.5 -77.001 -121.5s-25 -89 -25 -123s1 -61.333 3 -82s3.83301 -36.834 5.5 -48.501s2.5 -18.5 2.5 -20.5c0 -16.667 -7.66699 -25 -23 -25c-13.333 0 -25.666 17.167 -36.999 51.5s-17 70.166 -17 107.499
c0 102 26.333 191 79 267s121.667 114 207 114s155.5 -36.667 210.5 -110s82.5 -164.833 82.5 -274.5s-31.5 -203 -94.5 -280s-145 -115.5 -246 -115.5s-185.833 36.333 -254.5 109s-103 166 -103 280c0 46.667 4.83301 84.5 14.5 113.5s24.167 43.5 43.5 43.5
c9.33301 0 17 -3.16699 23 -9.5s9 -12.833 9 -19.5s-2.16699 -24.167 -6.5 -52.5s-6.5 -53.5 -6.5 -75.5c0 -98 27.667 -175.667 83 -233s120.333 -86 195 -86c54 0 101.833 15 143.5 45s72.5 68.5 92.5 115.5s30 96.5 30 148.5v10c0 88 -19.5 163.5 -58.5 226.5
s-90.833 94.5 -155.5 94.5z" />
    <glyph glyph-name="P" unicode="P" horiz-adv-x="691" 
d="M200 318c0 72 -1 132.998 -3 182.998c-27.333 -3.33301 -48.833 -13.166 -64.5 -29.499s-23.5 -34 -23.5 -53s7.83301 -38.167 23.5 -57.5s38.167 -33.666 67.5 -42.999zM269 237.998c3.33301 -114.667 5.00098 -179.835 5.00098 -195.502s-4 -28.5 -12 -38.5
s-15.833 -15 -23.5 -15s-14.5 1.66699 -20.5 5c-17.333 8.66699 -26 24.334 -26 47.001l7 209c-50.667 10.667 -90.334 32 -119.001 64c-27.333 32.667 -41 67.334 -41 104.001s14.167 69.167 42.5 97.5s65.833 45.833 112.5 52.5l-5 119c1.33301 23.333 12 39.333 32 48
c41.333 16.667 90.333 25 147 25c82.667 0 151.5 -23.833 206.5 -71.5s82.5 -103.5 82.5 -167.5s-16.333 -117.667 -49 -161c-61.333 -82 -159 -123 -293 -123c-24 0 -39.333 0.333008 -46 1zM267.001 500.997c0.666992 -17.333 1.00098 -82.667 1.00098 -196
c4 -0.666992 13.333 -1 28 -1c82 0 149.667 17.667 203 53s80 89 80 161c0 49.333 -20.833 90.5 -62.5 123.5s-91.5 49.5 -149.5 49.5c-40.667 0 -74.334 -4.33301 -101.001 -13c0 -24 0.666992 -60.667 2 -110c41.333 -5.33301 77.5 -20.333 108.5 -45
s46.5 -49.667 46.5 -75c0 -10.667 -3.16699 -19 -9.5 -25s-13.833 -9 -22.5 -9s-18.667 6.66699 -30 20c-36.667 42.667 -68 65 -94 67z" />
    <glyph glyph-name="Q" unicode="Q" horiz-adv-x="829" 
d="M239 404c0 -44 5 -80.9971 15 -110.997s15 -47.333 15 -52c0 -14 -7 -21 -21 -21c-19.333 0 -37.333 20.167 -54 60.5s-25 81.833 -25 124.5c0 100 28.333 185 85 255s128.334 105 215.001 105s158.667 -36.667 216 -110s86 -163.666 86 -270.999
c0 -70.667 -14.667 -136.167 -44 -196.5s-69.333 -108.5 -120 -144.5c51.333 -70 78.666 -109 81.999 -117s5 -15.333 5 -22s-3.16699 -13.834 -9.5 -21.501s-13.5 -11.5 -21.5 -11.5c-15.333 0 -28.333 8 -39 24c-2.66699 3.33301 -17.334 25.666 -44.001 66.999l-31 49
c-42.667 -17.333 -85 -26 -127 -26c-100 0 -186 39.333 -258 118c-71.333 79.333 -107 176.333 -107 291c0 84.667 8.33301 136.667 25 156c8 10 17.833 15 29.5 15s20.5 -4 26.5 -12c6.66699 -6.66699 10 -14 10 -22s-2.66699 -20.167 -8 -36.5s-8 -52.5 -8 -108.5
c0 -90.667 28.333 -168.167 85 -232.5s125 -96.5 205 -96.5c40 0 68.333 5 85 15c-52.667 74.667 -79 117.5 -79 128.5s3 20.667 9 29s13 12.666 21 12.999s15.333 -1.83398 22 -6.50098s11.834 -9.66699 15.501 -15s11 -17.5 22 -36.5l48.5 -81.5
c40 28.667 71.667 68.834 95 120.501s35 107.5 35 167.5c0 85.333 -21.667 156.666 -65 213.999s-97.5 86 -162.5 86s-119.5 -27 -163.5 -81s-66 -122.667 -66 -206z" />
    <glyph glyph-name="R" unicode="R" horiz-adv-x="739" 
d="M236 672c0 -38 1.33301 -103.667 4 -197c38 -4 74.5 -17 109.5 -39s62.833 -48 83.5 -78c32.667 20 58.667 45.833 78 77.5s29 64.167 29 97.5c0 50 -19.333 89.5 -58 118.5s-86.667 43.5 -144 43.5c-31.333 0 -65.333 -7.66699 -102 -23zM239 410v-94.001
c15.333 -1.33301 34.333 -2 57 -2s45.334 4.33301 68.001 13c-28.667 42.667 -70.334 70.334 -125.001 83.001zM170 322.999v91c-39.333 -5.33301 -59 -18.5 -59 -39.5s19.667 -38.167 59 -51.5zM698 -6.00098c11.333 0 16.999 -1.66699 16.999 -5v-5
c0 -17.333 -5.83301 -32.833 -17.5 -46.5s-23.5 -20.5 -35.5 -20.5s-25.333 4 -40 12s-33.834 28.333 -57.501 61s-47.834 72.667 -72.501 120l-92 161c-41.333 -14.667 -83.666 -22 -126.999 -22c-17.333 0 -28.333 0.333008 -33 1l6 -209
c0 -15.333 -3.66699 -27.666 -11 -36.999s-17.333 -14 -30 -14s-22.667 4.66699 -30 14s-11 26.166 -11 50.499s1.33301 92.166 4 203.499c-41.333 9.33301 -72.666 24.333 -93.999 45s-32 44.334 -32 71.001s11.833 50 35.5 70s53.834 31.667 90.501 35l-8 199
c0 28.667 11.667 48.667 35 60c40 18 88 27 144 27c81.333 0 148.166 -22 200.499 -66s78.5 -98.667 78.5 -164c0 -46 -13.5 -90.167 -40.5 -132.5s-63.167 -76.5 -108.5 -102.5c75.333 -136 119.333 -213.667 132 -233c30.667 -46.667 60.334 -71 89.001 -73h8z" />
    <glyph glyph-name="S" unicode="S" horiz-adv-x="581" 
d="M222 146c-6.66699 3.33301 -10 7.66504 -10 12.998s1.66699 11.5 5 18.5s6.33301 13.833 9 20.5c6.66699 16 4 28.333 -8 37c-14 9.33301 -28 14 -42 14s-27.167 -5.83301 -39.5 -17.5s-18.5 -27.834 -18.5 -48.501c0 -30 14.667 -58.833 44 -86.5
s69.333 -41.5 120 -41.5s92.834 15 126.501 45s50.5 66.667 50.5 110c0 58.667 -44 110.334 -132 155.001c-4.66699 2.66699 -15 7.83398 -31 15.501s-27 13.167 -33 16.5l-29.5 16c-13.667 7.33301 -24.334 13.666 -32.001 18.999l-27.5 19c-16 10.667 -33 26 -51 46
c-25.333 30.667 -38 66.834 -38 108.501s20.333 78.667 61 111s88.5 48.5 143.5 48.5s101.833 -10.333 140.5 -31s58 -44 58 -70c0 -16 -6.66699 -26.667 -20 -32c-4.66699 -1.33301 -10.667 -2 -18 -2s-14.5 2.33301 -21.5 7s-15 11 -24 19s-17.167 14.333 -24.5 19
c-20 13.333 -47.333 20 -82 20s-65.5 -9 -92.5 -27s-40.5 -40.167 -40.5 -66.5s12.667 -50.833 38 -73.5c22.667 -20 58.334 -43.167 107.001 -69.5s81 -44.5 97 -54.5c39.333 -23.333 71.166 -51.833 95.499 -85.5s36.5 -69.834 36.5 -108.501
c0 -61.333 -23.833 -114.166 -71.5 -158.499s-108.5 -66.5 -182.5 -66.5s-132.333 19.333 -175 58s-64 81.334 -64 128.001s12.333 82.834 37 108.501s55.667 38.5 93 38.5s66 -9.33301 86 -28s30 -40 30 -64s-6.33301 -43.667 -19 -59c-7.33301 -10 -16 -16.833 -26 -20.5
s-18.333 -3.83398 -25 -0.500977z" />
    <glyph glyph-name="T" unicode="T" horiz-adv-x="629" 
d="M310.5 3.5c-7.66699 -9 -17.6699 -13.5 -30.0029 -13.5s-22 4.5 -29 13.5s-10.667 17.167 -11 24.5s-0.5 14.666 -0.5 21.999s0.666992 32.5 2 75.5s2 126.167 2 249.5s3.66699 206.333 11 249c-35.333 2.66699 -74.333 10.334 -117 23.001c-78.667 24 -118 50 -118 78
c-0.666992 15.333 6 26.666 20 33.999c6.66699 3.33301 13.167 5 19.5 5s12.833 -2.66699 19.5 -8c10 -5.33301 18.667 -10.666 26 -15.999c26 -18 81 -33.333 165 -46c17.333 35.333 44.333 62.5 81 81.5s75.834 28.5 117.501 28.5s73.834 -9.33301 96.501 -28
c24 -18 36 -39.167 36 -63.5s-13.667 -46.833 -41 -67.5s-75.666 -31 -144.999 -31c-38 0 -67.667 1 -89 3c-6.66699 -20 -10 -87 -10 -201s1 -205.333 3 -274s3 -106.667 3 -114s-3.83301 -15.5 -11.5 -24.5zM460.997 734c-56 0 -95.334 -16 -118.001 -48
c17.333 -3.33301 36.333 -5 57 -5s46.834 3 78.501 9s47.5 13.667 47.5 23c0 14 -21.667 21 -65 21z" />
    <glyph glyph-name="U" unicode="U" horiz-adv-x="793" 
d="M152 690c-15.333 0 -28.167 -6.00098 -38.5 -18.001s-15.5 -26 -15.5 -42s3 -29.5 9 -40.5s12 -19.5 18 -25.5s9 -10.667 9 -14c0 -16 -9.33301 -24 -28 -24s-36.334 10.333 -53.001 31s-25 45 -25 73s8.66699 56.667 26 86c21.333 32.667 54 49 98 49
s77.667 -15.167 101 -45.5s35 -64 35 -101s-8.5 -100.667 -25.5 -191s-25.5 -147.5 -25.5 -171.5c0 -62 10 -111 30 -147s49.833 -54 89.5 -54s77 23.667 112 71s61.5 99.833 79.5 157.5s28.667 113.834 32 168.501c-2 46.667 -3 127.334 -3 242.001c0 44 14.333 66 43 66
c34.667 0 52 -27.667 52 -83c0 -13.333 -8.66699 -98.666 -26 -255.999c1.33301 -72 8.66602 -145 21.999 -219s26.333 -117.667 39 -131c4 -4.66699 13 -7.5 27 -8.5s21 -4.83301 21 -11.5c0 -18.667 -6.33301 -34.334 -19 -47.001c-13.333 -13.333 -26.5 -20 -39.5 -20
s-21.833 2 -26.5 6c-10 5.33301 -20.667 17.333 -32 36c-10 18.667 -18 44.5 -24 77.5l-10 55c-0.666992 3.66699 -2.16699 14.667 -4.5 33s-4.16602 30.166 -5.49902 35.499c-16 -62 -43.833 -117.833 -83.5 -167.5s-92.667 -74.5 -159 -74.5s-116.166 25.667 -149.499 77
c-29.333 47.333 -44 99.5 -44 156.5s9.16699 127.5 27.5 211.5s27.5 143.667 27.5 179c0 54 -20.333 81 -61 81z" />
    <glyph glyph-name="V" unicode="V" horiz-adv-x="737" 
d="M210 358l3 170c0 108.667 -24.667 163 -74 163c-14 0 -25.333 -4.16699 -34 -12.5s-12.667 -17 -12 -26s3.66699 -16.5 9 -22.5c4 -2.66699 11 -6 21 -10c21.333 -8.66699 32 -20.667 32 -36c0 -23.333 -12.667 -35 -38 -35s-47.166 10.167 -65.499 30.5
s-27.5 44.833 -27.5 73.5s10 54.5 30 77.5s46.667 34.5 80 34.5c64 0 106.667 -22.333 128 -67c18.667 -36.667 28 -90.667 28 -162c-0.666992 -38.667 -2 -96.667 -4 -174c0 -92.667 9 -166.167 27 -220.5s42.667 -81.5 74 -81.5c22 0 41.833 19 59.5 57
s39.5 101.833 65.5 191.5l68 236.5c30 109.333 46 166.666 48 171.999c9.33301 28 24 42 44 42c12.667 0 22.167 -4.33301 28.5 -13s9.5 -17.667 9.5 -27s-9.5 -44.166 -28.5 -104.499l-85 -282c-37.667 -127.667 -66.167 -211.167 -85.5 -250.5
c-32 -64.667 -75.333 -97 -130 -97s-96.834 32.5 -126.501 97.5s-44.5 156.833 -44.5 275.5z" />
    <glyph glyph-name="W" unicode="W" horiz-adv-x="1060" 
d="M209 358l2.99609 169.999c0 108.667 -24.667 163 -74 163c-14 0 -25.167 -4.16699 -33.5 -12.5s-12.166 -17.166 -11.499 -26.499s3.66699 -17 9 -23c4 -2.66699 11 -6 21 -10c21.333 -8.66699 32 -20.667 32 -36c0 -23.333 -12.667 -35 -38 -35
s-47.166 10.167 -65.499 30.5s-27.5 45 -27.5 74s10 55 30 78s46.333 34.5 79 34.5c64 0 106.667 -22.333 128 -67c18.667 -36.667 28 -90.667 28 -162l-4 -174c0 -93.333 8.16699 -167 24.5 -221s38.5 -81 66.5 -81c32.667 0 62.667 27.833 90 83.5s41 115.5 41 179.5
l-2 223c0 44 14.333 66 43 66c34.667 0 52 -27.667 52 -83c0 -17.333 -6.66699 -88 -20 -212c0.666992 -61.333 14.667 -118.833 42 -172.5s57 -80.5 89 -80.5c29.333 0 52.333 26.667 69 80s25 127 25 221l-4 171c0 70 8.33301 124 25 162
c18.667 44.667 58.334 67 119.001 67c24.667 0 46.5 -8 65.5 -24s28.5 -32 28.5 -48s-7.33301 -24 -22 -24c-4.66699 0 -14 3.66699 -28 11s-26.333 11 -37 11c-49.333 0 -74 -54.333 -74 -163l3 -167c0 -119.333 -14.5 -211 -43.5 -275s-72.167 -96 -129.5 -96
c-36.667 0 -69 16.5 -97 49.5s-50.333 78.5 -67 136.5c-16 -59.333 -38.167 -106 -66.5 -140s-61.166 -51 -98.499 -51c-56.667 0 -99.167 32 -127.5 96s-42.5 156.333 -42.5 277z" />
    <glyph glyph-name="X" unicode="X" horiz-adv-x="752" 
d="M365 321c-67.333 -108 -114.33 -185.001 -140.997 -231.001l-45 -76c-11.333 -16 -24.333 -24 -39 -24c-26.667 0 -40 11.667 -40 35c0 11.333 3 21.333 9 30l44 67l177 269c-36 96 -70.833 170.333 -104.5 223s-63.5 79 -89.5 79c-18.667 0 -31 -8.66699 -37 -26
c-2 -6 -3 -12.5 -3 -19.5s2.66699 -12.333 8 -16s13 -7.5 23 -11.5c21.333 -8.66699 32 -20.667 32 -36c0 -23.333 -12.5 -35 -37.5 -35s-47.167 10 -66.5 30c-18 18 -27 42.333 -27 73c0 39.333 15.333 70 46 92c17.333 13.333 37.666 20 60.999 20h4
c45.333 0 85.666 -23.667 120.999 -71c36.667 -47.333 75.334 -124 116.001 -230l95.5 160.5c40.333 69.667 63.833 109.834 70.5 120.501c8 10.667 18.667 16 32 16s22.666 -3.5 27.999 -10.5s8 -14.833 8 -23.5s-2.5 -18.167 -7.5 -28.5s-16.167 -29.833 -33.5 -58.5
l-156 -249c79.333 -223.333 145.333 -335 198 -335c13.333 0 23.666 4.16699 30.999 12.5s11 18.666 11 30.999s-4.33301 21.833 -13 28.5s-18.667 10.334 -30 11.001c-28 2 -42 9 -42 21s5.66699 21 17 27s24 9 38 9c26 0 48.5 -9.66699 67.5 -29s28.5 -43.5 28.5 -72.5
s-10.167 -54.5 -30.5 -76.5s-47.833 -33 -82.5 -33s-68.667 18.667 -102 56c-38.667 46 -85 139.667 -139 281z" />
    <glyph glyph-name="Y" unicode="Y" horiz-adv-x="583" 
d="M21 713c0 31.333 12 46.999 36 46.999c6.66699 0 13.334 -3.16699 20.001 -9.5s11.5 -14 14.5 -23s7.16699 -24 12.5 -45s12 -44.833 20 -71.5c22.667 -76 54 -139 94 -189c22 -27.333 43 -41 63 -41c10 0 17.333 1.33301 22 4c29.333 186 67.666 302.333 114.999 349
c20 20 41.833 30 65.5 30s41.667 -7.5 54 -22.5s18.5 -35.167 18.5 -60.5c0 -55.333 -19.167 -114.5 -57.5 -177.5s-80.166 -116.833 -125.499 -161.5c-5.33301 -33.333 -8 -78.333 -8 -135s1.66699 -110.167 5 -160.5s5 -80.5 5 -90.5s-3.83301 -19.333 -11.5 -28
s-17.5 -13 -29.5 -13c-25.333 0 -40 31 -44 93c-0.666992 16 -1 44.333 -1 85s4 113 12 217c-8 -1.33301 -16.667 -2 -26 -2c-34 0 -64.833 12.833 -92.5 38.5s-54.334 65.834 -80.001 120.501s-45.667 104.5 -60 149.5s-21.5 77.167 -21.5 96.5zM477 691.999
c-14 0 -33.667 -34.668 -59 -104.001s-39.333 -120.666 -42 -153.999c25.333 29.333 50.333 69 75 119s37 89.333 37 118c0 14 -3.66699 21 -11 21z" />
    <glyph glyph-name="Z" unicode="Z" horiz-adv-x="623" 
d="M93 111l150 248.502c69.333 115.667 129 224.5 179 326.5c-46.667 -11.333 -88.167 -17 -124.5 -17s-67.5 0.833008 -93.5 2.5s-49.167 4.5 -69.5 8.5s-38.666 10.5 -54.999 19.5s-23.833 19.833 -22.5 32.5c0 22 11.667 33 35 33c2.66699 0 23.667 -4.33301 63 -13
s79.666 -13 120.999 -13s84 4.33301 128 13s69.333 13 76 13c31.333 0 47 -13 47 -39c0 -14 -10.333 -39.833 -31 -77.5l-85 -148l-93 -156.5c-76 -124.667 -125.667 -208 -149 -250c83.333 -26 149 -39 197 -39s85.5 8.66699 112.5 26s40.5 41.166 40.5 71.499
s-11.667 50.166 -35 59.499c-8 4 -17 6 -27 6s-19.333 -5.66699 -28 -17c-15.333 -15.333 -18 -37.333 -8 -66c2 -6 3 -9.33301 3 -10c0.666992 -12 -7 -16.667 -23 -14s-28.667 14.334 -38 35.001c-4.66699 10.667 -7 19.5 -7 26.5v13.5c0 22.667 10.333 44.5 31 65.5
s47 31.5 79 31.5s60.5 -11.833 85.5 -35.5s37.5 -57.834 37.5 -102.501s-19.833 -82.5 -59.5 -113.5s-90.167 -46.5 -151.5 -46.5s-141.666 15 -240.999 45c-18.667 -24 -39.167 -36 -61.5 -36s-37.833 4.66699 -46.5 14c-10.667 11.333 -16 22.5 -16 33.5
s1.83301 21 5.5 30s12.167 17.5 25.5 25.5s29.666 12.667 48.999 14z" />
    <glyph glyph-name="bracketleft" unicode="[" horiz-adv-x="348" 
d="M150 -160l44 -0.00195312l87 3h5c14 0 23.5 -4 28.5 -12s7.5 -15 7.5 -21s-2.5 -13 -7.5 -21s-14.5 -12 -28.5 -12h-5l-87 3l-77 -4c-12 0 -21.833 3 -29.5 9s-11.5 13 -11.5 21s1 61.333 3 160s3 198.334 3 299.001s-1 200.334 -3 299.001s-3 152 -3 160
s3.83301 15 11.5 21s17.5 9 29.5 9l77 -4l87 3h5c14 0 23.5 -4 28.5 -12s7.5 -15 7.5 -21s-2.5 -13 -7.5 -21s-14.5 -12 -28.5 -12h-5l-87 3h-44c-4 -228 -6 -369.667 -6 -425s2 -197 6 -425z" />
    <glyph glyph-name="backslash" unicode="\" horiz-adv-x="363" 
d="M307 -112c0 -26.667 -12 -39.999 -36 -39.999c-22 0 -35.333 14 -40 42l-13 69c-51.333 278 -101 508.667 -149 692c-8 35.333 -12 57.666 -12 66.999c0 28 12 42 36 42c20.667 0 34 -14 40 -42l13 -69c33.333 -180.667 64.333 -332 93 -454l56 -239
c8 -35.333 12 -58 12 -68z" />
    <glyph glyph-name="bracketright" unicode="]" horiz-adv-x="348" 
d="M154 750l77 4c12 0 21.833 -3 29.5 -9s11.5 -13 11.5 -21s-1 -61.5 -3 -160.5s-3 -198.667 -3 -299s1 -200 3 -299s3 -152.333 3 -160s-3.83301 -14.5 -11.5 -20.5s-17.5 -9 -29.5 -9l-77 4l-87 -3h-5c-14 0 -23.5 4 -28.5 12s-7.5 15 -7.5 21s2.5 13 7.5 21
s14.5 12 28.5 12h5l87 -3h44c4 228 6 369.667 6 425s-2 197 -6 425h-44l-87 -3h-5c-14 0 -23.5 4 -28.5 12s-7.5 15 -7.5 21s2.5 13 7.5 21s14.5 12 28.5 12h5z" />
    <glyph glyph-name="asciicircum" unicode="^" horiz-adv-x="521" 
d="M481 395c1.33301 -5.33301 -1.33301 -11.166 -8 -17.499s-15.834 -9.5 -27.501 -9.5s-21.834 8 -30.501 24c0 1.33301 -12.667 25.666 -38 72.999c-70.667 138 -109.667 207 -117 207c-4.66699 0 -31.667 -46.167 -81 -138.5s-74 -139.5 -74 -141.5
c-8.66699 -16 -18.667 -24 -30 -24c-22 0 -33 9.66699 -33 29c0 12.667 18 49 54 109l45 76l33 60l51 95c8.66699 15.333 20.834 23 36.501 23s27.834 -7.33301 36.501 -22c20 -41.333 53.833 -103 101.5 -185s73.167 -127.333 76.5 -136s5 -16 5 -22z" />
    <glyph glyph-name="underscore" unicode="_" horiz-adv-x="576" 
d="M86 -157l202 -3l197 3h5c14 0 23.5 -4 28.5 -12s7.5 -15 7.5 -21s-2.5 -13 -7.5 -21s-14.5 -12 -28.5 -12h-5l-197 3l-197 -3h-5c-14 0 -23.5 4 -28.5 12s-7.5 15 -7.5 21s2.5 13 7.5 21s14.5 12 28.5 12z" />
    <glyph glyph-name="grave" unicode="`" horiz-adv-x="285" 
d="M215 614c0 -14 -8.99902 -21 -26.999 -21s-42.333 14.333 -73 43c-30 29.333 -45 58 -45 86c-0.666992 2 -1 4 -1 6c0 12.667 7.33301 22 22 28c5.33301 2.66699 12 4 20 4c15.333 0 30.666 -18 45.999 -54c9.33301 -20.667 21.333 -39.167 36 -55.5s22 -28.5 22 -36.5z
" />
    <glyph glyph-name="a" unicode="a" horiz-adv-x="571" 
d="M467 242c0 -48.667 3.5 -89.165 10.5 -121.498s15.833 -50.5 26.5 -54.5c4 -2 8.83301 -3.33301 14.5 -4s9.66699 -1.66699 12 -3s3.5 -4 3.5 -8c0 -18.667 -5 -33.5 -15 -44.5s-24.5 -16.5 -43.5 -16.5s-33.833 12.167 -44.5 36.5s-16 56.166 -16 95.499
c-18 -38.667 -43 -70.334 -75 -95.001s-68.167 -37 -108.5 -37s-74.833 13.333 -103.5 40c-53.333 49.333 -80 119 -80 209c0 72.667 21 136 63 190s96 81 162 81c50 0 93.333 -17 130 -51c0 34 12.667 51 38 51c30.667 0 46 -22.833 46 -68.5s-6.66699 -112.167 -20 -199.5
zM409 233.002l-5.00098 154c-39.333 38.667 -81 58 -125 58s-81.667 -19.667 -113 -59s-47 -86.833 -47 -142.5s10.333 -101 31 -136s49.334 -52.5 86.001 -52.5s70.5 16.333 101.5 49s54.833 75.667 71.5 129z" />
    <glyph glyph-name="b" unicode="b" horiz-adv-x="552" 
d="M505 261c0 -72.667 -21.0039 -136 -63.0039 -190s-96 -81 -162 -81c-49.333 0 -92.666 17 -129.999 51c0 -34 -12.667 -51 -38 -51c-30.667 0 -46 22.833 -46 68.5s6.66699 112.167 20 199.5c0 45.333 -3 130.833 -9 256.5s-9 193.5 -9 203.5s3.5 19.667 10.5 29
s14.333 14 22 14s14.834 -1.66699 21.501 -5c16 -7.33301 24 -20.333 24 -39v-7v-316c18 34.667 42.333 62.667 73 84s65.334 32 104.001 32s72.334 -13.333 101.001 -40c54 -49.333 81 -119 81 -209zM143.996 267l5.00098 -154c39.333 -38.667 81 -58 125 -58
s81.667 19.667 113 59s47 86.833 47 142.5s-10.333 101 -31 136s-49.334 52.5 -86.001 52.5s-70.5 -16.333 -101.5 -49s-54.833 -75.667 -71.5 -129z" />
    <glyph glyph-name="c" unicode="c" horiz-adv-x="509" 
d="M446 103c16.667 0 24.9971 -8.83203 24.9971 -26.499s-19.333 -37.5 -58 -59.5c-39.333 -21.333 -80 -32 -122 -32c-69.333 0 -127.666 25.667 -174.999 77c-46.667 51.333 -70 114 -70 188s23.333 136.667 70 188s108.667 77 186 77c41.333 0 78.333 -9.5 111 -28.5
s49 -37.833 49 -56.5s-6.66699 -30.667 -20 -36c-4 -1.33301 -9.5 -2 -16.5 -2s-15.833 4.66699 -26.5 14c-35.333 29.333 -70.666 44 -105.999 44c-46 0 -86.333 -19.333 -121 -58c-34 -38.667 -51 -85.834 -51 -141.501s17.5 -103 52.5 -142s77.833 -58.5 128.5 -58.5
c40 0 78.333 13.333 115 40c12.667 8.66699 22.334 13 29.001 13z" />
    <glyph glyph-name="d" unicode="d" horiz-adv-x="588" 
d="M424 228l-0.000976562 159c-39.333 38.667 -86.666 58 -141.999 58c-42 0 -79.333 -19.5 -112 -58.5s-49 -85 -49 -138s11.667 -98.833 35 -137.5c23.333 -37.333 55 -56 95 -56c70 0 127.667 57.667 173 173zM465.999 760c32.667 0 48.999 -26.999 48.999 -80.999
c0 -20.667 -1.33301 -44.667 -4 -72l-12 -131c-7.33301 -81.333 -11.666 -130.333 -12.999 -147c0 -87.333 3.16699 -152.5 9.5 -195.5s17.833 -66.167 34.5 -69.5c17.333 0 26 -5 26 -15c0 -14.667 -4.83301 -28.167 -14.5 -40.5s-23.5 -18.5 -41.5 -18.5
c-37.333 0 -60.333 44.667 -69 134c-49.333 -89.333 -111 -134 -185 -134c-44 0 -81.333 14 -112 42c-58 51.333 -87 120.333 -87 207c0 72.667 22 136 66 190s100.333 81 169 81c50 0 97.333 -16.333 142 -49c1.33301 124 2 199.667 2 227s3.16699 46.166 9.5 56.499
s16.5 15.5 30.5 15.5z" />
    <glyph glyph-name="e" unicode="e" horiz-adv-x="539" 
d="M317 450c-44 0 -80.834 -16.5 -110.501 -49.5s-49.167 -71.5 -58.5 -115.5c36 -10.667 76.5 -16 121.5 -16s81.167 7.66699 108.5 23s41 36.333 41 63s-9.16699 49.167 -27.5 67.5s-43.166 27.5 -74.499 27.5zM273.999 206c-34.667 0 -76.9971 5 -126.997 15
c4 -47.333 21.5 -87.666 52.5 -120.999s67.167 -50 108.5 -50s75.333 10.167 102 30.5s44.167 30.5 52.5 30.5s15 -2.5 20 -7.5s7.5 -11.167 7.5 -18.5c0 -18.667 -19.167 -40 -57.5 -64s-79.833 -36 -124.5 -36c-69.333 0 -124.5 24.5 -165.5 73.5
s-62.833 107.5 -65.5 175.5c-35.333 11.333 -53 28.666 -53 51.999c0 15.333 5.66699 25.333 17 30c4 1.33301 9.16699 2 15.5 2s15.166 -3 26.499 -9c15.333 60.667 43.166 110.167 83.499 148.5s87.666 57.5 141.999 57.5s98.166 -15 131.499 -45s50 -69.167 50 -117.5
s-20.667 -84.833 -62 -109.5s-92.666 -37 -153.999 -37z" />
    <glyph glyph-name="f" unicode="f" horiz-adv-x="327" 
d="M58 502l50 -2v85c0 58.667 11.5 102.5 34.5 131.5s50.833 43.5 83.5 43.5s59.834 -6 81.501 -18s32.5 -25.333 32.5 -40c0 -22 -9.33301 -33 -28 -33c-4.66699 0 -15.834 4 -33.501 12s-31.5 12 -41.5 12c-41.333 0 -62 -39 -62 -117v-76l97 2
c10.667 0 19.667 -2.83301 27 -8.5s11 -13.5 11 -23.5c0 -20 -12.667 -30 -38 -30l-97 2l3 -359c0 -66 -12.167 -116.833 -36.5 -152.5s-49.333 -53.5 -75 -53.5s-38.5 6.33301 -38.5 19c0 5.33301 2.5 10.5 7.5 15.5s11.833 11.5 20.5 19.5s16 16.333 22 25
c19.333 27.333 30 66.333 32 117s3 110 3 178s-1.33301 131.667 -4 191l-51 -2c-25.333 0 -38 10 -38 30c0 10 3.66699 17.833 11 23.5s16.333 8.5 27 8.5z" />
    <glyph glyph-name="g" unicode="g" horiz-adv-x="558" 
d="M408 234v153c-36.667 38.667 -77.167 58 -121.5 58s-83 -19.667 -116 -59s-49.5 -86.5 -49.5 -141.5s10.5 -100.333 31.5 -136s49.5 -53.5 85.5 -53.5s69.167 16.833 99.5 50.5s53.833 76.5 70.5 128.5zM406 463c1.33301 31.333 13.998 47 37.998 47
c30.667 0 46 -22.833 46 -68.5s-6.66699 -112.167 -20 -199.5c8 -81.333 12 -142 12 -182c0 -86.667 -20.667 -156.667 -62 -210s-98.666 -80 -171.999 -80c-40 0 -78.667 8.5 -116 25.5s-56 34 -56 51s7.66699 25.5 23 25.5c6 0 23 -6.16699 51 -18.5
s60.667 -18.5 98 -18.5c53.333 0 95.333 19.833 126 59.5s46 91.5 46 155.5c0 23.333 -1.66699 47.333 -5 72c-15.333 -36 -39.333 -67 -72 -93s-66.667 -39 -102 -39c-64 0 -113.667 27.667 -149 83c-30 50 -45 108.333 -45 175s22.333 127 67 181s100.334 81 167.001 81
c46 0 87.667 -15.667 125 -47z" />
    <glyph glyph-name="h" unicode="h" horiz-adv-x="577" 
d="M494 315l-5.00098 -157.001v-43c1.33301 -27.333 8 -43.666 20 -48.999c4.66699 -1.33301 10 -2.5 16 -3.5s10.167 -2.16699 12.5 -3.5s3.5 -4 3.5 -8c0 -17.333 -5.5 -31.833 -16.5 -43.5s-23.833 -17.5 -38.5 -17.5c-24.667 0 -42 9.66699 -52 29s-15 49 -15 89l4 184
c0 46 -9.83301 82.833 -29.5 110.5s-46.5 41.5 -80.5 41.5s-66.833 -18.833 -98.5 -56.5s-54.167 -80.834 -67.5 -129.501l3 -217c0 -34 -12.667 -51 -38 -51c-30.667 0 -46 22.833 -46 68.5s6.66699 112.167 20 199.5c0 45.333 -3 130.833 -9 256.5s-9 193.5 -9 203.5
s3.5 19.667 10.5 29s14.333 14 22 14s14.834 -1.66699 21.501 -5c16 -7.33301 24 -20.333 24 -39v-7v-327c48.667 84.667 108.667 127 180 127c54 0 95.5 -19.167 124.5 -57.5s43.5 -84.166 43.5 -137.499z" />
    <glyph glyph-name="i" unicode="i" 
d="M117 725c27.333 0 41 -16 41 -48c0 -14.667 -4.83301 -28.5 -14.5 -41.5s-21.167 -19.5 -34.5 -19.5c-28 0 -42 17 -42 51c0 16 4.83301 29.667 14.5 41s21.5 17 35.5 17zM150 460l-5 -210l5 -210c0 -33.333 -12.667 -50 -38 -50s-38 16.667 -38 50l5 210l-5 210
c0 33.333 12.667 50 38 50s38 -16.667 38 -50z" />
    <glyph glyph-name="j" unicode="j" horiz-adv-x="223" 
d="M117 725c27.333 0 41 -16 41 -48c0 -14.667 -4.83301 -28.5 -14.5 -41.5s-21.167 -19.5 -34.5 -19.5c-28 0 -42 17 -42 51c0 16 4.83301 29.667 14.5 41s21.5 17 35.5 17zM150 460l-5 -230l-1 -220c0 -57.333 -14.5 -104.833 -43.5 -142.5s-55.833 -56.5 -80.5 -56.5
c-18 0 -27 6.33301 -27 19c0 9.33301 14.333 28 43 56c12 11.333 22.333 29 31 53s13 51 13 81l-1 210l-5 230c0 33.333 12.667 50 38 50s38 -16.667 38 -50z" />
    <glyph glyph-name="k" unicode="k" horiz-adv-x="510" 
d="M147 258l2.99805 -217c0 -34 -12.667 -51 -38 -51c-30.667 0 -46 22.833 -46 68.5s6.66699 112.167 20 199.5c0 45.333 -3 130.833 -9 256.5s-9 193.5 -9 203.5s3.5 19.667 10.5 29s14.333 14 22 14s14.834 -1.66699 21.501 -5c16 -7.33301 24 -20.333 24 -39v-7v-327
c48.667 84.667 108.667 127 180 127c38 0 68.833 -11.167 92.5 -33.5s35.5 -50.166 35.5 -83.499c0 -54.667 -28.333 -101.334 -85 -140.001l-49 -32l74 -114c8.66699 -14 18.5 -24.667 29.5 -32s20.333 -11.5 28 -12.5s13.834 -2.16699 18.501 -3.5s6.66699 -4 6 -8
c0 -16 -5 -30.167 -15 -42.5s-22 -18.5 -36 -18.5h-16c-16.667 0 -37.334 20.333 -62.001 61c-0.666992 2 -1.5 3.66699 -2.5 5s-13.167 20.833 -36.5 58.5s-41.666 65.834 -54.999 84.501c-17.333 0 -31.666 4.66699 -42.999 14s-17 22.666 -17 39.999s9.66699 30 29 38
c5.33301 2 10.666 3 15.999 3c15.333 0 31.666 -8.33301 48.999 -25c25.333 11.333 47.833 28.666 67.5 51.999s29.5 44.333 29.5 63c0 40 -20.667 60 -62 60c-37.333 0 -72.666 -18.667 -105.999 -56s-56.333 -80.666 -69 -129.999z" />
    <glyph glyph-name="l" unicode="l" 
d="M150 710l-5 -335l5 -335c0 -33.333 -12.667 -50 -38 -50s-38 16.667 -38 50l5 335l-5 335c0 33.333 12.667 50 38 50s38 -16.667 38 -50z" />
    <glyph glyph-name="m" unicode="m" horiz-adv-x="877" 
d="M794 315l-5.00098 -157.003v-43c1.33301 -27.333 8 -43.666 20 -48.999c4.66699 -1.33301 10 -2.5 16 -3.5s10.167 -2.16699 12.5 -3.5s3.5 -4 3.5 -8c0 -17.333 -5.5 -31.833 -16.5 -43.5s-23.833 -17.5 -38.5 -17.5c-24.667 0 -42 9.66699 -52 29s-15 49 -15 89l4 184
c0 46 -9 82.833 -27 110.5s-42.667 41.5 -74 41.5s-62 -19 -92 -57s-51 -81 -63 -129l3 -217c0 -34 -12.667 -51 -38 -51c-30.667 0 -46 22.833 -46 68.5s6.66699 112.167 20 199.5c0 124 -34 186 -102 186c-31.333 0 -62 -19 -92 -57s-51 -81 -63 -129l3 -217
c0 -34 -12.667 -51 -38 -51c-30.667 0 -46 22.833 -46 68.5s6.66699 112.167 20 199.5c0 28 -2.83301 67.333 -8.5 118s-8.5 81.334 -8.5 92.001s3.66699 20.334 11 29.001s16.666 13 27.999 13s20.666 -4.33301 27.999 -13s11 -18 11 -28s-0.166992 -25 -0.5 -45
s-0.5 -33.667 -0.5 -41c44.667 84.667 101.334 127 170.001 127c38.667 0 70.5 -11.333 95.5 -34s42.5 -53.667 52.5 -93c44.667 84.667 101.334 127 170.001 127c50.667 0 89.334 -19 116.001 -57c28 -38 42 -84 42 -138z" />
    <glyph glyph-name="n" unicode="n" horiz-adv-x="579" 
d="M496 315l-4.99707 -157.003v-43c1.33301 -27.333 8 -43.666 20 -48.999c4.66699 -1.33301 10 -2.5 16 -3.5s10.167 -2.16699 12.5 -3.5s3.5 -4 3.5 -8c0 -17.333 -5.5 -31.833 -16.5 -43.5s-23.833 -17.5 -38.5 -17.5c-24.667 0 -42 9.66699 -52 29s-15 49 -15 89l4 184
c0 46 -9.83301 82.833 -29.5 110.5s-46.5 41.5 -80.5 41.5s-66.833 -18.833 -98.5 -56.5s-54.167 -80.834 -67.5 -129.501l3 -217c0 -34 -12.667 -51 -38 -51c-30.667 0 -46 22.833 -46 68.5s6.66699 112.167 20 199.5c0 28 -2.83301 67.333 -8.5 118
s-8.5 81.334 -8.5 92.001s3.66699 20.334 11 29.001s16.666 13 27.999 13s20.666 -4.33301 27.999 -13s11 -18 11 -28s-0.166992 -25 -0.5 -45s-0.5 -33.667 -0.5 -41c48.667 84.667 108.667 127 180 127c53.333 0 94.666 -19.167 123.999 -57.5s44 -84.166 44 -137.499z
" />
    <glyph glyph-name="o" unicode="o" horiz-adv-x="562" 
d="M163 108c30.667 -38.667 69.168 -58.001 115.501 -58.001s85.666 19.5 117.999 58.5s48.5 86.167 48.5 141.5s-15.5 102.5 -46.5 141.5s-69.333 58.5 -115 58.5s-85.167 -19.667 -118.5 -59c-32 -39.333 -48 -86.666 -48 -141.999s15.333 -102.333 46 -141z
M46.001 248.999c0 74 22.333 136.832 67 188.499s101 77.5 169 77.5s124 -25.5 168 -76.5s66 -113.667 66 -188s-22.5 -137.166 -67.5 -188.499s-101.333 -77 -169 -77s-123.5 25.5 -167.5 76.5s-66 113.5 -66 187.5z" />
    <glyph glyph-name="p" unicode="p" horiz-adv-x="570" 
d="M319 445c-70 0 -127.666 -57.667 -172.999 -173v-159c39.333 -38.667 86.666 -58 141.999 -58c42.667 0 80.167 19.5 112.5 58.5s48.5 85.167 48.5 138.5s-11.5 98.833 -34.5 136.5s-54.833 56.5 -95.5 56.5zM146.001 39c-1.33301 -50.667 -2 -92.833 -2 -126.5
s-0.333008 -58.5 -1 -74.5c-1.33301 -27.333 -4.33301 -44.666 -9 -51.999c-6 -10.667 -16.167 -16 -30.5 -16s-25.833 5.66699 -34.5 17s-13 30 -13 56s1 50.667 3 74l12 119l13 135v19l1 38v16c0 28 -3 69 -9 123s-9 87 -9 99s3.66699 22.333 11 31s16.666 13 27.999 13
s20.666 -4.33301 27.999 -13s11 -18 11 -28s-0.166992 -25.333 -0.5 -46s-0.5 -34.667 -0.5 -42c23.333 43.333 48.833 75.666 76.5 96.999s62.834 32 105.501 32s79.334 -14 110.001 -42c58 -51.333 87 -120.333 87 -207c0 -72.667 -22 -136 -66 -190
s-100.333 -81 -169 -81c-50 0 -97.333 16.333 -142 49z" />
    <glyph glyph-name="q" unicode="q" horiz-adv-x="553" 
d="M48 239c0 72.667 21.001 136 63.001 190s96 81 162 81c50 0 93.333 -17 130 -51c0 34 12.667 51 38 51c30.667 0 46 -22.833 46 -68.5s-6.66699 -112.167 -20 -199.5c0 -42.667 3 -122.5 9 -239.5s9 -180.333 9 -190s-3.66699 -19.334 -11 -29.001
s-14.833 -14.5 -22.5 -14.5s-14.834 1.66699 -21.501 5c-16 7.33301 -24 20 -24 38c0 2.66699 0.333008 5.33398 1 8.00098v286c-18 -34.667 -42.333 -62.667 -73 -84s-65.5 -32 -104.5 -32s-72.833 13.333 -101.5 40c-53.333 49.333 -80 119 -80 209zM409.001 233
l-5.00098 154c-39.333 38.667 -81 58 -125 58s-81.667 -19.667 -113 -59s-47 -86.833 -47 -142.5s10.333 -101 31 -136s49.334 -52.5 86.001 -52.5s70.5 16.333 101.5 49s54.833 75.667 71.5 129z" />
    <glyph glyph-name="r" unicode="r" horiz-adv-x="408" 
d="M149 229l3.00195 -187.999c0 -34 -12.667 -51 -38 -51c-30.667 0 -46 22.833 -46 68.5s6.66699 112.167 20 199.5c0 28 -2.83301 67.167 -8.5 117.5s-8.5 80.833 -8.5 91.5s3.66699 20.5 11 29.5s16.666 13.5 27.999 13.5s20.666 -4.5 27.999 -13.5s11 -18.167 11 -27.5
s-0.166992 -24.333 -0.5 -45s-0.5 -35 -0.5 -43c12.667 33.333 33.334 63.333 62.001 90c29.333 26 58.5 39 87.5 39s52 -5.83301 69 -17.5s25.5 -24.834 25.5 -39.501s-3.66699 -26 -11 -34s-16.833 -12 -28.5 -12s-24.5 6 -38.5 18c-12.667 12.667 -23.334 19 -32.001 19
c-22 0 -47.667 -23.833 -77 -71.5s-48 -95.5 -56 -143.5z" />
    <glyph glyph-name="s" unicode="s" horiz-adv-x="455" 
d="M416 144c0 -44.667 -18.498 -81.4971 -55.498 -110.497s-81.167 -43.5 -132.5 -43.5s-96.333 11.667 -135 35c-38 24 -57 47.667 -57 71c0 15.333 6.33301 25.666 19 30.999s22.334 4.66602 29.001 -2.00098c1.33301 -0.666992 14.666 -13.667 39.999 -39
c7.33301 -6.66699 21 -13.5 41 -20.5s37.667 -10.5 53 -10.5c37.333 0 67.666 7.66699 90.999 23s35 37 35 65c0 35.333 -33.333 64.333 -100 87c-74 25.333 -121.333 47 -142 65c-10 8.66699 -19.167 20.167 -27.5 34.5s-12.5 29.5 -12.5 45.5c0 36 16.5 67.5 49.5 94.5
s72.5 40.5 118.5 40.5s83.333 -7.83301 112 -23.5s43 -33.167 43 -52.5c0 -22 -11.667 -33 -35 -33c-9.33301 0 -19.333 3.66699 -30 11c-32 22 -62.833 33 -92.5 33s-52.167 -6.66699 -67.5 -20c-18 -12.667 -27 -27.5 -27 -44.5s8.66699 -30.833 26 -41.5
s45.666 -23.834 84.999 -39.501s63.333 -25.5 72 -29.5c29.333 -12.667 53.333 -30 72 -52s28 -46.667 28 -74z" />
    <glyph glyph-name="t" unicode="t" horiz-adv-x="337" 
d="M266 437l-83.001 1.99902l-2 -237c0 -61.333 2.33301 -101.166 7 -119.499s18 -27.5 40 -27.5c10.667 0 23.334 3.5 38.001 10.5s23.667 10.5 27 10.5c14 0 21 -7 21 -21s-12.333 -28.333 -37 -43s-49 -22 -73 -22c-58 0 -87 42.667 -87 128l-1 321
c-22 -2 -37.333 -3 -46 -3c-33.333 0 -50 11 -50 33s16.667 33 50 33l44 -2l-2 112c0 33.333 12.667 50 38 50s38 -16.667 38 -50l-3 -113l81 4c33.333 0 50 -11.333 50 -34c0 -21.333 -16.667 -32 -50 -32z" />
    <glyph glyph-name="u" unicode="u" horiz-adv-x="584" 
d="M151 428l-8 -220.001c0 -46 9.83301 -83 29.5 -111s46.5 -42 80.5 -42s67 19 99 57c31.333 38.667 53.666 82 66.999 130l-3 217c0 34 12.667 51 38 51c30.667 0 46 -22.833 46 -68.5s-6.66699 -112.167 -20 -199.5c0 -48.667 3.5 -89.167 10.5 -121.5
s15.833 -50.5 26.5 -54.5c4 -2 8.83301 -3.33301 14.5 -4s9.66699 -1.66699 12 -3s3.5 -4 3.5 -8c0 -18 -5.5 -32.667 -16.5 -44s-24.833 -17 -41.5 -17c-42 0 -63 42.667 -63 128c-49.333 -85.333 -111.333 -128 -186 -128c-53.333 0 -94.666 19.667 -123.999 59
c-29.333 40.667 -44 89.334 -44 146.001l6 151c0 20.667 -2.66699 45.5 -8 74.5s-8 47.167 -8 54.5s4.16699 15 12.5 23s18.5 12 30.5 12c30.667 0 46 -27.333 46 -82z" />
    <glyph glyph-name="v" unicode="v" horiz-adv-x="485" 
d="M267 124l51.999 143.002c8 21.333 20 57.333 36 108s27 83.667 33 99c9.33301 24 22.333 36 39 36c10 0 18.5 -3.16699 25.5 -9.5s10.5 -14 10.5 -23s-1.83301 -18.5 -5.5 -28.5s-7 -18.5 -10 -25.5s-6.83301 -16.667 -11.5 -29l-17 -43.5
c-6.66699 -16.667 -25.167 -67.334 -55.5 -152.001s-52.5 -140.667 -66.5 -168s-32.5 -41 -55.5 -41s-40.5 12 -52.5 36c-4 7.33301 -21.333 51.333 -52 132l-60 157c-24 61.333 -39 100.5 -45 117.5s-9 31 -9 42s3.33301 19.667 10 26s15 9.5 25 9.5
c18 0 31.667 -11.667 41 -35c6 -15.333 15.667 -44.666 29 -87.999l59 -168c20.667 -58.667 34.334 -96.334 41.001 -113.001s11.334 -25.334 14.001 -26.001c5.33301 0 13.666 14.667 24.999 44z" />
    <glyph glyph-name="w" unicode="w" horiz-adv-x="786" 
d="M229 80c6.66699 0 28.332 62.834 64.999 188.501s57.334 194.167 62.001 205.5c9.33301 24 24.166 36 44.499 36s34.5 -11.667 42.5 -35l58 -207c37.333 -125.333 58.666 -188 63.999 -188c7.33301 0 29.333 62.333 66 187c8.66699 28.667 19.667 67.667 33 117l24 87
c8 26 20.333 39 37 39c10 0 18.5 -3 25.5 -9s10.5 -14 10.5 -24s-6 -33.667 -18 -71s-20.5 -63 -25.5 -77s-20.333 -61 -46 -141s-43.667 -133 -54 -159s-28.833 -39 -55.5 -39s-46 17.333 -58 52c-24 69.333 -47 142.5 -69 219.5s-35.5 115.5 -40.5 115.5
s-11.5 -13.333 -19.5 -40l-26 -92c-34.667 -122 -58.667 -195.333 -72 -220c-11.333 -23.333 -29.666 -35 -54.999 -35s-44.333 18.333 -57 55c-1.33301 4 -3.33301 9.66699 -6 17s-6.16699 17.666 -10.5 30.999l-13 40l-34.5 104l-27 79l-20 58
c-19.333 52.667 -29 85.167 -29 97.5s3.5 21.833 10.5 28.5s15.5 10 25.5 10c19.333 0 32.666 -11.667 39.999 -35c0.666992 -0.666992 9.33398 -30 26.001 -88l32 -106c2.66699 -7.33301 6.33398 -18 11.001 -32c16 -52.667 29 -94 39 -124s16.667 -45 20 -45z" />
    <glyph glyph-name="x" unicode="x" horiz-adv-x="492" 
d="M283 262l102 -152.998c26 -35.333 55 -55 87 -59c2.66699 -0.666992 3.66699 -2 3 -4c0 -16 -4.83301 -30.167 -14.5 -42.5s-21.5 -18.5 -35.5 -18.5s-27.333 6.33301 -40 19s-25 27.667 -37 45l-31 44l-75 113l-98.5 -145c-21.667 -32.667 -35.667 -52.834 -42 -60.501
s-13.5 -11.5 -21.5 -11.5s-15.667 3.5 -23 10.5s-11 14.167 -11 21.5s1 13.833 3 19.5s16 26.167 42 61.5c28 36 66 89 114 159l-86 128c-28 36 -50.167 54.5 -66.5 55.5s-24.5 4.83301 -24.5 11.5c0 26 10.333 44.333 31 55c6 3.33301 12.333 5 19 5
c14.667 0 29.667 -8.33301 45 -25s35.333 -44.334 60 -83.001l63 -95l115 173c12.667 16 24.667 24 36 24c3.33301 0 6.33301 -0.666992 9 -2c14 -6 21 -15 21 -27s-3.16699 -23.167 -9.5 -33.5s-25.833 -37.833 -58.5 -82.5z" />
    <glyph glyph-name="y" unicode="y" horiz-adv-x="568" 
d="M419 242l-3 216.998c0 34 12.667 51 38 51c30.667 0 46 -25 46 -75c0 -39.333 -7 -103.666 -21 -192.999c8 -81.333 12 -142 12 -182c0 -87.333 -21.5 -157.5 -64.5 -210.5s-102.833 -79.5 -179.5 -79.5c-40 0 -78.667 8.5 -116 25.5s-56 34 -56 51s7.66699 25.5 23 25.5
c6.66699 0 25 -6.16699 55 -18.5s61.333 -18.5 94 -18.5c55.333 0 99.5 19.833 132.5 59.5s49.5 91.5 49.5 155.5c0 23.333 -1 46 -3 68c-49.333 -85.333 -111.333 -128 -186 -128c-53.333 0 -94.666 19.667 -123.999 59c-29.333 40.667 -44 89.334 -44 146.001l6 151
c0 20.667 -2.66699 45.5 -8 74.5s-8 47.167 -8 54.5s4.16699 15 12.5 23s18.5 12 30.5 12c30.667 0 46 -27.333 46 -82l-8 -220c0 -46 9.83301 -83 29.5 -111s46.5 -42 80.5 -42s67 19 99 57c31.333 38.667 53.666 82 66.999 130z" />
    <glyph glyph-name="z" unicode="z" horiz-adv-x="478" 
d="M245 60l150.001 5.00098c33.333 0 50 -11.667 50 -35s-16.667 -35 -50 -35l-150 5c-36 -1.33301 -90 -3 -162 -5c-32 0 -48 11.667 -48 35c0 16.667 11.667 38.667 35 66c35.333 40 71 84.667 107 134l107 143c22 31.333 36 52.666 42 63.999c-50 2 -78.333 3 -85 3
l-146 -5c-33.333 0 -50 11.667 -50 35s16.667 35 50 35l146 -5l142 5c32 0 48 -11.667 48 -35c0 -18 -17 -46.833 -51 -86.5s-76.167 -93.5 -126.5 -161.5s-88.5 -121.333 -114.5 -160c53.333 -1.33301 88.666 -2 105.999 -2z" />
    <glyph glyph-name="braceleft" unicode="{" horiz-adv-x="307" 
d="M228 -230c-30 0 -55.501 9.66699 -76.501 29s-31.5 45.666 -31.5 78.999c0 20 2.5 52.167 7.5 96.5s7.5 80.166 7.5 107.499s-2.66699 55.166 -8 83.499s-13 44.833 -23 49.5c-11.333 -6 -22 -9 -32 -9c-38.667 0 -58 16.667 -58 50c-1.33301 16.667 4 30.334 16 41.001
s25 16 39 16s25.667 -2 35 -6c7.33301 9.33301 14.5 28.333 21.5 57s10.5 56.334 10.5 83.001s-2.5 62.167 -7.5 106.5s-7.5 76.5 -7.5 96.5c0 33.333 10.5 60 31.5 80s46.5 30 76.5 30c16 0 27 -6 33 -18c2.66699 -5.33301 4 -11.166 4 -17.499s-2 -12.5 -6 -18.5
c-6 -12.667 -16.333 -19 -31 -19c-25.333 0 -38 -15.667 -38 -47c0 -12.667 2.5 -40 7.5 -82s7.5 -78.667 7.5 -110c0 -76.667 -16.333 -136.334 -49 -179.001c13.333 -18.667 22 -31.667 26 -39s8.66699 -24.666 14 -51.999s8 -58.333 8 -93s-2.5 -73 -7.5 -115
s-7.5 -69.333 -7.5 -82c0 -30 12.667 -45 38 -45c14.667 0 25.334 -6.33301 32.001 -19c2.66699 -6 4 -12 4 -18s-1.33301 -12 -4 -18c-6 -12 -16.667 -18 -32 -18z" />
    <glyph glyph-name="bar" unicode="|" horiz-adv-x="220" 
d="M144 750l-4 -495.001c0 -182.667 0.666992 -299.667 2 -351c2 -77.333 3 -118.666 3 -123.999c0 -33.333 -11.667 -50 -35 -50s-35 16.667 -35 50c0 24 0.833008 67 2.5 129s2.5 177.333 2.5 346l-4 495c0 33.333 11.333 50 34 50s34 -16.667 34 -50z" />
    <glyph glyph-name="braceright" unicode="}" horiz-adv-x="307" 
d="M203 215c-10.667 -4.66699 -18.498 -20.3301 -23.498 -46.9971s-7.5 -55.834 -7.5 -87.501s2.5 -69.834 7.5 -114.501s7.5 -74 7.5 -88c0 -33.333 -10.5 -59.666 -31.5 -78.999s-46.5 -29 -76.5 -29c-15.333 0 -26 6 -32 18c-2.66699 6 -4 12 -4 18s1.66699 12 5 18
c6 12.667 16.333 19 31 19c25.333 0 38 15 38 45c0 7.33301 -2.5 32 -7.5 74s-7.5 82.667 -7.5 122c0 71.333 7.66699 120.666 23 147.999c3.33301 6 11.666 18.333 24.999 37c-32.667 42.667 -49 102.334 -49 179.001c0 36.667 2.5 76 7.5 118s7.5 66.667 7.5 74
c0 31.333 -12.667 47 -38 47c-14.667 0 -25.334 6.33301 -32.001 19c-3.33301 6 -5 12.167 -5 18.5s1.66699 12.166 5 17.499c5.33301 12 16 18 32 18c30 0 55.5 -10 76.5 -30s31.5 -46.667 31.5 -80c0 -14 -2.5 -43.333 -7.5 -88s-7.5 -81.667 -7.5 -111
s3.5 -58.333 10.5 -87s14.167 -47.667 21.5 -57c8 4 19.667 6 35 6s28.333 -5.33301 39 -16s16 -24.334 16 -41.001c0 -24 -10.333 -39.333 -31 -46c-8 -2.66699 -17 -4 -27 -4s-20.667 3 -32 9z" />
    <glyph glyph-name="asciitilde" unicode="~" horiz-adv-x="552" 
d="M59 238c0 22 14.3379 42.332 43.0049 60.999c29.333 20 60.333 30 93 30s67.667 -9.83301 105 -29.5s63.666 -29.5 78.999 -29.5s27.166 3 35.499 9s16.166 12.333 23.499 19c16 14.667 27 22 33 22c15.333 0 23 -8.66699 23 -26s-12 -36 -36 -56s-48.833 -30 -74.5 -30
s-56.334 9.66699 -92.001 29s-63.334 29 -83.001 29s-39.167 -9.66699 -58.5 -29c-22 -21.333 -40 -32 -54 -32s-23.667 3.33301 -29 10s-8 14.334 -8 23.001z" />
    <glyph glyph-name="nbspace" unicode="&#xa0;" horiz-adv-x="238" 
 />
    <glyph glyph-name="exclamdown" unicode="&#xa1;" horiz-adv-x="220" 
d="M113 545c13.333 0 23.832 -5.16699 31.499 -15.5s11.5 -23.333 11.5 -39s-5 -29.667 -15 -42s-21.667 -18.5 -35 -18.5s-23.666 4.83301 -30.999 14.5s-11 22.5 -11 38.5s4.83301 30.333 14.5 43s21.167 19 34.5 19zM145.999 274l-3 -212.001
c0 -38.667 1.16699 -86 3.5 -142s3.5 -89.333 3.5 -100c0 -33.333 -13.333 -50 -40 -50s-40 16.667 -40 50c0 4.66699 1.16699 34.834 3.5 90.501s3.5 106.167 3.5 151.5l-3 212c0 33.333 12 50 36 50s36 -16.667 36 -50z" />
    <glyph glyph-name="cent" unicode="&#xa2;" horiz-adv-x="534" 
d="M326 594l-2.00098 -80.0029c40.667 -2 75.334 -12.333 104.001 -31c30 -18 45 -36.333 45 -55c0 -10 -3.33301 -18.667 -10 -26s-14.167 -11 -22.5 -11s-24.166 8.66699 -47.499 26c-22.667 18.667 -46 29.334 -70 32.001c-0.666992 -23.333 -1 -70.666 -1 -141.999
s0.666992 -157 2 -257c29.333 2 57.333 11.333 84 28s43 25 49 25c16.667 0 25 -8.33301 25 -25s-16.333 -35.334 -49 -56.001c-32.667 -20 -68.667 -32 -108 -36l2 -70c0 -34 -11.667 -51 -35 -51s-35 16.667 -35 50s0.333008 58 1 74
c-60.667 11.333 -109.334 41.333 -146.001 90s-55 105.334 -55 170.001s18 121.334 54 170.001c36.667 48.667 86 79 148 91c-0.666992 18.667 -1 48 -1 88c0 31.333 11.333 47 34 47s34 -17 34 -51zM259.999 57.9971c1.33301 97.333 1.99902 164.832 1.99902 202.499
s-0.333008 70.167 -1 97.5v85c-35.333 -10.667 -65.666 -33.667 -90.999 -69s-38 -75.666 -38 -120.999s11.667 -86.333 35 -123c24 -34.667 55 -58.667 93 -72z" />
    <glyph glyph-name="sterling" unicode="&#xa3;" horiz-adv-x="536" 
d="M365 321l-150 3.00195c0.666992 -14.667 1 -35.334 1 -62.001c0 -44.667 -10.667 -90.334 -32 -137.001c-8.66699 -18.667 -19 -38.667 -31 -60c14.667 -0.666992 44.167 -1 88.5 -1s88.833 1.33301 133.5 4l67 3c10.667 0 20.334 -3.5 29.001 -10.5s13 -16.167 13 -27.5
c0 -25.333 -16.667 -38 -50 -38l-151 5l-162 -5c-24.667 0 -40.334 9 -47.001 27c-2.66699 5.33301 -4 13.5 -4 24.5s7.33301 28.333 22 52s27.5 47.667 38.5 72s17.167 46.166 18.5 65.499s2 35.333 2 48s-1 25.334 -3 38.001l-47 -1c-18 0 -30.667 7 -38 21
c-2.66699 4.66699 -4 10.167 -4 16.5s3.5 12.333 10.5 18s13.833 9.16699 20.5 10.5s16 1.5 28 0.5s18.667 -1.5 20 -1.5l-12 54c-11.333 50.667 -17 87 -17 109c0 46.667 16.667 86 50 118c34 32 81.333 48 142 48c36.667 0 71.667 -9.33301 105 -28s50.333 -38 51 -58
c-2 -8 -3.83301 -13.667 -5.5 -17s-5.5 -7.33301 -11.5 -12c-10.667 -8.66699 -31 -2.66699 -61 18s-60.333 31 -91 31s-56.167 -8.5 -76.5 -25.5s-30.5 -40.833 -30.5 -71.5s8.33301 -86.667 25 -168l159 3h5c14 0 23.5 -4 28.5 -12s7.5 -15 7.5 -21s-2.5 -13 -7.5 -21
s-14.5 -12 -28.5 -12h-5z" />
    <glyph glyph-name="currency" unicode="&#xa4;" horiz-adv-x="641" 
d="M498 413c20.667 -36 31 -76.167 31 -120.5s-10.333 -84.5 -31 -120.5l60 -57c14.667 -12.667 22 -24 22 -34s-4 -19 -12 -27s-16.667 -12 -26 -12s-19 4.33301 -29 13s-30 29 -60 61c-36.667 -32 -80.834 -48 -132.501 -48s-95.834 16.333 -132.501 49l-53 -55
c-14.667 -12.667 -27 -19 -37 -19s-18.667 3.33301 -26 10c-7.33301 8.66699 -11 18 -11 28s7 21.333 21 34l61 59c-19.333 34.667 -29 73.667 -29 117s10 83 30 119c-40 38.667 -60.667 59 -62 61c-13.333 14 -20 26 -20 36s4 19 12 27s17 12 27 12s21.333 -7.33301 34 -22
l55 -57c36.667 32 79.834 48 129.501 48s93.834 -15.667 132.501 -47l53 56c14.667 12.667 27 19 37 19s18.333 -3.66699 25 -11c8 -5.33301 12 -13.833 12 -25.5s-7 -23.5 -21 -35.5c-26 -26 -46 -45.333 -60 -58zM320 134c38.667 0 71.833 15.665 99.5 46.998
s41.5 69 41.5 113s-13.333 80.667 -40 110c-26 30.667 -58.333 46 -97 46s-71.834 -15.667 -99.501 -47s-41.5 -68.666 -41.5 -111.999s13 -80.666 39 -111.999c26.667 -30 59.334 -45 98.001 -45z" />
    <glyph glyph-name="yen" unicode="&#xa5;" horiz-adv-x="585" 
d="M131 301c-36 0 -54.002 9.66504 -54.002 28.998c0 4.66699 1.33301 10 4 16c6.66699 12.667 15.667 19 27 19h23c13.333 0 45 -1 95 -3l-82 145l-58 98c-11.333 22.667 -18.666 35.667 -21.999 39c-7.33301 14.667 -11 27 -11 37s4.16699 18.5 12.5 25.5
s16.833 10.5 25.5 10.5s16.667 -5 24 -15c13.333 -13.333 26 -33.333 38 -60l68 -138c28.667 -57.333 52.667 -101 72 -131c18 27.333 49.167 85.833 93.5 175.5s70 139.834 77 150.501s16.167 16 27.5 16s20.5 -3.16699 27.5 -9.5s10.5 -12.333 10.5 -18
s-0.166992 -10 -0.5 -13s-1.16602 -6.33301 -2.49902 -10s-4.16602 -9.5 -8.49902 -17.5s-9.16602 -16.333 -14.499 -25l-60 -103l-89 -157c54 2 90 3 108 3c34 0 51 -10.667 51 -32c0 -10 -3.83301 -17.833 -11.5 -23.5s-22.834 -8.5 -45.501 -8.5s-66 1 -130 3v-79l146 3
c12 0 21.833 -2.83301 29.5 -8.5s11.5 -13.5 11.5 -23.5s-3.83301 -17.833 -11.5 -23.5s-22.334 -8.5 -44.001 -8.5s-65.5 1 -131.5 3l3 -127c0 -33.333 -13 -50 -39 -50s-39 16.667 -39 50l4 127c-62 -2 -103.333 -3 -124 -3c-36.667 0 -55 10 -55 30
c0 4.66699 1.33301 9.33398 4 14.001c7.33301 13.333 20 20 38 20l137 -3v79c-62 -2 -103.333 -3 -124 -3z" />
    <glyph glyph-name="brokenbar" unicode="&#xa6;" horiz-adv-x="232" 
d="M150 684l-4 -150.999l5 -148c0 -30.667 -12 -46 -36 -46c-22.667 0 -34 15.333 -34 46l5 148c-0.666992 33.333 -2 83.666 -4 150.999c0 28.667 11 43 33 43c23.333 0 35 -14.333 35 -43zM150 115.001l-4 -151l5 -148c0 -30.667 -12 -46 -36 -46
c-22.667 0 -34 15.333 -34 46l5 148l-4 151c0 28.667 11 43 33 43c23.333 0 35 -14.333 35 -43z" />
    <glyph glyph-name="section" unicode="&#xa7;" horiz-adv-x="536" 
d="M383 88c44 -41.333 66.001 -87.001 66.001 -137.001s-20.333 -93.5 -61 -130.5s-91.334 -55.5 -152.001 -55.5c-44 0 -85.333 11 -124 33s-58 44 -58 66c0 14 6 23.333 18 28c4 1.33301 9.16699 2 15.5 2s14.166 -3.33301 23.499 -10l26 -21
c22.667 -21.333 54.334 -32 95.001 -32s73.667 11.5 99 34.5s38 52.167 38 87.5c0 22.667 -6.5 41.5 -19.5 56.5l-29.5 33.5c-6.66699 7.33301 -18.334 17 -35.001 29l-35 24c-28 20 -54 36.667 -78 50c-71.333 48.667 -107 101.334 -107 158.001c0 34 12.333 64.667 37 92
s57.667 45.666 99 54.999c-66.667 52.667 -100 102.667 -100 150s17.5 86.5 52.5 117.5s76 46.5 123 46.5s86.667 -7.5 119 -22.5s48.5 -33.167 48.5 -54.5c0 -13.333 -5.33301 -22 -16 -26c-3.33301 -1.33301 -8.16602 -2 -14.499 -2s-14.833 3.33301 -25.5 10
c-32 20 -64.5 30 -97.5 30s-59.167 -9 -78.5 -27c-20.667 -16.667 -31 -38 -31 -64c0 -43.333 35.667 -88.666 107 -135.999c64.667 -40 106 -68.333 124 -85s31.667 -31.667 41 -45c21.333 -28 32 -58.333 32 -91c0 -16 -2.33301 -32.667 -7 -50
c-16 -52 -47.667 -90 -95 -114zM168.501 365.499c-19.667 -17 -29.498 -37.835 -29.498 -62.502s13.667 -48.667 41 -72c19.333 -16.667 43.166 -34.167 71.499 -52.5l73.5 -48.5c26 9.33301 46.833 25.333 62.5 48s23.5 48.834 23.5 78.501s-17.667 58.834 -53 87.501
c-37.333 31.333 -73.333 47 -108 47s-61.834 -8.5 -81.501 -25.5z" />
    <glyph glyph-name="dieresis" unicode="&#xa8;" horiz-adv-x="391" 
d="M120 725c27.333 0 41 -16 41 -48c0 -14.667 -4.83301 -28.5 -14.5 -41.5s-21.167 -19.5 -34.5 -19.5c-28 0 -42 17 -42 51c0 16 4.83301 29.667 14.5 41s21.5 17 35.5 17zM280 725c27.333 0 41 -16 41 -48c0 -14.667 -4.83301 -28.5 -14.5 -41.5
s-21.167 -19.5 -34.5 -19.5c-28 0 -42 17 -42 51c0 16 4.83301 29.667 14.5 41s21.5 17 35.5 17z" />
    <glyph glyph-name="copyright" unicode="&#xa9;" horiz-adv-x="756" 
d="M383 635c27.333 0 52.8301 -5.66699 76.4971 -17s35.5 -24 35.5 -38c0 -18.667 -9 -28 -27 -28c-4.66699 0 -15.5 4.66699 -32.5 14s-32.833 14 -47.5 14c-37.333 0 -67.166 -13.5 -89.499 -40.5s-33.5 -59.667 -33.5 -98s11.667 -71.166 35 -98.499
c24 -26.667 53.333 -40 88 -40c18.667 0 37.834 4.16699 57.501 12.5s31.834 12.5 36.501 12.5c14.667 0 22 -7.66699 22 -23c0 -10.667 -11.667 -22.834 -35 -36.501s-52 -20.5 -86 -20.5c-50 0 -92.667 19 -128 57c-34 38 -51 83.667 -51 137s16.667 98.833 50 136.5
s76.333 56.5 129 56.5zM377.997 760c86.667 0 160.667 -31.167 222 -93.5s92 -137.166 92 -224.499s-30.667 -162.166 -92 -224.499s-135.333 -93.5 -222 -93.5s-160.667 31.167 -222 93.5s-92 137.166 -92 224.499s30.667 162.166 92 224.499s135.333 93.5 222 93.5z
M376.997 177c70 0 129.833 25.833 179.5 77.5s74.5 114.167 74.5 187.5s-24.833 135.833 -74.5 187.5s-109.667 77.5 -180 77.5s-130 -25.833 -179 -77.5s-73.5 -114 -73.5 -187s24.667 -135.833 74 -188.5c49.333 -51.333 109 -77 179 -77z" />
    <glyph glyph-name="ordfeminine" unicode="&#xaa;" horiz-adv-x="410" 
d="M318 546c0 -14.667 2.00098 -34.167 6.00098 -58.5s12 -38.166 24 -41.499l7 -2c4.66699 -0.666992 7 -2.33398 7 -5.00098c0 -14 -4.16699 -25.333 -12.5 -34s-19.5 -13 -33.5 -13c-26 0 -41.667 26.667 -47 80c-8.66699 -22.667 -23 -41.667 -43 -57
s-41.333 -23 -64 -23c-35.333 0 -63.333 15.5 -84 46.5s-31 67.5 -31 109.5s13.5 79.5 40.5 112.5s60.5 49.5 100.5 49.5c29.333 0 54.666 -10.667 75.999 -32c3.33301 21.333 14.333 32 33 32c22 0 33 -19 33 -57c0 -6 -4 -41.667 -12 -107zM266.001 550l-2.99805 72.999
c-20 21.333 -43 32 -69 32c-31.333 0 -56 -15.667 -74 -47c-10.667 -18 -15.834 -40.167 -15.501 -66.5s6.16602 -49 17.499 -68s26.5 -28.5 45.5 -28.5s37.833 10.333 56.5 31s32.667 45.334 42 74.001z" />
    <glyph glyph-name="guillemotleft" unicode="&#xab;" horiz-adv-x="507" 
d="M200 511c7.33301 0 12.667 -0.999023 16 -2.99902c13.333 -5.33301 20 -14 20 -26s-2.83301 -20.833 -8.5 -26.5s-16.5 -14.5 -32.5 -26.5s-25.667 -19.667 -29 -23c-32 -29.333 -48 -48.333 -48 -57s16 -27.667 48 -57c3.33301 -3.33301 13 -11 29 -23
s26.833 -20.833 32.5 -26.5s8.5 -13 8.5 -22s-3 -16.833 -9 -23.5c-6.66699 -6.66699 -13.5 -10 -20.5 -10s-14.167 2 -21.5 6l-16 12c-21.333 24 -36.333 40.333 -45 49s-28 26.667 -58 54c-14.667 14.667 -22 27.5 -22 38.5s2.66699 20.167 8 27.5
s16.666 18.666 33.999 33.999l37 35c4.66699 4 12.834 12.5 24.501 25.5s21.5 23.333 29.5 31s15.667 11.5 23 11.5zM409.001 510.001c24 0 36 -10.998 36 -32.998c0 -8.66699 -2.83301 -15.834 -8.5 -21.501s-16.5 -14.5 -32.5 -26.5s-25.667 -19.667 -29 -23
c-32 -29.333 -48 -48.333 -48 -57s16 -27.667 48 -57c3.33301 -3.33301 13 -11 29 -23s26.833 -20.833 32.5 -26.5s8.5 -13 8.5 -22s-3 -16.833 -9 -23.5c-6.66699 -6.66699 -13.5 -10 -20.5 -10s-14.167 2 -21.5 6l-16 12c-21.333 24 -36.333 40.333 -45 49
s-28 26.667 -58 54c-14.667 14.667 -22 27.5 -22 38.5s2.66699 20.167 8 27.5s16.666 18.666 33.999 33.999l37 35c5.33301 5.33301 13.833 14.333 25.5 27s21.334 22.5 29.001 29.5s15.167 10.5 22.5 10.5z" />
    <glyph glyph-name="logicalnot" unicode="&#xac;" horiz-adv-x="634" 
d="M556 251l-1.99902 -60l2 -60c0 -16.667 -6 -28.334 -18 -35.001c-5.33301 -4 -11 -6 -17 -6l-17 6c-12 6.66699 -18 18.334 -18 35.001l3 60v38c-69.333 1.33301 -127 2 -173 2l-197 -3c-16.667 0 -28.334 5.33301 -35.001 16c-4 6 -6 11.667 -6 17s1.66699 11 5 17
c6.66699 10.667 18.667 16 36 16l197 -3l197 3c28.667 0 43 -14.333 43 -43z" />
    <glyph glyph-name="uni00AD" unicode="&#xad;" horiz-adv-x="428" 
d="M107 294l107 -3l107 3h5c14 0 23.5 -4 28.5 -12s7.5 -15 7.5 -21s-2.5 -13 -7.5 -21s-14.5 -12 -28.5 -12h-5l-107 3l-107 -3h-5c-14 0 -23.5 4 -28.5 12s-7.5 15 -7.5 21s2.5 13 7.5 21s14.5 12 28.5 12h5z" />
    <glyph glyph-name="registered" unicode="&#xae;" horiz-adv-x="756" 
d="M378 760c86.667 0 160.667 -31.167 222 -93.5s92 -137.166 92 -224.499s-30.667 -162.166 -92 -224.499s-135.333 -93.5 -222 -93.5s-160.667 31.167 -222 93.5s-92 137.166 -92 224.499s30.667 162.166 92 224.499s135.333 93.5 222 93.5zM377 177
c70 0 129.833 25.833 179.5 77.5s74.5 114.167 74.5 187.5s-24.833 135.833 -74.5 187.5s-109.667 77.5 -180 77.5s-130 -25.833 -179 -77.5s-73.5 -114 -73.5 -187s24.667 -135.833 74 -188.5c49.333 -51.333 109 -77 179 -77zM242 301l4.00098 158.001l-5 137
c0 31.333 41 47 123 47c46 0 82 -11.5 108 -34.5s39 -50.5 39 -82.5c0 -48 -27 -84.667 -81 -110c8 -12.667 15.667 -25.834 23 -39.501s15.333 -25.834 24 -36.501c10.667 -16.667 24.667 -25 42 -25c4.66699 0 7 -1.66699 7 -5c0 -20.667 -8.66699 -34.667 -26 -42
c-6 -2.66699 -13 -4 -21 -4c-15.333 0 -32 14.333 -50 43l-26 46c-6.66699 12.667 -16.334 29.334 -29.001 50.001c-12 -2 -24 -3 -36 -3s-24.333 1 -37 3c2 -48 3 -79.667 3 -95c0 -30 -10.667 -45 -32 -45c-20 0 -30 12.667 -30 38zM301.001 580.001l-2.00195 -53
c-0.666992 -18 -1 -39.333 -1 -64c12.667 6 27.167 9 43.5 9s34.5 -3.66699 54.5 -11c13.333 0 26 6.5 38 19.5s18 27.833 18 44.5s-6.66699 31.5 -20 44.5s-33.666 19.5 -60.999 19.5s-50.666 -3 -69.999 -9z" />
    <glyph glyph-name="overscore" unicode="&#xaf;" horiz-adv-x="436" 
d="M91 703l127 -3l127 3h5c14 0 23.5 -4 28.5 -12s7.5 -15 7.5 -21s-2.5 -13 -7.5 -21s-14.5 -12 -28.5 -12h-5l-127 3l-127 -3h-5c-14 0 -23.5 4 -28.5 12s-7.5 15 -7.5 21s2.5 13 7.5 21s14.5 12 28.5 12h5z" />
    <glyph glyph-name="degree" unicode="&#xb0;" horiz-adv-x="334" 
d="M167 715c35.333 0 63.833 -14.002 85.5 -42.002s32.5 -62.667 32.5 -104s-10.833 -76 -32.5 -104s-50.167 -42 -85.5 -42s-64 14 -86 42c-21.333 28.667 -32 63.334 -32 104.001s10.667 75.334 32 104.001c22 28 50.667 42 86 42zM167.5 477.998
c18.333 0 32.5 8.33203 42.5 24.999s15 38.334 15 65.001s-5 48.667 -15 66s-24.167 26 -42.5 26s-32.666 -8.66699 -42.999 -26s-15.5 -39 -15.5 -65s5.16699 -47.667 15.5 -65s24.666 -26 42.999 -26z" />
    <glyph glyph-name="plusminus" unicode="&#xb1;" horiz-adv-x="570" 
d="M285 60l177 3h5c14 0 23.5 -4 28.5 -12s7.5 -15 7.5 -21s-2.5 -13 -7.5 -21s-14.5 -12 -28.5 -12h-5l-177 3l-177 -3h-5c-14 0 -23.5 4 -28.5 12s-7.5 15 -7.5 21s2.5 13 7.5 21s14.5 12 28.5 12h5zM316 356l146 3.00098h5c14 0 23.5 -4 28.5 -12s7.5 -15 7.5 -21
s-2.5 -13 -7.5 -21s-14.5 -12 -28.5 -12h-28.5c-17.667 0 -58.5 1 -122.5 3l4 -127c0 -12.667 -3.16699 -22.667 -9.5 -30s-14.833 -11 -25.5 -11c-22 0 -33 13.667 -33 41c0 10.667 1.33301 53 4 127c-68 -2 -112.667 -3 -134 -3s-36 3.16699 -44 9.5
s-12 12.666 -12 18.999s1.33301 11.833 4 16.5c7.33301 14 20 21 38 21l148 -3c-2.66699 64 -4 101.667 -4 113c0 27.333 11 41 33 41c10.667 0 19.167 -3.5 25.5 -10.5s9.5 -16.667 9.5 -29s-1.33301 -50.5 -4 -114.5z" />
    <glyph glyph-name="twosuperior" unicode="&#xb2;" horiz-adv-x="374" 
d="M130 393l51.001 -0.00195312l103 5c28 0 42 -10.667 42 -32s-14 -32 -42 -32l-102 4c-20.667 -0.666992 -51.667 -2 -93 -4c-10.667 0 -20 3.33301 -28 10s-12 17 -12 31s9.66699 32.333 29 55c104.667 116.667 157 192 157 226c1.33301 14 -3.16699 25.833 -13.5 35.5
s-23.5 14.5 -39.5 14.5c-19.333 0 -36.5 -7.16699 -51.5 -21.5s-27.833 -22.166 -38.5 -23.499s-18.334 1.16699 -23.001 7.5s-7 13.5 -7 21.5c0 14.667 11.667 30.834 35 48.501s52.333 26.5 87 26.5s62.667 -10 84 -30s32 -42 32 -66s-7.66699 -50.333 -23 -79
c-6 -14.667 -13 -26.667 -21 -36c-20 -24 -35.667 -44.667 -47 -62l-41 -50c-13.333 -16 -26 -32.333 -38 -49z" />
    <glyph glyph-name="threesuperior" unicode="&#xb3;" horiz-adv-x="370" 
d="M95 765l80.9961 -2.00098l73 2c36 0 54 -12.333 54 -37c0 -7.33301 -2.66699 -14.5 -8 -21.5s-18.666 -21.667 -39.999 -44s-37.333 -40.166 -48 -53.499c36.667 -8 65.334 -24.167 86.001 -48.5s31 -53.833 31 -88.5s-13.333 -66.334 -40 -95.001s-62.667 -43 -108 -43
c-32 0 -61.333 10 -88 30s-40 38.5 -40 55.5s8 25.5 24 25.5c8 0 16.333 -4.33301 25 -13c26.667 -25.333 53.834 -38 81.501 -38s47.834 7.66699 60.501 23c14.667 14.667 22 34.334 22 59.001s-8.5 45.334 -25.5 62.001s-37.833 25.667 -62.5 27
c-20.667 -22 -39 -33 -55 -33c-24 0 -36 11.333 -36 34c0 10 5.16699 19.333 15.5 28s25.166 15 44.499 19c38.667 41.333 66.334 71.666 83.001 90.999c-30 2 -49.667 3 -59 3l-71 -3c-26 0 -39 9.66699 -39 29c0 9.33301 3.5 17 10.5 23s16.5 9 28.5 9z" />
    <glyph glyph-name="acute" unicode="&#xb4;" horiz-adv-x="285" 
d="M215 722c0 -28.667 -15.3291 -57.501 -45.9961 -86.501s-54.834 -43.5 -72.501 -43.5s-26.5 7.33301 -26.5 22c0 8.66699 3.66699 16.834 11 24.501s16.666 18.5 27.999 32.5c5.33301 8 11.666 20.5 18.999 37.5s14.833 29.833 22.5 38.5s17.167 13 28.5 13
s20.166 -3.66699 26.499 -11s9.5 -16.333 9.5 -27z" />
    <glyph glyph-name="mu" unicode="&#xb5;" horiz-adv-x="611" 
d="M372 30c-28.667 -26.667 -62.334 -40.002 -101.001 -40.002s-74.667 16.667 -108 50l7 -219v-7c0 -17.333 -4.66699 -29 -14 -35s-17.666 -9 -24.999 -9l-21 6c-12 8 -18 20.667 -18 38v7l6 349c-10 137.333 -15 225.333 -15 264c0 50 15.333 75 46 75
c26.667 0 40 -20.333 40 -61c0 -13.333 -0.833008 -34.166 -2.5 -62.499s-2.5 -93.833 -2.5 -196.5c0 -40 10 -72.167 30 -96.5s46.667 -36.5 80 -36.5s65.833 18.833 97.5 56.5s54.167 80.834 67.5 129.501l-3 217c0 34 12.667 51 38 51c30.667 0 46 -22.833 46 -68.5
s-6.66699 -112.167 -20 -199.5c0 -48.667 3.5 -89.167 10.5 -121.5s15.833 -50.5 26.5 -54.5c4 -2 8.83301 -3.33301 14.5 -4s9.66699 -1.66699 12 -3s3.5 -4 3.5 -8c0 -18 -5.5 -32.667 -16.5 -44s-24.833 -17 -41.5 -17c-42 0 -63 42.667 -63 128
c-19.333 -32.667 -44 -62 -74 -88z" />
    <glyph glyph-name="paragraph" unicode="&#xb6;" horiz-adv-x="628" 
d="M526 709l-5.00195 -444c0 -120 1 -222 3 -306s3 -131.833 3 -143.5s-3.5 -22.167 -10.5 -31.5s-16.5 -14 -28.5 -14s-21.5 4.5 -28.5 13.5s-10.5 23 -10.5 42s1 70.5 3 154.5s3 179 3 285l-5 430c-20 1.33301 -39.667 2 -59 2l-59 -2c-3.33301 -208 -5 -354.5 -5 -439.5
s1 -176.333 3 -274s3 -151.167 3 -160.5c0 -34 -13 -51 -39 -51s-39 17 -39 51c0 22 1 75 3 159s3 179 3 285v63c-64 3.33301 -116.167 24.166 -156.5 62.499s-60.5 85.833 -60.5 142.5c0 70 21.833 125 65.5 165s103.834 60.667 180.501 62l101 -3l87 3
c14.667 0 26.334 -4.66699 35.001 -14s13 -21.666 13 -36.999z" />
    <glyph glyph-name="middot" unicode="&#xb7;" horiz-adv-x="222" 
d="M114 315c14 0 24.833 -5 32.5 -15s11.5 -23.167 11.5 -39.5s-5 -30.833 -15 -43.5s-21.667 -19 -35 -19s-24 5.16699 -32 15.5s-12 23.5 -12 39.5s4.83301 30.333 14.5 43s21.5 19 35.5 19z" />
    <glyph glyph-name="cedilla" unicode="&#xb8;" horiz-adv-x="331" 
d="M166 -10c0 -20 17.499 -39.5 52.499 -58.5s52.5 -41.667 52.5 -68s-11.667 -48.5 -35 -66.5s-50.833 -27 -82.5 -27s-58 7.33301 -79 22s-31.5 30.667 -31.5 48c0 4.66699 1.66699 9 5 13s7.83301 6 13.5 6s17.334 -4.33301 35.001 -13s33.667 -13 48 -13
s27 3.33301 38 10s16.5 13.667 16.5 21s-5.33301 15.333 -16 24c-0.666992 0 -10.5 5.83301 -29.5 17.5s-32.333 22.5 -40 32.5s-11.5 22 -11.5 36v38h64v-22z" />
    <glyph glyph-name="onesuperior" unicode="&#xb9;" horiz-adv-x="297" 
d="M229 714l-3.00391 -164l3 -172c0 -16.667 -5.66699 -28.334 -17 -35.001c-5.33301 -3.33301 -10.666 -5 -15.999 -5s-10.666 1.66699 -15.999 5c-10.667 6.66699 -16 18.334 -16 35.001l3 172v120l-31 -35l-23 -29c-24 -31.333 -42.667 -47 -56 -47
c-20.667 0 -31 10 -31 30c0 11.333 11 28 33 50c22 20.667 43.333 43.5 64 68.5s34.834 40.833 42.501 47.5s16.834 10 27.501 10c24 0 36 -17 36 -51z" />
    <glyph glyph-name="ordmasculine" unicode="&#xba;" horiz-adv-x="358" 
d="M179 715c38 0 69.333 -15.333 94 -46s37 -69.334 37 -116.001s-12.167 -85 -36.5 -115s-55.833 -45 -94.5 -45s-70.167 15 -94.5 45s-36.5 68.333 -36.5 115s12.333 85.334 37 116.001s56 46 94 46zM179 448c22 0 39.333 9.5 52 28.5s19 44.5 19 76.5
s-6.33301 57.833 -19 77.5s-30 29.5 -52 29.5s-39.333 -9.83301 -52 -29.5s-19 -45.667 -19 -78s6.33301 -57.833 19 -76.5s30 -28 52 -28z" />
    <glyph glyph-name="guillemotright" unicode="&#xbb;" horiz-adv-x="506" 
d="M306 188c-23.333 0 -35.001 10.666 -35.001 31.999c0 9.33301 2.66699 16.833 8 22.5s16 14.5 32 26.5s26 19.667 30 23c32 29.333 48 48.333 48 57s-16 27.667 -48 57c-4 3.33301 -14 11 -30 23s-26.667 20.833 -32 26.5s-8 13 -8 22s3.16699 16.833 9.5 23.5
s13 10 20 10s13.833 -2.33301 20.5 -7c6.66699 -2.66699 11.167 -5.5 13.5 -8.5s11.833 -13.333 28.5 -31s32.667 -33.5 48 -47.5s25 -23 29 -27c15.333 -14 23 -26.667 23 -38s-2.66699 -20.666 -8 -27.999s-16.666 -19 -33.999 -35l-37 -34
c-5.33301 -5.33301 -13.833 -14.333 -25.5 -27s-21.5 -22.5 -29.5 -29.5s-15.667 -10.5 -23 -10.5zM97.999 187.999c-7.33301 0 -12.667 0.666016 -16 1.99902c-13.333 6 -20 14.833 -20 26.5s2.66699 20.334 8 26.001s16 14.5 32 26.5s26 19.667 30 23
c32 29.333 48 48.333 48 57s-16 27.667 -48 57c-4 3.33301 -14 11 -30 23s-26.667 20.833 -32 26.5s-8 13 -8 22s3.16699 16.833 9.5 23.5s13 10 20 10s13.833 -2.33301 20.5 -7c6.66699 -2.66699 11.167 -5.5 13.5 -8.5s11.833 -13.333 28.5 -31s32.667 -33.5 48 -47.5
s25 -23 29 -27c15.333 -14 23 -26.667 23 -38s-2.66699 -20.666 -8 -27.999s-16.666 -19 -33.999 -35l-37 -34c-4.66699 -4.66699 -12.834 -13.334 -24.501 -26.001s-21.5 -22.667 -29.5 -30s-15.667 -11 -23 -11z" />
    <glyph glyph-name="onequarter" unicode="&#xbc;" horiz-adv-x="844" 
d="M244 714l-3.00391 -164l3 -172c0 -16.667 -5.33301 -28.334 -16 -35.001c-5.33301 -3.33301 -10.666 -5 -15.999 -5s-10.666 1.66699 -15.999 5c-11.333 6.66699 -17 18.334 -17 35.001l3 172v120l-31 -35l-23 -29c-24 -31.333 -42.667 -47 -56 -47
c-20.667 0 -31 10 -31 30c0 11.333 11 28 33 50c22 20.667 43.333 43.5 64 68.5s34.834 40.833 42.501 47.5s16.834 10 27.501 10c24 0 36 -17 36 -51zM497.996 547c-32.667 -78 -64.001 -162 -94.001 -252l-82 -247c-9.33301 -27.333 -17.666 -44.5 -24.999 -51.5
s-14.333 -10.5 -21 -10.5c-24 0 -36 11 -36 33c0 12 5 31.667 15 59l51 127c24 60 48.5 126 73.5 198s39.833 115.667 44.5 131l66 190c9.33301 28 24.333 42 45 42c9.33301 -2 16.5 -4.66699 21.5 -8s7.5 -12.333 7.5 -27s-5 -33.667 -15 -57zM733.995 182l38 2.00098
c6 0 11.833 -2.83301 17.5 -8.5s8.5 -13 8.5 -22s-5 -15.5 -15 -19.5s-19 -6 -27 -6s-15.333 0.666992 -22 2l3 -97c0 -28.667 -10.167 -43 -30.5 -43s-30.5 14.333 -30.5 43l3 99l-39 1l-131 -3c-22 0 -33 10.333 -33 31c0 10 6.66699 24.667 20 44s35.333 49 66 89l75 97
c21.333 27.333 39.333 41 54 41s26 -5.33301 34 -16s12 -24.334 12 -41.001zM546.995 182.001h131c0.666992 17.333 1 49.333 1 96l-1 78c-13.333 -14.667 -57 -72.667 -131 -174z" />
    <glyph glyph-name="onehalf" unicode="&#xbd;" horiz-adv-x="854" 
d="M244 714l-3.00391 -164l3 -172c0 -16.667 -5.33301 -28.334 -16 -35.001c-5.33301 -3.33301 -10.666 -5 -15.999 -5s-10.666 1.66699 -15.999 5c-11.333 6.66699 -17 18.334 -17 35.001l3 172v120l-31 -35l-23 -29c-24 -31.333 -42.667 -47 -56 -47
c-20.667 0 -31 10 -31 30c0 11.333 11 28 33 50c22 20.667 43.333 43.5 64 68.5s34.834 40.833 42.501 47.5s16.834 10 27.501 10c24 0 36 -17 36 -51zM606.996 56l51.001 -0.00195312l103 5c28 0 42 -10.667 42 -32s-14 -32 -42 -32l-102 4l-93 -4
c-10.667 0 -20 3.33301 -28 10s-12 15 -12 25c0 19.333 9.66699 39.333 29 60c104.667 117.333 157 193 157 227c1.33301 14 -3.16699 25.833 -13.5 35.5s-23.5 14.5 -39.5 14.5c-19.333 0 -36.5 -7.16699 -51.5 -21.5s-27.833 -22.166 -38.5 -23.499
s-18.334 1.16699 -23.001 7.5s-7 13.5 -7 21.5c0 14.667 11.5 30.834 34.5 48.501s52 26.5 87 26.5s63.167 -10 84.5 -30s32 -42 32 -66s-7.66699 -50.333 -23 -79c-6 -14.667 -13 -26.667 -21 -36c-20 -24 -35.667 -44.667 -47 -62l-41 -50
c-13.333 -16 -26 -32.333 -38 -49zM497.997 546.998c-32.667 -78 -64.001 -162 -94.001 -252l-82 -247c-9.33301 -27.333 -17.666 -44.5 -24.999 -51.5s-14.333 -10.5 -21 -10.5c-24 0 -36 11 -36 33c0 12 5 31.667 15 59l51 127c24 60 48.5 126 73.5 198
s39.833 115.667 44.5 131l66 190c9.33301 28 24.333 42 45 42c9.33301 -2 16.5 -4.66699 21.5 -8s7.5 -12.333 7.5 -27s-5 -33.667 -15 -57z" />
    <glyph glyph-name="threequarters" unicode="&#xbe;" horiz-adv-x="894" 
d="M550 547c-32.667 -78 -64.001 -162 -94.001 -252l-82 -247c-9.33301 -27.333 -17.666 -44.5 -24.999 -51.5s-14.333 -10.5 -21 -10.5c-24 0 -36 11 -36 33c0 12 5 31.667 15 59l51 127c24 60 48.5 126 73.5 198s39.833 115.667 44.5 131l66 190
c9.33301 28 24.333 42 45 42c9.33301 -2 16.5 -4.66699 21.5 -8s7.5 -12.333 7.5 -27s-5 -33.667 -15 -57zM785.999 182l38 2.00098c6 0 11.833 -2.83301 17.5 -8.5s8.5 -13 8.5 -22s-5 -15.5 -15 -19.5s-19 -6 -27 -6s-15.333 0.666992 -22 2l3 -97
c0 -28.667 -10.167 -43 -30.5 -43s-30.5 14.333 -30.5 43l3 99l-39 1l-131 -3c-22 0 -33 10.333 -33 31c0 10 6.66699 24.667 20 44s35.333 49 66 89l75 97c21.333 27.333 39.333 41 54 41s26 -5.33301 34 -16s12 -24.334 12 -41.001zM598.999 182.001h131
c0.666992 17.333 1 49.333 1 96l-1 78c-13.333 -14.667 -57 -72.667 -131 -174zM100.999 765.001l80.9961 -2.00098l73 2c36 0 54 -12.333 54 -37c0 -7.33301 -2.66699 -14.5 -8 -21.5s-18.666 -21.667 -39.999 -44s-37.333 -40.166 -48 -53.499
c36.667 -8 65.334 -24.167 86.001 -48.5s31 -53.833 31 -88.5s-13.333 -66.334 -40 -95.001s-62.667 -43 -108 -43c-32 0 -61.333 10 -88 30s-40 38.5 -40 55.5s8 25.5 24 25.5c8 0 16.333 -4.33301 25 -13c26.667 -25.333 53.834 -38 81.501 -38s47.834 7.66699 60.501 23
c14.667 14.667 22 34.334 22 59.001s-8.5 45.334 -25.5 62.001s-37.833 25.667 -62.5 27c-20.667 -22 -39 -33 -55 -33c-24 0 -36 11.333 -36 34c0 10 5.16699 19.333 15.5 28s25.166 15 44.499 19c38.667 41.333 66.334 71.666 83.001 90.999c-30 2 -49.667 3 -59 3l-71 -3
c-26 0 -39 9.66699 -39 29c0 9.33301 3.5 17 10.5 23s16.5 9 28.5 9z" />
    <glyph glyph-name="questiondown" unicode="&#xbf;" horiz-adv-x="443" 
d="M295 271c0 -50 -20.6699 -97.667 -62.0029 -143c-11.333 -12.667 -28.666 -30.667 -51.999 -54c-41.333 -43.333 -62 -83 -62 -119s11.333 -65.167 34 -87.5s46.334 -33.5 71.001 -33.5c44 0 75.833 12.667 95.5 38s34.834 38 45.501 38s19 -3 25 -9s9 -13.667 9 -23
c0 -23.333 -17.333 -47 -52 -71c-33.333 -24.667 -71.333 -37 -114 -37c-55.333 0 -100.166 17.167 -134.499 51.5s-51.5 77.5 -51.5 129.5s20.667 99.667 62 143c11.333 12.667 28.666 30.667 51.999 54c41.333 41.333 62 81.5 62 120.5s11.667 58.5 35 58.5
c24.667 0 37 -18.667 37 -56zM261.997 545c13.333 0 23.832 -5.16699 31.499 -15.5s11.5 -23.333 11.5 -39s-5 -29.667 -15 -42s-21.667 -18.5 -35 -18.5s-23.666 4.83301 -30.999 14.5s-11 22.5 -11 38.5s4.83301 30.333 14.5 43s21.167 19 34.5 19z" />
    <glyph glyph-name="Agrave" unicode="&#xc0;" horiz-adv-x="642" 
d="M510 318l44 1.00195c14.667 0 26.667 -3.66699 36 -11s14 -16.666 14 -27.999c0 -25.333 -23.333 -38 -70 -38l23 -72l28.5 -80c12.333 -34 18.5 -55.667 18.5 -65s-3.16699 -17.5 -9.5 -24.5s-14.5 -10.5 -24.5 -10.5c-19.333 0 -34 11.667 -44 35
c-10 27.333 -21.333 62.166 -34 104.499l-36 116.5c-80 2 -135.667 3 -167 3s-68.666 -1 -111.999 -3c-40.667 -138.667 -62.667 -211.667 -66 -219c-8.66699 -24.667 -21.667 -37 -39 -37c-10 0 -18 3.16699 -24 9.5s-9 14.5 -9 24.5c0 14.667 9.16699 49 27.5 103
s31.166 93 38.499 117h-18c-32 0 -48 12.333 -48 37s16 37 48 37c19.333 0 33 -0.333008 41 -1l131 383c14 40 33.333 60 58 60c16.667 0 29.5 -4.83301 38.5 -14.5s16.833 -22.834 23.5 -39.501s23.667 -66.834 51 -150.501zM226 398.002l-27 -83
c40.667 -2 80.667 -3 120 -3s77.666 1 114.999 3c-68.667 220.667 -107.167 331 -115.5 331s-39.166 -82.667 -92.499 -248zM374 824.002c0 -14 -8.99902 -21 -26.999 -21s-42.333 14.333 -73 43c-30 29.333 -45 58 -45 86c-0.666992 2 -1 4 -1 6c0 12.667 7.33301 22 22 28
c5.33301 2.66699 12 4 20 4c15.333 0 30.666 -18 45.999 -54c10 -21.333 22.167 -40 36.5 -56s21.5 -28 21.5 -36z" />
    <glyph glyph-name="Aacute" unicode="&#xc1;" horiz-adv-x="817" 
d="M577 338c-63.333 205.333 -99.167 308 -107.5 308s-36.5 -76 -84.5 -228l-24 -76c29.333 4.66699 61.833 7 97.5 7s75.167 -3.66699 118.5 -11zM265.999 259c-46.667 -15.333 -86.501 -39.332 -119.501 -71.999s-49.5 -63.334 -49.5 -92.001
c0 -14 3.5 -24.833 10.5 -32.5s16.167 -11.5 27.5 -11.5c36.667 0 80.334 69.333 131.001 208zM791.998 52.001c0 -20 -5.33105 -36.165 -15.998 -48.498s-24 -18.5 -40 -18.5c-29.333 0 -51.666 21.667 -66.999 65c-30 89.333 -54 163.333 -72 222
c-50.667 8.66699 -96.834 13 -138.501 13s-79.834 -3.33301 -114.501 -10c-43.333 -108.667 -75.333 -179.334 -96 -212.001c-33.333 -52 -72 -78 -116 -78c-30.667 0 -55 10.333 -73 31s-27 46.334 -27 77.001c0 46 23.333 92.333 70 139s107.334 78.667 182.001 96
c29.333 81.333 56.833 161.666 82.5 240.999s40.167 123 43.5 131c14 40 33.333 60 58 60c27.333 0 47.666 -17.333 60.999 -52c3.33301 -9.33301 12.666 -37 27.999 -83l99 -300c27.333 -8 49.666 -18.333 66.999 -31s26 -23.667 26 -33c0 -15.333 -8.33301 -23 -25 -23
c-6 0 -22 4.66699 -48 14c28.667 -92.667 47.334 -145.667 56.001 -159s15.667 -21.333 21 -24s11.333 -4.66699 18 -6c14 -2.66699 21 -6.33398 21 -11.001zM567 932.003c0 -28.667 -15.3291 -57.501 -45.9961 -86.501s-54.834 -43.5 -72.501 -43.5s-26.5 7.33301 -26.5 22
c0 8.66699 3.66699 16.834 11 24.501s16.666 18.5 27.999 32.5c5.33301 8 11.666 20.5 18.999 37.5s14.833 29.833 22.5 38.5s17.167 13 28.5 13s20.166 -3.66699 26.499 -11s9.5 -16.333 9.5 -27z" />
    <glyph glyph-name="Acircumflex" unicode="&#xc2;" horiz-adv-x="817" 
d="M577 338c-63.333 205.333 -99.167 308 -107.5 308s-36.5 -76 -84.5 -228l-24 -76c29.333 4.66699 61.833 7 97.5 7s75.167 -3.66699 118.5 -11zM265.999 259c-46.667 -15.333 -86.501 -39.332 -119.501 -71.999s-49.5 -63.334 -49.5 -92.001
c0 -14 3.5 -24.833 10.5 -32.5s16.167 -11.5 27.5 -11.5c36.667 0 80.334 69.333 131.001 208zM791.998 52.001c0 -20 -5.33105 -36.165 -15.998 -48.498s-24 -18.5 -40 -18.5c-29.333 0 -51.666 21.667 -66.999 65c-30 89.333 -54 163.333 -72 222
c-50.667 8.66699 -96.834 13 -138.501 13s-79.834 -3.33301 -114.501 -10c-43.333 -108.667 -75.333 -179.334 -96 -212.001c-33.333 -52 -72 -78 -116 -78c-30.667 0 -55 10.333 -73 31s-27 46.334 -27 77.001c0 46 23.333 92.333 70 139s107.334 78.667 182.001 96
c29.333 81.333 56.833 161.666 82.5 240.999s40.167 123 43.5 131c14 40 33.333 60 58 60c27.333 0 47.666 -17.333 60.999 -52c3.33301 -9.33301 12.666 -37 27.999 -83l99 -300c27.333 -8 49.666 -18.333 66.999 -31s26 -23.667 26 -33c0 -15.333 -8.33301 -23 -25 -23
c-6 0 -22 4.66699 -48 14c28.667 -92.667 47.334 -145.667 56.001 -159s15.667 -21.333 21 -24s11.333 -4.66699 18 -6c14 -2.66699 21 -6.33398 21 -11.001zM524 863.003c-27.333 32 -45.835 47.999 -55.502 47.999s-28.167 -16 -55.5 -48
c-2 -1.33301 -8.83301 -10 -20.5 -26s-23 -24 -34 -24s-19.833 2.66699 -26.5 8c-6.66699 7.33301 -10 15 -10 23s3 15 9 21s13.333 12.667 22 20c24.667 20.667 43.334 40.334 56.001 59.001c12 15.333 21.667 26 29 32c8 6 18 9 30 9s21.833 -2.83301 29.5 -8.5
s18 -16.667 31 -33s22.833 -27.833 29.5 -34.5s14.667 -13.667 24 -21c16 -13.333 25.333 -23.333 28 -30c2.66699 -3.33301 4 -7.33301 4 -12s-1 -10 -3 -16c-4.66699 -11.333 -14 -17 -28 -17h-7c-3.33301 0 -8.66602 3 -15.999 9s-14.833 14.167 -22.5 24.5
s-12.167 15.833 -13.5 16.5z" />
    <glyph glyph-name="Atilde" unicode="&#xc3;" horiz-adv-x="817" 
d="M577 338c-63.333 205.333 -99.167 308 -107.5 308s-36.5 -76 -84.5 -228l-24 -76c29.333 4.66699 61.833 7 97.5 7s75.167 -3.66699 118.5 -11zM265.999 259c-46.667 -15.333 -86.501 -39.332 -119.501 -71.999s-49.5 -63.334 -49.5 -92.001
c0 -14 3.5 -24.833 10.5 -32.5s16.167 -11.5 27.5 -11.5c36.667 0 80.334 69.333 131.001 208zM791.998 52.001c0 -20 -5.33105 -36.165 -15.998 -48.498s-24 -18.5 -40 -18.5c-29.333 0 -51.666 21.667 -66.999 65c-30 89.333 -54 163.333 -72 222
c-50.667 8.66699 -96.834 13 -138.501 13s-79.834 -3.33301 -114.501 -10c-43.333 -108.667 -75.333 -179.334 -96 -212.001c-33.333 -52 -72 -78 -116 -78c-30.667 0 -55 10.333 -73 31s-27 46.334 -27 77.001c0 46 23.333 92.333 70 139s107.334 78.667 182.001 96
c29.333 81.333 56.833 161.666 82.5 240.999s40.167 123 43.5 131c14 40 33.333 60 58 60c27.333 0 47.666 -17.333 60.999 -52c3.33301 -9.33301 12.666 -37 27.999 -83l99 -300c27.333 -8 49.666 -18.333 66.999 -31s26 -23.667 26 -33c0 -15.333 -8.33301 -23 -25 -23
c-6 0 -22 4.66699 -48 14c28.667 -92.667 47.334 -145.667 56.001 -159s15.667 -21.333 21 -24s11.333 -4.66699 18 -6c14 -2.66699 21 -6.33398 21 -11.001zM655 902.003c0 -22.667 -8.49805 -42.5 -25.498 -59.5s-37 -25.5 -60 -25.5s-50.333 9.16699 -82 27.5
s-53.167 27.5 -64.5 27.5s-21.333 -3 -30 -9s-14.167 -10.5 -16.5 -13.5l-17.5 -23.5c-8.66699 -10 -16.334 -15 -23.001 -15s-12.334 1 -17.001 3c-14 6.66699 -21 19.667 -21 39s10.667 37.833 32 55.5s46 26.5 74 26.5s59 -9.33301 93 -28s58.333 -28 73 -28
s27.5 8.5 38.5 25.5s19.5 25.5 25.5 25.5s11 -2.83301 15 -8.5s6 -12.167 6 -19.5z" />
    <glyph glyph-name="Adieresis" unicode="&#xc4;" horiz-adv-x="817" 
d="M577 338c-63.333 205.333 -99.167 308 -107.5 308s-36.5 -76 -84.5 -228l-24 -76c29.333 4.66699 61.833 7 97.5 7s75.167 -3.66699 118.5 -11zM265.999 259c-46.667 -15.333 -86.501 -39.332 -119.501 -71.999s-49.5 -63.334 -49.5 -92.001
c0 -14 3.5 -24.833 10.5 -32.5s16.167 -11.5 27.5 -11.5c36.667 0 80.334 69.333 131.001 208zM791.998 52.001c0 -20 -5.33105 -36.165 -15.998 -48.498s-24 -18.5 -40 -18.5c-29.333 0 -51.666 21.667 -66.999 65c-30 89.333 -54 163.333 -72 222
c-50.667 8.66699 -96.834 13 -138.501 13s-79.834 -3.33301 -114.501 -10c-43.333 -108.667 -75.333 -179.334 -96 -212.001c-33.333 -52 -72 -78 -116 -78c-30.667 0 -55 10.333 -73 31s-27 46.334 -27 77.001c0 46 23.333 92.333 70 139s107.334 78.667 182.001 96
c29.333 81.333 56.833 161.666 82.5 240.999s40.167 123 43.5 131c14 40 33.333 60 58 60c27.333 0 47.666 -17.333 60.999 -52c3.33301 -9.33301 12.666 -37 27.999 -83l99 -300c27.333 -8 49.666 -18.333 66.999 -31s26 -23.667 26 -33c0 -15.333 -8.33301 -23 -25 -23
c-6 0 -22 4.66699 -48 14c28.667 -92.667 47.334 -145.667 56.001 -159s15.667 -21.333 21 -24s11.333 -4.66699 18 -6c14 -2.66699 21 -6.33398 21 -11.001zM393 954.003c27.333 0 41 -16 41 -48c0 -14.667 -4.83301 -28.5 -14.5 -41.5s-21.167 -19.5 -34.5 -19.5
c-28 0 -42 17 -42 51c0 16 4.83301 29.667 14.5 41s21.5 17 35.5 17zM553 954.003c27.333 0 41 -16 41 -48c0 -14.667 -4.83301 -28.5 -14.5 -41.5s-21.167 -19.5 -34.5 -19.5c-28 0 -42 17 -42 51c0 16 4.83301 29.667 14.5 41s21.5 17 35.5 17z" />
    <glyph glyph-name="Aring" unicode="&#xc5;" horiz-adv-x="817" 
d="M577 338c-63.333 205.333 -99.167 308 -107.5 308s-36.5 -76 -84.5 -228l-24 -76c29.333 4.66699 61.833 7 97.5 7s75.167 -3.66699 118.5 -11zM265.999 259c-46.667 -15.333 -86.501 -39.332 -119.501 -71.999s-49.5 -63.334 -49.5 -92.001
c0 -14 3.5 -24.833 10.5 -32.5s16.167 -11.5 27.5 -11.5c36.667 0 80.334 69.333 131.001 208zM791.998 52.001c0 -20 -5.33105 -36.165 -15.998 -48.498s-24 -18.5 -40 -18.5c-29.333 0 -51.666 21.667 -66.999 65c-30 89.333 -54 163.333 -72 222
c-50.667 8.66699 -96.834 13 -138.501 13s-79.834 -3.33301 -114.501 -10c-43.333 -108.667 -75.333 -179.334 -96 -212.001c-33.333 -52 -72 -78 -116 -78c-30.667 0 -55 10.333 -73 31s-27 46.334 -27 77.001c0 46 23.333 92.333 70 139s107.334 78.667 182.001 96
c29.333 81.333 56.833 161.666 82.5 240.999s40.167 123 43.5 131c14 40 33.333 60 58 60c27.333 0 47.666 -17.333 60.999 -52c3.33301 -9.33301 12.666 -37 27.999 -83l99 -300c27.333 -8 49.666 -18.333 66.999 -31s26 -23.667 26 -33c0 -15.333 -8.33301 -23 -25 -23
c-6 0 -22 4.66699 -48 14c28.667 -92.667 47.334 -145.667 56.001 -159s15.667 -21.333 21 -24s11.333 -4.66699 18 -6c14 -2.66699 21 -6.33398 21 -11.001zM467 986.003c26 0 47.667 -9.16699 65 -27.5s26 -40.833 26 -67.5s-8.33301 -49 -25 -67s-38.5 -27 -65.5 -27
s-49.167 8.66699 -66.5 26c-16.667 18 -25 40.5 -25 67.5s8.66699 49.667 26 68s39 27.5 65 27.5zM467 844.003c12 0 22.333 4.83301 31 14.5s13 20.667 13 33s-4.5 23.333 -13.5 33s-19.167 14.5 -30.5 14.5s-21.5 -4.83301 -30.5 -14.5s-13.5 -20.667 -13.5 -33
s4.33301 -23.333 13 -33s19 -14.5 31 -14.5z" />
    <glyph glyph-name="AE" unicode="&#xc6;" horiz-adv-x="995" 
d="M782 0l-148.997 -4.99902c-32 0 -50.333 14.333 -55 43c-8.66699 49.333 -20 120 -34 212c-36 6 -71.5 9 -106.5 9s-68.5 -3.33301 -100.5 -10c-42.667 -108 -74.667 -178.667 -96 -212c-33.333 -52 -72 -78 -116 -78c-32 0 -56.667 10.667 -74 32s-26 46.666 -26 75.999
c0 46 23.167 92.5 69.5 139.5s107.166 78.833 182.499 95.5c7.33301 19.333 52.333 150.333 135 393c14 40 33.667 60 59 60l212 -5l140 5c33.333 0 50 -12.667 50 -38s-16.667 -38 -50 -38l-140 5c-70.667 0 -117.334 -1.33301 -140.001 -4
c13.333 -84 26.666 -164 39.999 -240c29.333 -1.33301 53.666 -2 72.999 -2l170 5c15.333 0 27.5 -3.5 36.5 -10.5s13.5 -16.5 13.5 -28.5c0 -24.667 -16.667 -37 -50 -37l-170 5c-16 0 -36 -0.666992 -60 -2c34 -183.333 53.333 -283.333 58 -300
c42.667 -2.66699 85.334 -4 128.001 -4l152 5c33.333 0 50 -12.667 50 -38s-16.667 -38 -50 -38zM451.003 322.001c28.667 0 57.332 -3.00098 85.999 -9.00098c-25.333 160 -46.666 271 -63.999 333c-8 0 -39 -82.667 -93 -248c-17.333 -53.333 -26 -80.666 -26 -81.999z
M259.001 233c-46.667 -15.333 -86.501 -39.332 -119.501 -71.999s-49.5 -63.334 -49.5 -92.001c0 -14 3.5 -24.833 10.5 -32.5s16.167 -11.5 27.5 -11.5c36.667 0 80.334 69.333 131.001 208z" />
    <glyph glyph-name="Ccedilla" unicode="&#xc7;" horiz-adv-x="696" 
d="M387 -15c3.33301 -18.667 21.666 -37.001 54.999 -55.001s50 -40.167 50 -66.5s-11.667 -48.5 -35 -66.5s-50.833 -27 -82.5 -27s-58 7.33301 -79 22s-31.5 30.667 -31.5 48c0 4.66699 1.66699 9 5 13s7.83301 6 13.5 6s17.334 -4.33301 35.001 -13s33.667 -13 48 -13
s27 3.33301 38 10s16.5 13.667 16.5 21s-5.16699 14.833 -15.5 22.5s-21.5 15.167 -33.5 22.5c-32 16 -48 41 -48 75v8c-67.333 14 -124.333 49.333 -171 106c-63.333 76.667 -95 169.5 -95 278.5s31 201 93 276s139.667 112.5 233 112.5c74 0 134.667 -20.667 182 -62
s71 -89.666 71 -144.999c0 -43.333 -13.667 -79.166 -41 -107.499s-59.666 -42.5 -96.999 -42.5s-68.666 12 -93.999 36c-25.333 25.333 -38 52.5 -38 81.5s6.33301 53.167 19 72.5s28 29 46 29c10 0 18.333 -2.83301 25 -8.5s10 -12.667 10 -21s-4.66699 -19 -14 -32
s-14 -26.667 -14 -41s5.66699 -26.333 17 -36s26.166 -14.5 44.499 -14.5s33.666 7.16699 45.999 21.5s18.5 33.5 18.5 57.5c0 35.333 -16 67.666 -48 96.999c-30.667 30 -75 45 -133 45c-71.333 0 -130 -31.5 -176 -94.5s-69 -137.167 -69 -222.5s24 -160.5 72 -225.5
s108.667 -97.5 182 -97.5c32.667 0 63.167 4.33301 91.5 13s49.833 19 64.5 31c35.333 29.333 56.833 44 64.5 44s14.167 -2.5 19.5 -7.5s8 -11.167 8 -18.5c0 -26 -24.833 -54.5 -74.5 -85.5s-109.167 -46.5 -178.5 -46.5z" />
    <glyph glyph-name="Egrave" unicode="&#xc8;" horiz-adv-x="631" 
d="M233 473c48.667 23.333 93.998 35.001 135.998 35.001s71.667 -8.33301 89 -25c20 -14.667 30 -33 30 -55c0 -17.333 -5.66699 -32.666 -17 -45.999c-24.667 -26.667 -63 -40 -115 -40c-21.333 0 -45 4.83301 -71 14.5s-48.333 21.5 -67 35.5
c-56.667 -38.667 -85 -91 -85 -157c0 -44.667 19.667 -85.834 59 -123.501s92.833 -56.5 160.5 -56.5s119.834 14.333 156.501 43s60 43 70 43c18.667 0 28 -8.66699 28 -26c0 -14.667 -10.667 -32 -32 -52s-52.166 -38 -92.499 -54s-81.833 -24 -124.5 -24
c-94 0 -168.667 24.667 -224 74c-54 50 -81 105.667 -81 167c0 89.333 39 159.666 117 210.999c-36.667 37.333 -55 84.333 -55 141s22.333 102 67 136c45.333 34 96.333 51 153 51s106.334 -10.5 149.001 -31.5s64 -44.167 64 -69.5c0 -16 -6.66699 -26.667 -20 -32
c-4 -0.666992 -9.83301 -1 -17.5 -1s-19.167 5 -34.5 15c-43.333 32.667 -86.833 49 -130.5 49s-79.834 -10.333 -108.501 -31c-32 -20 -48 -50.833 -48 -92.5s14.667 -74.5 44 -98.5zM283.998 433.001l-10.999 -5c23.333 -17.333 52.666 -26 87.999 -26s53 8.33301 53 25
c0 14 -16.333 21 -49 21s-59.667 -5 -81 -15zM377.999 825.001c0 -14 -8.99902 -21 -26.999 -21s-42.333 14.333 -73 43c-30 29.333 -45 58 -45 86c-0.666992 2 -1 4 -1 6c0 12.667 7.33301 22 22 28c5.33301 2.66699 12 4 20 4c15.333 0 30.666 -18 45.999 -54
c9.33301 -20.667 21.333 -39.167 36 -55.5s22 -28.5 22 -36.5z" />
    <glyph glyph-name="Eacute" unicode="&#xc9;" horiz-adv-x="631" 
d="M233 473c48.667 23.333 93.998 35.001 135.998 35.001s71.667 -8.33301 89 -25c20 -14.667 30 -33 30 -55c0 -17.333 -5.66699 -32.666 -17 -45.999c-24.667 -26.667 -63 -40 -115 -40c-21.333 0 -45 4.83301 -71 14.5s-48.333 21.5 -67 35.5
c-56.667 -38.667 -85 -91 -85 -157c0 -44.667 19.667 -85.834 59 -123.501s92.833 -56.5 160.5 -56.5s119.834 14.333 156.501 43s60 43 70 43c18.667 0 28 -8.66699 28 -26c0 -14.667 -10.667 -32 -32 -52s-52.166 -38 -92.499 -54s-81.833 -24 -124.5 -24
c-94 0 -168.667 24.667 -224 74c-54 50 -81 105.667 -81 167c0 89.333 39 159.666 117 210.999c-36.667 37.333 -55 84.333 -55 141s22.333 102 67 136c45.333 34 96.333 51 153 51s106.334 -10.5 149.001 -31.5s64 -44.167 64 -69.5c0 -16 -6.66699 -26.667 -20 -32
c-4 -0.666992 -9.83301 -1 -17.5 -1s-19.167 5 -34.5 15c-43.333 32.667 -86.833 49 -130.5 49s-79.834 -10.333 -108.501 -31c-32 -20 -48 -50.833 -48 -92.5s14.667 -74.5 44 -98.5zM283.998 433.001l-10.999 -5c23.333 -17.333 52.666 -26 87.999 -26s53 8.33301 53 25
c0 14 -16.333 21 -49 21s-59.667 -5 -81 -15zM446.999 932.001c0 -28.667 -15.3291 -57.501 -45.9961 -86.501s-54.834 -43.5 -72.501 -43.5s-26.5 7.33301 -26.5 22c0 8.66699 3.66699 16.834 11 24.501s16.666 18.5 27.999 32.5c5.33301 8 11.666 20.5 18.999 37.5
s14.833 29.833 22.5 38.5s17.167 13 28.5 13s20.166 -3.66699 26.499 -11s9.5 -16.333 9.5 -27z" />
    <glyph glyph-name="Ecircumflex" unicode="&#xca;" horiz-adv-x="631" 
d="M233 473c48.667 23.333 93.998 35.001 135.998 35.001s71.667 -8.33301 89 -25c20 -14.667 30 -33 30 -55c0 -17.333 -5.66699 -32.666 -17 -45.999c-24.667 -26.667 -63 -40 -115 -40c-21.333 0 -45 4.83301 -71 14.5s-48.333 21.5 -67 35.5
c-56.667 -38.667 -85 -91 -85 -157c0 -44.667 19.667 -85.834 59 -123.501s92.833 -56.5 160.5 -56.5s119.834 14.333 156.501 43s60 43 70 43c18.667 0 28 -8.66699 28 -26c0 -14.667 -10.667 -32 -32 -52s-52.166 -38 -92.499 -54s-81.833 -24 -124.5 -24
c-94 0 -168.667 24.667 -224 74c-54 50 -81 105.667 -81 167c0 89.333 39 159.666 117 210.999c-36.667 37.333 -55 84.333 -55 141s22.333 102 67 136c45.333 34 96.333 51 153 51s106.334 -10.5 149.001 -31.5s64 -44.167 64 -69.5c0 -16 -6.66699 -26.667 -20 -32
c-4 -0.666992 -9.83301 -1 -17.5 -1s-19.167 5 -34.5 15c-43.333 32.667 -86.833 49 -130.5 49s-79.834 -10.333 -108.501 -31c-32 -20 -48 -50.833 -48 -92.5s14.667 -74.5 44 -98.5zM283.998 433.001l-10.999 -5c23.333 -17.333 52.666 -26 87.999 -26s53 8.33301 53 25
c0 14 -16.333 21 -49 21s-59.667 -5 -81 -15zM403.999 863.001c-27.333 32 -46.0029 47.999 -56.0029 47.999s-28.333 -16 -55 -48c-2 -1.33301 -8.83301 -10 -20.5 -26s-23 -24 -34 -24s-19.833 2.66699 -26.5 8c-6 6 -9 12.667 -9 20c0 10.667 2.83301 18.834 8.5 24.501
s12.834 12.167 21.501 19.5c24.667 20.667 43.334 40.334 56.001 59.001c12 15.333 21.667 26 29 32c8 6 18 9 30 9s21.833 -2.83301 29.5 -8.5s18 -16.667 31 -33s22.833 -27.833 29.5 -34.5s14.667 -14 24 -22c16 -12.667 25.333 -22.334 28 -29.001
c2.66699 -4 4 -8.33301 4 -13s-1 -9.66699 -3 -15c-4.66699 -11.333 -14 -17 -28 -17h-7c-3.33301 0 -8.66602 3 -15.999 9s-14.833 14.167 -22.5 24.5s-12.167 15.833 -13.5 16.5z" />
    <glyph glyph-name="Edieresis" unicode="&#xcb;" horiz-adv-x="631" 
d="M233 473c48.667 23.333 93.998 35.001 135.998 35.001s71.667 -8.33301 89 -25c20 -14.667 30 -33 30 -55c0 -17.333 -5.66699 -32.666 -17 -45.999c-24.667 -26.667 -63 -40 -115 -40c-21.333 0 -45 4.83301 -71 14.5s-48.333 21.5 -67 35.5
c-56.667 -38.667 -85 -91 -85 -157c0 -44.667 19.667 -85.834 59 -123.501s92.833 -56.5 160.5 -56.5s119.834 14.333 156.501 43s60 43 70 43c18.667 0 28 -8.66699 28 -26c0 -14.667 -10.667 -32 -32 -52s-52.166 -38 -92.499 -54s-81.833 -24 -124.5 -24
c-94 0 -168.667 24.667 -224 74c-54 50 -81 105.667 -81 167c0 89.333 39 159.666 117 210.999c-36.667 37.333 -55 84.333 -55 141s22.333 102 67 136c45.333 34 96.333 51 153 51s106.334 -10.5 149.001 -31.5s64 -44.167 64 -69.5c0 -16 -6.66699 -26.667 -20 -32
c-4 -0.666992 -9.83301 -1 -17.5 -1s-19.167 5 -34.5 15c-43.333 32.667 -86.833 49 -130.5 49s-79.834 -10.333 -108.501 -31c-32 -20 -48 -50.833 -48 -92.5s14.667 -74.5 44 -98.5zM283.998 433.001l-10.999 -5c23.333 -17.333 52.666 -26 87.999 -26s53 8.33301 53 25
c0 14 -16.333 21 -49 21s-59.667 -5 -81 -15zM277.999 953.001c27.333 0 41 -16 41 -48c0 -14.667 -4.83301 -28.5 -14.5 -41.5s-21.167 -19.5 -34.5 -19.5c-28 0 -42 17 -42 51c0 16 4.83301 29.667 14.5 41s21.5 17 35.5 17zM437.999 953.001c27.333 0 41 -16 41 -48
c0 -14.667 -4.83301 -28.5 -14.5 -41.5s-21.167 -19.5 -34.5 -19.5c-28 0 -42 17 -42 51c0 16 4.83301 29.667 14.5 41s21.5 17 35.5 17z" />
    <glyph glyph-name="Igrave" unicode="&#xcc;" horiz-adv-x="598" 
d="M487 444l-1.00098 -168.999c0 -98.667 -23.5 -171.667 -70.5 -219s-104 -71 -171 -71s-118.5 19.333 -154.5 58c-35.333 39.333 -53 83.166 -53 131.499s15.333 87.666 46 117.999s66 45.5 106 45.5s71.667 -12.667 95 -38s35 -56.333 35 -93
s-12.333 -63.334 -37 -80.001c-8 -4.66699 -14.667 -7 -20 -7c-10 0 -14.333 5 -13 15c0 0.666992 1 4.33398 3 11.001c4 18.667 6 36.667 6 54s-7 33.5 -21 48.5s-31.667 22.5 -53 22.5s-39.166 -8.5 -53.499 -25.5s-21.5 -40 -21.5 -69s10.667 -56.833 32 -83.5
c22 -25.333 54 -38 96 -38c55.333 0 98.666 18.5 129.999 55.5s47 88.833 47 155.5l1 178c0 92.667 -0.666992 168.334 -2 227.001c-39.333 -6 -72.333 -9 -99 -9c-144 0 -216 21 -216 63c0 23.333 12.667 35 38 35c3.33301 0 25.166 -4.16699 65.499 -12.5
s77.833 -12.5 112.5 -12.5s75.834 4.16699 123.501 12.5s73.834 12.5 78.501 12.5c28 0 42 -11.167 42 -33.5s-23 -37.5 -69 -45.5c-1.33301 -62.667 -2 -141.667 -2 -237zM370.999 824.001c0 -14 -8.99902 -21 -26.999 -21s-42.333 14.333 -73 43c-30 29.333 -45 58 -45 86
c-0.666992 2 -1 4 -1 6c0 12.667 7.33301 22 22 28c5.33301 2.66699 12 4 20 4c15.333 0 30.666 -18 45.999 -54c9.33301 -20.667 21.333 -39.167 36 -55.5s22 -28.5 22 -36.5z" />
    <glyph glyph-name="Iacute" unicode="&#xcd;" horiz-adv-x="598" 
d="M487 444l-1.00098 -168.999c0 -98.667 -23.5 -171.667 -70.5 -219s-104 -71 -171 -71s-118.5 19.333 -154.5 58c-35.333 39.333 -53 83.166 -53 131.499s15.333 87.666 46 117.999s66 45.5 106 45.5s71.667 -12.667 95 -38s35 -56.333 35 -93
s-12.333 -63.334 -37 -80.001c-8 -4.66699 -14.667 -7 -20 -7c-10 0 -14.333 5 -13 15c0 0.666992 1 4.33398 3 11.001c4 18.667 6 36.667 6 54s-7 33.5 -21 48.5s-31.667 22.5 -53 22.5s-39.166 -8.5 -53.499 -25.5s-21.5 -40 -21.5 -69s10.667 -56.833 32 -83.5
c22 -25.333 54 -38 96 -38c55.333 0 98.666 18.5 129.999 55.5s47 88.833 47 155.5l1 178c0 92.667 -0.666992 168.334 -2 227.001c-39.333 -6 -72.333 -9 -99 -9c-144 0 -216 21 -216 63c0 23.333 12.667 35 38 35c3.33301 0 25.166 -4.16699 65.499 -12.5
s77.833 -12.5 112.5 -12.5s75.834 4.16699 123.501 12.5s73.834 12.5 78.501 12.5c28 0 42 -11.167 42 -33.5s-23 -37.5 -69 -45.5c-1.33301 -62.667 -2 -141.667 -2 -237zM426.999 932.001c0 -28.667 -15.3301 -57.501 -45.9971 -86.501s-54.667 -43.5 -72 -43.5
s-26.333 7.33301 -27 22c0 8.66699 3.66699 16.834 11 24.501s16.666 18.5 27.999 32.5c5.33301 8 11.666 20.5 18.999 37.5s14.833 29.833 22.5 38.5s17.167 13 28.5 13s20.166 -3.66699 26.499 -11s9.5 -16.333 9.5 -27z" />
    <glyph glyph-name="Icircumflex" unicode="&#xce;" horiz-adv-x="598" 
d="M487 444l-1.00098 -168.999c0 -98.667 -23.5 -171.667 -70.5 -219s-104 -71 -171 -71s-118.5 19.333 -154.5 58c-35.333 39.333 -53 83.166 -53 131.499s15.333 87.666 46 117.999s66 45.5 106 45.5s71.667 -12.667 95 -38s35 -56.333 35 -93
s-12.333 -63.334 -37 -80.001c-8 -4.66699 -14.667 -7 -20 -7c-10 0 -14.333 5 -13 15c0 0.666992 1 4.33398 3 11.001c4 18.667 6 36.667 6 54s-7 33.5 -21 48.5s-31.667 22.5 -53 22.5s-39.166 -8.5 -53.499 -25.5s-21.5 -40 -21.5 -69s10.667 -56.833 32 -83.5
c22 -25.333 54 -38 96 -38c55.333 0 98.666 18.5 129.999 55.5s47 88.833 47 155.5l1 178c0 92.667 -0.666992 168.334 -2 227.001c-39.333 -6 -72.333 -9 -99 -9c-144 0 -216 21 -216 63c0 23.333 12.667 35 38 35c3.33301 0 25.166 -4.16699 65.499 -12.5
s77.833 -12.5 112.5 -12.5s75.834 4.16699 123.501 12.5s73.834 12.5 78.501 12.5c28 0 42 -11.167 42 -33.5s-23 -37.5 -69 -45.5c-1.33301 -62.667 -2 -141.667 -2 -237zM373.999 863.001c-27.333 32 -46.0029 47.999 -56.0029 47.999s-28.333 -16 -55 -48
c-2 -1.33301 -8.83301 -10 -20.5 -26s-23 -24 -34 -24s-19.833 2.66699 -26.5 8c-6 6 -9 12.667 -9 20c0 10.667 2.83301 18.834 8.5 24.501s12.834 12.167 21.501 19.5c24.667 20.667 43.334 40.334 56.001 59.001c12 15.333 21.667 26 29 32c8 6 18 9 30 9
s21.833 -2.83301 29.5 -8.5s18 -16.667 31 -33s22.833 -27.833 29.5 -34.5s14.667 -14 24 -22c16 -12.667 25.333 -22.334 28 -29.001c2.66699 -4 4 -8.33301 4 -13s-1 -9.66699 -3 -15c-4.66699 -11.333 -14 -17 -28 -17h-7c-3.33301 0 -8.66602 3 -15.999 9
s-14.833 14.167 -22.5 24.5s-12.167 15.833 -13.5 16.5z" />
    <glyph glyph-name="Idieresis" unicode="&#xcf;" horiz-adv-x="598" 
d="M487 444l-1.00098 -168.999c0 -98.667 -23.5 -171.667 -70.5 -219s-104 -71 -171 -71s-118.5 19.333 -154.5 58c-35.333 39.333 -53 83.166 -53 131.499s15.333 87.666 46 117.999s66 45.5 106 45.5s71.667 -12.667 95 -38s35 -56.333 35 -93
s-12.333 -63.334 -37 -80.001c-8 -4.66699 -14.667 -7 -20 -7c-10 0 -14.333 5 -13 15c0 0.666992 1 4.33398 3 11.001c4 18.667 6 36.667 6 54s-7 33.5 -21 48.5s-31.667 22.5 -53 22.5s-39.166 -8.5 -53.499 -25.5s-21.5 -40 -21.5 -69s10.667 -56.833 32 -83.5
c22 -25.333 54 -38 96 -38c55.333 0 98.666 18.5 129.999 55.5s47 88.833 47 155.5l1 178c0 92.667 -0.666992 168.334 -2 227.001c-39.333 -6 -72.333 -9 -99 -9c-144 0 -216 21 -216 63c0 23.333 12.667 35 38 35c3.33301 0 25.166 -4.16699 65.499 -12.5
s77.833 -12.5 112.5 -12.5s75.834 4.16699 123.501 12.5s73.834 12.5 78.501 12.5c28 0 42 -11.167 42 -33.5s-23 -37.5 -69 -45.5c-1.33301 -62.667 -2 -141.667 -2 -237zM247.999 953.001c27.333 0 41 -16 41 -48c0 -14.667 -4.83301 -28.5 -14.5 -41.5
s-21.167 -19.5 -34.5 -19.5c-28 0 -42 17 -42 51c0 16 4.83301 29.667 14.5 41s21.5 17 35.5 17zM407.999 953.001c27.333 0 41 -16 41 -48c0 -14.667 -4.83301 -28.5 -14.5 -41.5s-21.167 -19.5 -34.5 -19.5c-28 0 -42 17 -42 51c0 16 4.83301 29.667 14.5 41
s21.5 17 35.5 17z" />
    <glyph glyph-name="Eth" unicode="&#xd0;" horiz-adv-x="728" 
d="M134 340l-92 -2.00195c-8.66699 0 -16.667 3.16699 -24 9.5s-11 14.333 -11 24s3.66699 17.5 11 23.5c8 6 18.833 9 32.5 9s41.5 -1 83.5 -3l-5 253c-32 0 -48 12.667 -48 38c0 22.667 22.333 39.667 67 51s94.167 17 148.5 17s106.5 -11.167 156.5 -33.5
s91 -52.5 123 -90.5c64 -76.667 96 -166.167 96 -268.5s-31 -190.166 -93 -263.499c-30.667 -37.333 -70.5 -66.5 -119.5 -87.5s-104.167 -31.5 -165.5 -31.5s-113 7 -155 21c-41.333 15.333 -62 34 -62 56c0 12.667 5.66699 21.334 17 26.001c4 1.33301 9 2 15 2
s13.333 -2.33301 22 -7zM373 370.998c0 -22 -17.334 -33.0029 -52.001 -33.0029c-18.667 0 -57 1 -115 3c0 -112.667 2 -205.667 6 -279c18.667 -4 46.667 -6 84 -6c94.667 0 168 30.333 220 91s78 134.334 78 221.001s-25.333 160.334 -76 221.001
c-25.333 30.667 -58.166 54.834 -98.499 72.501s-84.833 26.5 -133.5 26.5c-25.333 0 -50.333 -3 -75 -9c-3.33301 -52 -5 -144.667 -5 -278l126 3c12 0 21.833 -3 29.5 -9s11.5 -14 11.5 -24z" />
    <glyph glyph-name="Ntilde" unicode="&#xd1;" horiz-adv-x="878" 
d="M159 -8c-39.333 0 -70.501 14.166 -93.501 42.499s-34.5 60.833 -34.5 97.5s12.5 69.5 37.5 98.5s54.833 43.5 89.5 43.5c14.667 0 26.834 -3.5 36.501 -10.5s14.5 -17.167 14.5 -30.5c0 -24.667 -16 -37 -48 -37c-14.667 0 -27.334 -6.16699 -38.001 -18.5
s-16 -27.666 -16 -45.999s5 -33.333 15 -45s24 -17.5 42 -17.5c62 0 93 96 93 288c0 52.667 -5.33301 121.667 -16 207s-16 135.166 -16 149.499s4.66699 25.833 14 34.5s20.333 13 33 13c18.667 0 33.667 -11.667 45 -35c36 -70 87.333 -163.667 154 -281
s124.334 -214.666 173.001 -291.999c-2.66699 0 -5.83398 46.5 -9.50098 139.5s-5.5 154.167 -5.5 183.5c0 74 7.33301 137 22 189c8.66699 30 22.834 53.5 42.501 70.5s42.334 25.5 68.001 25.5s47.5 -6.83301 65.5 -20.5s27 -29.5 27 -47.5s-7.66699 -27 -23 -27
c-4.66699 0 -14.334 3 -29.001 9s-27.667 9 -39 9c-42 0 -63 -96.333 -63 -289c0 -45.333 3.66699 -114.666 11 -207.999s11 -145.333 11 -156s-4.5 -20.334 -13.5 -29.001s-19.5 -13 -31.5 -13c-18 0 -33.667 11.667 -47 35l-114 199l-127 227
c-36.667 68 -62 112.667 -76 134c9.33301 -88 14 -171.667 14 -251c0 -227.333 -56 -341 -168 -341zM684.999 901.999c0 -22.667 -8.49805 -42.5 -25.498 -59.5s-37 -25.5 -60 -25.5s-50.333 9.16699 -82 27.5s-53.167 27.5 -64.5 27.5s-21.333 -3 -30 -9
s-14.167 -10.5 -16.5 -13.5l-17.5 -23.5c-8.66699 -10 -16.334 -15 -23.001 -15s-12.334 1 -17.001 3c-14 6.66699 -21 19.667 -21 39s10.667 37.833 32 55.5s46 26.5 74 26.5s59 -9.33301 93 -28s58.333 -28 73 -28s27.5 8.5 38.5 25.5s19.5 25.5 25.5 25.5
s11 -2.83301 15 -8.5s6 -12.167 6 -19.5z" />
    <glyph glyph-name="Ograve" unicode="&#xd2;" horiz-adv-x="811" 
d="M462 695c-45.333 0 -85.333 -16.498 -120 -49.498s-60.334 -73.5 -77.001 -121.5s-25 -89 -25 -123s1 -61.333 3 -82s3.83301 -36.834 5.5 -48.501s2.5 -18.5 2.5 -20.5c0 -16.667 -7.66699 -25 -23 -25c-13.333 0 -25.666 17.167 -36.999 51.5s-17 70.166 -17 107.499
c0 102 26.333 191 79 267s121.667 114 207 114s155.5 -36.667 210.5 -110s82.5 -164.833 82.5 -274.5s-31.5 -203 -94.5 -280s-145 -115.5 -246 -115.5s-185.833 36.333 -254.5 109s-103 166 -103 280c0 46.667 4.83301 84.5 14.5 113.5s24.167 43.5 43.5 43.5
c9.33301 0 17 -3.16699 23 -9.5s9 -12.833 9 -19.5s-2.16699 -24.167 -6.5 -52.5s-6.5 -53.5 -6.5 -75.5c0 -98 27.667 -175.667 83 -233s120.333 -86 195 -86c54 0 101.833 15 143.5 45s72.5 68.5 92.5 115.5s30 96.5 30 148.5v10c0 88 -19.5 163.5 -58.5 226.5
s-90.833 94.5 -155.5 94.5zM491 824.002c0 -14 -8.99902 -21 -26.999 -21s-42.333 14.333 -73 43c-30 29.333 -45 58 -45 86c-0.666992 2 -1 4 -1 6c0 12.667 7.33301 22 22 28c5.33301 2.66699 12 4 20 4c15.333 0 30.666 -18 45.999 -54
c9.33301 -20.667 21.333 -39.167 36 -55.5s22 -28.5 22 -36.5z" />
    <glyph glyph-name="Oacute" unicode="&#xd3;" horiz-adv-x="811" 
d="M462 695c-45.333 0 -85.333 -16.498 -120 -49.498s-60.334 -73.5 -77.001 -121.5s-25 -89 -25 -123s1 -61.333 3 -82s3.83301 -36.834 5.5 -48.501s2.5 -18.5 2.5 -20.5c0 -16.667 -7.66699 -25 -23 -25c-13.333 0 -25.666 17.167 -36.999 51.5s-17 70.166 -17 107.499
c0 102 26.333 191 79 267s121.667 114 207 114s155.5 -36.667 210.5 -110s82.5 -164.833 82.5 -274.5s-31.5 -203 -94.5 -280s-145 -115.5 -246 -115.5s-185.833 36.333 -254.5 109s-103 166 -103 280c0 46.667 4.83301 84.5 14.5 113.5s24.167 43.5 43.5 43.5
c9.33301 0 17 -3.16699 23 -9.5s9 -12.833 9 -19.5s-2.16699 -24.167 -6.5 -52.5s-6.5 -53.5 -6.5 -75.5c0 -98 27.667 -175.667 83 -233s120.333 -86 195 -86c54 0 101.833 15 143.5 45s72.5 68.5 92.5 115.5s30 96.5 30 148.5v10c0 88 -19.5 163.5 -58.5 226.5
s-90.833 94.5 -155.5 94.5zM547 932.002c0 -28.667 -15.3291 -57.501 -45.9961 -86.501s-54.834 -43.5 -72.501 -43.5s-26.5 7.33301 -26.5 22c0 8.66699 3.66699 16.834 11 24.501s16.666 18.5 27.999 32.5c5.33301 8 11.666 20.5 18.999 37.5s14.833 29.833 22.5 38.5
s17.167 13 28.5 13s20.166 -3.66699 26.499 -11s9.5 -16.333 9.5 -27z" />
    <glyph glyph-name="Ocircumflex" unicode="&#xd4;" horiz-adv-x="811" 
d="M462 695c-45.333 0 -85.333 -16.498 -120 -49.498s-60.334 -73.5 -77.001 -121.5s-25 -89 -25 -123s1 -61.333 3 -82s3.83301 -36.834 5.5 -48.501s2.5 -18.5 2.5 -20.5c0 -16.667 -7.66699 -25 -23 -25c-13.333 0 -25.666 17.167 -36.999 51.5s-17 70.166 -17 107.499
c0 102 26.333 191 79 267s121.667 114 207 114s155.5 -36.667 210.5 -110s82.5 -164.833 82.5 -274.5s-31.5 -203 -94.5 -280s-145 -115.5 -246 -115.5s-185.833 36.333 -254.5 109s-103 166 -103 280c0 46.667 4.83301 84.5 14.5 113.5s24.167 43.5 43.5 43.5
c9.33301 0 17 -3.16699 23 -9.5s9 -12.833 9 -19.5s-2.16699 -24.167 -6.5 -52.5s-6.5 -53.5 -6.5 -75.5c0 -98 27.667 -175.667 83 -233s120.333 -86 195 -86c54 0 101.833 15 143.5 45s72.5 68.5 92.5 115.5s30 96.5 30 148.5v10c0 88 -19.5 163.5 -58.5 226.5
s-90.833 94.5 -155.5 94.5zM514 863.002c-26.667 32 -45.1689 47.999 -55.502 47.999s-28.833 -16 -55.5 -48c-2 -1.33301 -8.83301 -10 -20.5 -26s-23 -24 -34 -24s-19.833 2.66699 -26.5 8c-6.66699 7.33301 -10 15 -10 23s3 15 9 21s13.333 12.667 22 20
c24.667 20.667 43.334 40.334 56.001 59.001c12 15.333 21.667 26 29 32c8 6 18 9 30 9s21.833 -2.83301 29.5 -8.5s18 -16.667 31 -33s22.833 -27.833 29.5 -34.5s14.667 -13.667 24 -21c16 -13.333 25.333 -23.333 28 -30c2.66699 -3.33301 4 -7.33301 4 -12
s-1 -10 -3 -16c-4.66699 -11.333 -14 -17 -28 -17h-7c-3.33301 0 -8.66602 3 -15.999 9s-14.833 14.167 -22.5 24.5s-12.167 15.833 -13.5 16.5z" />
    <glyph glyph-name="Otilde" unicode="&#xd5;" horiz-adv-x="811" 
d="M462 695c-45.333 0 -85.333 -16.498 -120 -49.498s-60.334 -73.5 -77.001 -121.5s-25 -89 -25 -123s1 -61.333 3 -82s3.83301 -36.834 5.5 -48.501s2.5 -18.5 2.5 -20.5c0 -16.667 -7.66699 -25 -23 -25c-13.333 0 -25.666 17.167 -36.999 51.5s-17 70.166 -17 107.499
c0 102 26.333 191 79 267s121.667 114 207 114s155.5 -36.667 210.5 -110s82.5 -164.833 82.5 -274.5s-31.5 -203 -94.5 -280s-145 -115.5 -246 -115.5s-185.833 36.333 -254.5 109s-103 166 -103 280c0 46.667 4.83301 84.5 14.5 113.5s24.167 43.5 43.5 43.5
c9.33301 0 17 -3.16699 23 -9.5s9 -12.833 9 -19.5s-2.16699 -24.167 -6.5 -52.5s-6.5 -53.5 -6.5 -75.5c0 -98 27.667 -175.667 83 -233s120.333 -86 195 -86c54 0 101.833 15 143.5 45s72.5 68.5 92.5 115.5s30 96.5 30 148.5v10c0 88 -19.5 163.5 -58.5 226.5
s-90.833 94.5 -155.5 94.5zM635 902.002c0 -22.667 -8.49805 -42.5 -25.498 -59.5s-37 -25.5 -60 -25.5s-50.333 9.16699 -82 27.5s-53.167 27.5 -64.5 27.5s-21.333 -3 -30 -9s-14.167 -10.5 -16.5 -13.5l-17.5 -23.5c-8.66699 -10 -16.334 -15 -23.001 -15
s-12.334 1 -17.001 3c-14 6.66699 -21 19.667 -21 39s10.667 37.833 32 55.5s46 26.5 74 26.5s59 -9.33301 93 -28s58.333 -28 73 -28s27.5 8.5 38.5 25.5s19.5 25.5 25.5 25.5s11 -2.83301 15 -8.5s6 -12.167 6 -19.5z" />
    <glyph glyph-name="Odieresis" unicode="&#xd6;" horiz-adv-x="811" 
d="M462 695c-45.333 0 -85.333 -16.498 -120 -49.498s-60.334 -73.5 -77.001 -121.5s-25 -89 -25 -123s1 -61.333 3 -82s3.83301 -36.834 5.5 -48.501s2.5 -18.5 2.5 -20.5c0 -16.667 -7.66699 -25 -23 -25c-13.333 0 -25.666 17.167 -36.999 51.5s-17 70.166 -17 107.499
c0 102 26.333 191 79 267s121.667 114 207 114s155.5 -36.667 210.5 -110s82.5 -164.833 82.5 -274.5s-31.5 -203 -94.5 -280s-145 -115.5 -246 -115.5s-185.833 36.333 -254.5 109s-103 166 -103 280c0 46.667 4.83301 84.5 14.5 113.5s24.167 43.5 43.5 43.5
c9.33301 0 17 -3.16699 23 -9.5s9 -12.833 9 -19.5s-2.16699 -24.167 -6.5 -52.5s-6.5 -53.5 -6.5 -75.5c0 -98 27.667 -175.667 83 -233s120.333 -86 195 -86c54 0 101.833 15 143.5 45s72.5 68.5 92.5 115.5s30 96.5 30 148.5v10c0 88 -19.5 163.5 -58.5 226.5
s-90.833 94.5 -155.5 94.5zM368 953.002c27.333 0 41 -16 41 -48c0 -14.667 -4.83301 -28.5 -14.5 -41.5s-21.167 -19.5 -34.5 -19.5c-28 0 -42 17 -42 51c0 16 4.83301 29.667 14.5 41s21.5 17 35.5 17zM528 953.002c27.333 0 41 -16 41 -48
c0 -14.667 -4.83301 -28.5 -14.5 -41.5s-21.167 -19.5 -34.5 -19.5c-28 0 -42 17 -42 51c0 16 4.83301 29.667 14.5 41s21.5 17 35.5 17z" />
    <glyph glyph-name="multiply" unicode="&#xd7;" horiz-adv-x="504" 
d="M421 432c6.66699 -8 10 -17.1709 10 -27.5039s-13.667 -27.166 -41 -50.499c-54.667 -53.333 -87 -85.666 -97 -96.999l131 -131c6.66699 -6 10 -13.5 10 -22.5s-3.16699 -16.833 -9.5 -23.5s-13.333 -10 -21 -10s-14.667 2 -21 6s-11.333 8 -15 12l-30 33l-85.5 92
l-122 -132c-8 -8 -17 -12 -27 -12s-18 3.5 -24 10.5s-9 13.333 -9 19s0.333008 9.83398 1 12.501s1.5 5 2.5 7s3 4.66699 6 8s5.5 6 7.5 8s5.66699 5.33301 11 10s12.333 11.334 21 20.001l92 92c-10.667 12 -35 36.333 -73 73l-56 55c-6.66699 8.66699 -10 17 -10 25
s3.33301 15.333 10 22s14.834 10 24.501 10s17.667 -3.16699 24 -9.5s24.166 -25.833 53.499 -58.5l68 -72c74.667 81.333 113 123 115 125c11.333 11.333 21.333 17 30 17s16.667 -3.66699 24 -11z" />
    <glyph glyph-name="Oslash" unicode="&#xd8;" horiz-adv-x="811" 
d="M339 63c18.667 -5.33301 40.667 -8.00098 66 -8.00098c54.667 0 102.667 15.167 144 45.5s72 69.333 92 117s30 99.834 30 156.501s-8 109.167 -24 157.5s-39.333 86.5 -70 114.5c-108.667 -254.667 -188 -449 -238 -583zM315 -4.00098
c-1.33301 -2.66699 -3.33008 -7.66797 -5.99707 -15.001s-5 -12.833 -7 -16.5s-4.66699 -8.16699 -8 -13.5c-6 -10 -14.833 -15 -26.5 -15s-21.334 3.16699 -29.001 9.5s-11.5 13.833 -11.5 22.5s6 27.334 18 56.001c-60.667 30 -108.334 75.333 -143.001 136
s-52 132 -52 214c0 44 4.66699 81.167 14 111.5s24 45.5 44 45.5c9.33301 0 17 -3.16699 23 -9.5s9 -14.333 9 -24s-2.16699 -25.5 -6.5 -47.5s-6.5 -47.333 -6.5 -76c0 -67.333 13.667 -125.5 41 -174.5s63.666 -86.167 108.999 -111.5c19.333 43.333 59 141.333 119 294
l118 303c-16 6.66699 -35 10 -57 10c-45.333 0 -85.5 -16.833 -120.5 -50.5s-60.667 -74.334 -77 -122.001s-24.5 -92.667 -24.5 -135s1.83301 -74.166 5.5 -95.499s5.5 -35.333 5.5 -42c0 -16.667 -7.66699 -25 -23 -25c-13.333 0 -25.666 16.833 -36.999 50.5
s-17 69.834 -17 108.501c0 101.333 26.5 190.166 79.5 266.499s120.833 114.5 203.5 114.5c30 0 59 -5 87 -15c13.333 36 29.333 54 48 54c11.333 0 20.333 -3.33301 27 -10s10 -14.167 10 -22.5s-0.833008 -15 -2.5 -20s-4.33398 -11.5 -8.00098 -19.5
s-6.16699 -13.667 -7.5 -17c45.333 -32.667 80.333 -78.667 105 -138s37 -127 37 -203c0 -106 -31.5 -197.333 -94.5 -274s-145.833 -115 -248.5 -115c-32.667 0 -62.667 3.66699 -90 11z" />
    <glyph glyph-name="Ugrave" unicode="&#xd9;" horiz-adv-x="793" 
d="M152 690c-15.333 0 -28.167 -6.00098 -38.5 -18.001s-15.5 -26 -15.5 -42s3 -29.5 9 -40.5s12 -19.5 18 -25.5s9 -10.667 9 -14c0 -16 -9.33301 -24 -28 -24s-36.334 10.333 -53.001 31s-25 45 -25 73s8.66699 56.667 26 86c21.333 32.667 54 49 98 49
s77.667 -15.167 101 -45.5s35 -64 35 -101s-8.5 -100.667 -25.5 -191s-25.5 -147.5 -25.5 -171.5c0 -62 10 -111 30 -147s49.833 -54 89.5 -54s77 23.667 112 71s61.5 99.833 79.5 157.5s28.667 113.834 32 168.501c-2 46.667 -3 127.334 -3 242.001c0 44 14.333 66 43 66
c34.667 0 52 -27.667 52 -83c0 -13.333 -8.66699 -98.666 -26 -255.999c1.33301 -72 8.66602 -145 21.999 -219s26.333 -117.667 39 -131c4 -4.66699 13 -7.5 27 -8.5s21 -4.83301 21 -11.5c0 -18.667 -6.33301 -34.334 -19 -47.001c-13.333 -13.333 -26.5 -20 -39.5 -20
s-21.833 2 -26.5 6c-10 5.33301 -20.667 17.333 -32 36c-10 18.667 -18 44.5 -24 77.5l-10 55c-0.666992 3.66699 -2.16699 14.667 -4.5 33s-4.16602 30.166 -5.49902 35.499c-16 -62 -43.833 -117.833 -83.5 -167.5s-92.667 -74.5 -159 -74.5s-116.166 25.667 -149.499 77
c-29.333 47.333 -44 99.5 -44 156.5s9.16699 127.5 27.5 211.5s27.5 143.667 27.5 179c0 54 -20.333 81 -61 81zM460.999 823.999c0 -14 -8.99902 -21 -26.999 -21s-42.333 14.333 -73 43c-30 29.333 -45 58 -45 86c-0.666992 2 -1 4 -1 6c0 12.667 7.33301 22 22 28
c5.33301 2.66699 12 4 20 4c15.333 0 30.666 -18 45.999 -54c9.33301 -20.667 21.333 -39.167 36 -55.5s22 -28.5 22 -36.5z" />
    <glyph glyph-name="Uacute" unicode="&#xda;" horiz-adv-x="793" 
d="M152 690c-15.333 0 -28.167 -6.00098 -38.5 -18.001s-15.5 -26 -15.5 -42s3 -29.5 9 -40.5s12 -19.5 18 -25.5s9 -10.667 9 -14c0 -16 -9.33301 -24 -28 -24s-36.334 10.333 -53.001 31s-25 45 -25 73s8.66699 56.667 26 86c21.333 32.667 54 49 98 49
s77.667 -15.167 101 -45.5s35 -64 35 -101s-8.5 -100.667 -25.5 -191s-25.5 -147.5 -25.5 -171.5c0 -62 10 -111 30 -147s49.833 -54 89.5 -54s77 23.667 112 71s61.5 99.833 79.5 157.5s28.667 113.834 32 168.501c-2 46.667 -3 127.334 -3 242.001c0 44 14.333 66 43 66
c34.667 0 52 -27.667 52 -83c0 -13.333 -8.66699 -98.666 -26 -255.999c1.33301 -72 8.66602 -145 21.999 -219s26.333 -117.667 39 -131c4 -4.66699 13 -7.5 27 -8.5s21 -4.83301 21 -11.5c0 -18.667 -6.33301 -34.334 -19 -47.001c-13.333 -13.333 -26.5 -20 -39.5 -20
s-21.833 2 -26.5 6c-10 5.33301 -20.667 17.333 -32 36c-10 18.667 -18 44.5 -24 77.5l-10 55c-0.666992 3.66699 -2.16699 14.667 -4.5 33s-4.16602 30.166 -5.49902 35.499c-16 -62 -43.833 -117.833 -83.5 -167.5s-92.667 -74.5 -159 -74.5s-116.166 25.667 -149.499 77
c-29.333 47.333 -44 99.5 -44 156.5s9.16699 127.5 27.5 211.5s27.5 143.667 27.5 179c0 54 -20.333 81 -61 81zM516.999 931.999c0 -28.667 -15.3291 -57.501 -45.9961 -86.501s-54.834 -43.5 -72.501 -43.5s-26.5 7.33301 -26.5 22c0 8.66699 3.66699 16.834 11 24.501
s16.666 18.5 27.999 32.5c5.33301 8 11.666 20.5 18.999 37.5s14.833 29.833 22.5 38.5s17.167 13 28.5 13s20.166 -3.66699 26.499 -11s9.5 -16.333 9.5 -27z" />
    <glyph glyph-name="Ucircumflex" unicode="&#xdb;" horiz-adv-x="793" 
d="M152 690c-15.333 0 -28.167 -6.00098 -38.5 -18.001s-15.5 -26 -15.5 -42s3 -29.5 9 -40.5s12 -19.5 18 -25.5s9 -10.667 9 -14c0 -16 -9.33301 -24 -28 -24s-36.334 10.333 -53.001 31s-25 45 -25 73s8.66699 56.667 26 86c21.333 32.667 54 49 98 49
s77.667 -15.167 101 -45.5s35 -64 35 -101s-8.5 -100.667 -25.5 -191s-25.5 -147.5 -25.5 -171.5c0 -62 10 -111 30 -147s49.833 -54 89.5 -54s77 23.667 112 71s61.5 99.833 79.5 157.5s28.667 113.834 32 168.501c-2 46.667 -3 127.334 -3 242.001c0 44 14.333 66 43 66
c34.667 0 52 -27.667 52 -83c0 -13.333 -8.66699 -98.666 -26 -255.999c1.33301 -72 8.66602 -145 21.999 -219s26.333 -117.667 39 -131c4 -4.66699 13 -7.5 27 -8.5s21 -4.83301 21 -11.5c0 -18.667 -6.33301 -34.334 -19 -47.001c-13.333 -13.333 -26.5 -20 -39.5 -20
s-21.833 2 -26.5 6c-10 5.33301 -20.667 17.333 -32 36c-10 18.667 -18 44.5 -24 77.5l-10 55c-0.666992 3.66699 -2.16699 14.667 -4.5 33s-4.16602 30.166 -5.49902 35.499c-16 -62 -43.833 -117.833 -83.5 -167.5s-92.667 -74.5 -159 -74.5s-116.166 25.667 -149.499 77
c-29.333 47.333 -44 99.5 -44 156.5s9.16699 127.5 27.5 211.5s27.5 143.667 27.5 179c0 54 -20.333 81 -61 81zM483.999 862.999c-27.333 32 -45.835 47.999 -55.502 47.999s-28.167 -16 -55.5 -48c-2 -1.33301 -8.83301 -10 -20.5 -26s-23 -24 -34 -24
s-19.833 2.66699 -26.5 8c-6.66699 7.33301 -10 15 -10 23s3 15 9 21s13.333 12.667 22 20c24.667 20.667 43.334 40.334 56.001 59.001c12 15.333 21.667 26 29 32c8 6 18 9 30 9s21.833 -2.83301 29.5 -8.5s18 -16.667 31 -33s22.833 -27.833 29.5 -34.5
s14.667 -13.667 24 -21c16 -13.333 25.333 -23.333 28 -30c2.66699 -3.33301 4 -7.33301 4 -12s-1 -10 -3 -16c-4.66699 -11.333 -14 -17 -28 -17h-7c-3.33301 0 -8.66602 3 -15.999 9s-14.833 14.167 -22.5 24.5s-12.167 15.833 -13.5 16.5z" />
    <glyph glyph-name="Udieresis" unicode="&#xdc;" horiz-adv-x="793" 
d="M152 690c-15.333 0 -28.167 -6.00098 -38.5 -18.001s-15.5 -26 -15.5 -42s3 -29.5 9 -40.5s12 -19.5 18 -25.5s9 -10.667 9 -14c0 -16 -9.33301 -24 -28 -24s-36.334 10.333 -53.001 31s-25 45 -25 73s8.66699 56.667 26 86c21.333 32.667 54 49 98 49
s77.667 -15.167 101 -45.5s35 -64 35 -101s-8.5 -100.667 -25.5 -191s-25.5 -147.5 -25.5 -171.5c0 -62 10 -111 30 -147s49.833 -54 89.5 -54s77 23.667 112 71s61.5 99.833 79.5 157.5s28.667 113.834 32 168.501c-2 46.667 -3 127.334 -3 242.001c0 44 14.333 66 43 66
c34.667 0 52 -27.667 52 -83c0 -13.333 -8.66699 -98.666 -26 -255.999c1.33301 -72 8.66602 -145 21.999 -219s26.333 -117.667 39 -131c4 -4.66699 13 -7.5 27 -8.5s21 -4.83301 21 -11.5c0 -18.667 -6.33301 -34.334 -19 -47.001c-13.333 -13.333 -26.5 -20 -39.5 -20
s-21.833 2 -26.5 6c-10 5.33301 -20.667 17.333 -32 36c-10 18.667 -18 44.5 -24 77.5l-10 55c-0.666992 3.66699 -2.16699 14.667 -4.5 33s-4.16602 30.166 -5.49902 35.499c-16 -62 -43.833 -117.833 -83.5 -167.5s-92.667 -74.5 -159 -74.5s-116.166 25.667 -149.499 77
c-29.333 47.333 -44 99.5 -44 156.5s9.16699 127.5 27.5 211.5s27.5 143.667 27.5 179c0 54 -20.333 81 -61 81zM344.999 953.999c27.333 0 41 -16 41 -48c0 -14.667 -4.83301 -28.5 -14.5 -41.5s-21.167 -19.5 -34.5 -19.5c-28 0 -42 17 -42 51
c0 16 4.83301 29.667 14.5 41s21.5 17 35.5 17zM504.999 953.999c27.333 0 41 -16 41 -48c0 -14.667 -4.83301 -28.5 -14.5 -41.5s-21.167 -19.5 -34.5 -19.5c-28 0 -42 17 -42 51c0 16 4.83301 29.667 14.5 41s21.5 17 35.5 17z" />
    <glyph glyph-name="Yacute" unicode="&#xdd;" horiz-adv-x="583" 
d="M21 713c0 31.333 12 46.999 36 46.999c6.66699 0 13.334 -3.16699 20.001 -9.5s11.5 -14 14.5 -23s7.16699 -24 12.5 -45s12 -44.833 20 -71.5c22.667 -76 54 -139 94 -189c22 -27.333 43 -41 63 -41c10 0 17.333 1.33301 22 4c29.333 186 67.666 302.333 114.999 349
c20 20 41.833 30 65.5 30s41.667 -7.5 54 -22.5s18.5 -35.167 18.5 -60.5c0 -55.333 -19.167 -114.5 -57.5 -177.5s-80.166 -116.833 -125.499 -161.5c-5.33301 -33.333 -8 -78.333 -8 -135s1.66699 -110.167 5 -160.5s5 -80.5 5 -90.5s-3.83301 -19.333 -11.5 -28
s-17.5 -13 -29.5 -13c-25.333 0 -40 31 -44 93c-0.666992 16 -1 44.333 -1 85s4 113 12 217c-8 -1.33301 -16.667 -2 -26 -2c-34 0 -64.833 12.833 -92.5 38.5s-54.334 65.834 -80.001 120.501s-45.667 104.5 -60 149.5s-21.5 77.167 -21.5 96.5zM477 691.999
c-14 0 -33.667 -34.668 -59 -104.001s-39.333 -120.666 -42 -153.999c25.333 29.333 50.333 69 75 119s37 89.333 37 118c0 14 -3.66699 21 -11 21zM388 931.998c0 -28.667 -15.3291 -57.501 -45.9961 -86.501s-54.834 -43.5 -72.501 -43.5s-26.5 7.33301 -26.5 22
c0 8.66699 3.66699 16.834 11 24.501s16.666 18.5 27.999 32.5c5.33301 8 11.666 20.5 18.999 37.5s14.833 29.833 22.5 38.5s17.167 13 28.5 13s20.166 -3.66699 26.499 -11s9.5 -16.333 9.5 -27z" />
    <glyph glyph-name="Thorn" unicode="&#xde;" horiz-adv-x="567" 
d="M98 40l5 335l-5 335c0 33.333 12.667 50 38 50s38 -16.667 38 -50c0 -12 -1 -47 -3 -105c32.667 11.333 72 17 118 17c74.667 0 135 -20 181 -60s69 -90.167 69 -150.5s-23 -110.5 -69 -150.5s-106.667 -60 -182 -60c-46 0 -85.333 5.66699 -118 17l4 -178
c0 -33.333 -12.667 -50 -38 -50s-38 16.667 -38 50zM172 543c-1.33301 -37.333 -2 -85.832 -2 -145.499s0.333008 -98.834 1 -117.501c34 -10.667 74.833 -16 122.5 -16s88 13.5 121 40.5s49.5 62.667 49.5 107s-16.5 80 -49.5 107s-73.167 40.5 -120.5 40.5
s-88 -5.33301 -122 -16z" />
    <glyph glyph-name="germandbls" unicode="&#xdf;" horiz-adv-x="544" 
d="M58 502l49.999 -2.00098v85c0 59.333 14.5 103.333 43.5 132s68 43 117 43s87.5 -13.5 115.5 -40.5s42 -61.833 42 -104.5c0 -25.333 -5.33301 -50 -16 -74s-23.667 -43.667 -39 -59c-36.667 -34.667 -55 -63.334 -55 -86.001c0 -36 23.333 -69 70 -99
c64 -37.333 103.333 -73.666 118 -108.999c7.33301 -17.333 11 -36.333 11 -57c0 -40.667 -13.833 -74.334 -41.5 -101.001s-60.834 -40 -99.501 -40s-71.5 7.5 -98.5 22.5s-40.5 31.833 -40.5 50.5c0 22.667 11 34 33 34c5.33301 0 18.333 -7.16699 39 -21.5
s40.334 -21.5 59.001 -21.5s36 7 52 21c16 12.667 24 29.334 24 50.001c0 36.667 -17.333 66.334 -52 89.001c-7.33301 5.33301 -19.166 13.166 -35.499 23.499l-39.5 25.5c-49.333 32.667 -74 73.334 -74 122.001c0 42 18.333 80.667 55 116
c36.667 38.667 55 72.167 55 100.5s-7.5 50.666 -22.5 66.999s-35.833 24.5 -62.5 24.5c-56.667 0 -85 -39 -85 -117v-535c0 -15.333 -3.5 -27.666 -10.5 -36.999s-16.5 -14 -28.5 -14s-21.5 4.5 -28.5 13.5s-10.5 21.5 -10.5 37.5s1 55.333 3 118s3 134.667 3 216v67
l-51 -2c-25.333 0 -38 10 -38 30c0 10 3.66699 17.833 11 23.5s16.333 8.5 27 8.5z" />
    <glyph glyph-name="agrave" unicode="&#xe0;" horiz-adv-x="571" 
d="M467 242c0 -48.667 3.5 -89.165 10.5 -121.498s15.833 -50.5 26.5 -54.5c4 -2 8.83301 -3.33301 14.5 -4s9.66699 -1.66699 12 -3s3.5 -4 3.5 -8c0 -18.667 -5 -33.5 -15 -44.5s-24.5 -16.5 -43.5 -16.5s-33.833 12.167 -44.5 36.5s-16 56.166 -16 95.499
c-18 -38.667 -43 -70.334 -75 -95.001s-68.167 -37 -108.5 -37s-74.833 13.333 -103.5 40c-53.333 49.333 -80 119 -80 209c0 72.667 21 136 63 190s96 81 162 81c50 0 93.333 -17 130 -51c0 34 12.667 51 38 51c30.667 0 46 -22.833 46 -68.5s-6.66699 -112.167 -20 -199.5
zM409 233.002l-5.00098 154c-39.333 38.667 -81 58 -125 58s-81.667 -19.667 -113 -59s-47 -86.833 -47 -142.5s10.333 -101 31 -136s49.334 -52.5 86.001 -52.5s70.5 16.333 101.5 49s54.833 75.667 71.5 129zM337.999 614.002c0 -14 -8.99902 -21 -26.999 -21
s-42.333 14.333 -73 43c-30 29.333 -45 58 -45 86c-0.666992 2 -1 4 -1 6c0 12.667 7.33301 22 22 28c5.33301 2.66699 12 4 20 4c15.333 0 30.666 -18 45.999 -54c9.33301 -20.667 21.333 -39.167 36 -55.5s22 -28.5 22 -36.5z" />
    <glyph glyph-name="aacute" unicode="&#xe1;" horiz-adv-x="571" 
d="M467 242c0 -48.667 3.5 -89.165 10.5 -121.498s15.833 -50.5 26.5 -54.5c4 -2 8.83301 -3.33301 14.5 -4s9.66699 -1.66699 12 -3s3.5 -4 3.5 -8c0 -18.667 -5 -33.5 -15 -44.5s-24.5 -16.5 -43.5 -16.5s-33.833 12.167 -44.5 36.5s-16 56.166 -16 95.499
c-18 -38.667 -43 -70.334 -75 -95.001s-68.167 -37 -108.5 -37s-74.833 13.333 -103.5 40c-53.333 49.333 -80 119 -80 209c0 72.667 21 136 63 190s96 81 162 81c50 0 93.333 -17 130 -51c0 34 12.667 51 38 51c30.667 0 46 -22.833 46 -68.5s-6.66699 -112.167 -20 -199.5
zM409 233.002l-5.00098 154c-39.333 38.667 -81 58 -125 58s-81.667 -19.667 -113 -59s-47 -86.833 -47 -142.5s10.333 -101 31 -136s49.334 -52.5 86.001 -52.5s70.5 16.333 101.5 49s54.833 75.667 71.5 129zM387.999 722.002
c0 -28.667 -15.3291 -57.501 -45.9961 -86.501s-54.834 -43.5 -72.501 -43.5s-26.5 7.33301 -26.5 22c0 8.66699 3.66699 16.834 11 24.501s16.666 18.5 27.999 32.5c5.33301 8 11.666 20.5 18.999 37.5s14.833 29.833 22.5 38.5s17.167 13 28.5 13
s20.166 -3.66699 26.499 -11s9.5 -16.333 9.5 -27z" />
    <glyph glyph-name="acircumflex" unicode="&#xe2;" horiz-adv-x="571" 
d="M467 242c0 -48.667 3.5 -89.165 10.5 -121.498s15.833 -50.5 26.5 -54.5c4 -2 8.83301 -3.33301 14.5 -4s9.66699 -1.66699 12 -3s3.5 -4 3.5 -8c0 -18.667 -5 -33.5 -15 -44.5s-24.5 -16.5 -43.5 -16.5s-33.833 12.167 -44.5 36.5s-16 56.166 -16 95.499
c-18 -38.667 -43 -70.334 -75 -95.001s-68.167 -37 -108.5 -37s-74.833 13.333 -103.5 40c-53.333 49.333 -80 119 -80 209c0 72.667 21 136 63 190s96 81 162 81c50 0 93.333 -17 130 -51c0 34 12.667 51 38 51c30.667 0 46 -22.833 46 -68.5s-6.66699 -112.167 -20 -199.5
zM409 233.002l-5.00098 154c-39.333 38.667 -81 58 -125 58s-81.667 -19.667 -113 -59s-47 -86.833 -47 -142.5s10.333 -101 31 -136s49.334 -52.5 86.001 -52.5s70.5 16.333 101.5 49s54.833 75.667 71.5 129zM340.999 638.002c-26.667 32 -45.1699 47.999 -55.5029 47.999
s-28.833 -16 -55.5 -48c-2 -1.33301 -8.83301 -10 -20.5 -26s-23 -24 -34 -24s-19.833 2.66699 -26.5 8c-6 6 -9 12.667 -9 20c0 10.667 2.83301 18.834 8.5 24.501s12.834 12.167 21.501 19.5c24.667 20.667 43.334 40.334 56.001 59.001c12 15.333 21.667 26 29 32
c8 6 18 9 30 9s21.833 -2.83301 29.5 -8.5s18 -16.667 31 -33s22.833 -27.833 29.5 -34.5s14.667 -14 24 -22c16 -12.667 25.333 -22.334 28 -29.001c2.66699 -4 4 -8.33301 4 -13s-1 -9.66699 -3 -15c-4.66699 -11.333 -14 -17 -28 -17h-7c-3.33301 0 -8.66602 3 -15.999 9
s-14.833 14.167 -22.5 24.5s-12.167 15.833 -13.5 16.5z" />
    <glyph glyph-name="atilde" unicode="&#xe3;" horiz-adv-x="571" 
d="M467 242c0 -48.667 3.5 -89.165 10.5 -121.498s15.833 -50.5 26.5 -54.5c4 -2 8.83301 -3.33301 14.5 -4s9.66699 -1.66699 12 -3s3.5 -4 3.5 -8c0 -18.667 -5 -33.5 -15 -44.5s-24.5 -16.5 -43.5 -16.5s-33.833 12.167 -44.5 36.5s-16 56.166 -16 95.499
c-18 -38.667 -43 -70.334 -75 -95.001s-68.167 -37 -108.5 -37s-74.833 13.333 -103.5 40c-53.333 49.333 -80 119 -80 209c0 72.667 21 136 63 190s96 81 162 81c50 0 93.333 -17 130 -51c0 34 12.667 51 38 51c30.667 0 46 -22.833 46 -68.5s-6.66699 -112.167 -20 -199.5
zM409 233.002l-5.00098 154c-39.333 38.667 -81 58 -125 58s-81.667 -19.667 -113 -59s-47 -86.833 -47 -142.5s10.333 -101 31 -136s49.334 -52.5 86.001 -52.5s70.5 16.333 101.5 49s54.833 75.667 71.5 129zM483.999 682.002c0 -22.667 -8.49805 -42.5 -25.498 -59.5
s-37 -25.5 -60 -25.5s-50.333 9.16699 -82 27.5s-53.167 27.5 -64.5 27.5s-21.333 -3 -30 -9s-14.167 -10.5 -16.5 -13.5l-17.5 -23.5c-8.66699 -10 -16.334 -15 -23.001 -15s-12.334 1 -17.001 3c-14 6.66699 -21 19.667 -21 39s10.5 37.833 31.5 55.5s45.667 26.5 74 26.5
s59.5 -9.33301 93.5 -28s58.333 -28 73 -28s27.5 8.5 38.5 25.5s19.5 25.5 25.5 25.5s11 -2.83301 15 -8.5s6 -12.167 6 -19.5z" />
    <glyph glyph-name="adieresis" unicode="&#xe4;" horiz-adv-x="571" 
d="M467 242c0 -48.667 3.5 -89.165 10.5 -121.498s15.833 -50.5 26.5 -54.5c4 -2 8.83301 -3.33301 14.5 -4s9.66699 -1.66699 12 -3s3.5 -4 3.5 -8c0 -18.667 -5 -33.5 -15 -44.5s-24.5 -16.5 -43.5 -16.5s-33.833 12.167 -44.5 36.5s-16 56.166 -16 95.499
c-18 -38.667 -43 -70.334 -75 -95.001s-68.167 -37 -108.5 -37s-74.833 13.333 -103.5 40c-53.333 49.333 -80 119 -80 209c0 72.667 21 136 63 190s96 81 162 81c50 0 93.333 -17 130 -51c0 34 12.667 51 38 51c30.667 0 46 -22.833 46 -68.5s-6.66699 -112.167 -20 -199.5
zM409 233.002l-5.00098 154c-39.333 38.667 -81 58 -125 58s-81.667 -19.667 -113 -59s-47 -86.833 -47 -142.5s10.333 -101 31 -136s49.334 -52.5 86.001 -52.5s70.5 16.333 101.5 49s54.833 75.667 71.5 129zM209.999 725.002c27.333 0 41 -16 41 -48
c0 -14.667 -4.83301 -28.5 -14.5 -41.5s-21.167 -19.5 -34.5 -19.5c-28 0 -42 17 -42 51c0 16 4.83301 29.667 14.5 41s21.5 17 35.5 17zM369.999 725.002c27.333 0 41 -16 41 -48c0 -14.667 -4.83301 -28.5 -14.5 -41.5s-21.167 -19.5 -34.5 -19.5c-28 0 -42 17 -42 51
c0 16 4.83301 29.667 14.5 41s21.5 17 35.5 17z" />
    <glyph glyph-name="aring" unicode="&#xe5;" horiz-adv-x="571" 
d="M467 242c0 -48.667 3.5 -89.165 10.5 -121.498s15.833 -50.5 26.5 -54.5c4 -2 8.83301 -3.33301 14.5 -4s9.66699 -1.66699 12 -3s3.5 -4 3.5 -8c0 -18.667 -5 -33.5 -15 -44.5s-24.5 -16.5 -43.5 -16.5s-33.833 12.167 -44.5 36.5s-16 56.166 -16 95.499
c-18 -38.667 -43 -70.334 -75 -95.001s-68.167 -37 -108.5 -37s-74.833 13.333 -103.5 40c-53.333 49.333 -80 119 -80 209c0 72.667 21 136 63 190s96 81 162 81c50 0 93.333 -17 130 -51c0 34 12.667 51 38 51c30.667 0 46 -22.833 46 -68.5s-6.66699 -112.167 -20 -199.5
zM409 233.002l-5.00098 154c-39.333 38.667 -81 58 -125 58s-81.667 -19.667 -113 -59s-47 -86.833 -47 -142.5s10.333 -101 31 -136s49.334 -52.5 86.001 -52.5s70.5 16.333 101.5 49s54.833 75.667 71.5 129zM280.999 765.002c26 0 47.667 -9.16699 65 -27.5
s26 -40.833 26 -67.5s-8.33301 -49 -25 -67s-38.5 -27 -65.5 -27s-49.167 8.66699 -66.5 26c-16.667 18 -25 40.5 -25 67.5s8.66699 49.667 26 68s39 27.5 65 27.5zM280.999 623.002c12 0 22.333 4.83301 31 14.5s13 20.667 13 33s-4.5 23.333 -13.5 33
s-19.167 14.5 -30.5 14.5s-21.5 -4.83301 -30.5 -14.5s-13.5 -20.667 -13.5 -33s4.33301 -23.333 13 -33s19 -14.5 31 -14.5z" />
    <glyph glyph-name="ae" unicode="&#xe6;" horiz-adv-x="837" 
d="M368 227c-45.333 16 -88.332 24 -128.999 24s-72.334 -9.83301 -95.001 -29.5s-34 -43.667 -34 -72s11 -51.833 33 -70.5s50.333 -28 85 -28s66.667 15.5 96 46.5s44 74.167 44 129.5zM445.001 217c4 -46 21.333 -85.3311 52 -117.998s66.834 -49 108.501 -49
s75.834 10.167 102.501 30.5s44.167 30.5 52.5 30.5s15 -2.5 20 -7.5s7.5 -11.167 7.5 -18.5c0 -18.667 -19.167 -40 -57.5 -64s-79.833 -36 -124.5 -36c-89.333 0 -155.333 40.333 -198 121c-40.667 -80.667 -104.334 -121 -191.001 -121c-50 0 -92.333 15.333 -127 46
c-34 31.333 -51 70.666 -51 117.999s17.333 86.333 52 117c37.333 33.333 80.5 50 129.5 50s98.833 -8.33301 149.5 -25c0 54 -11.667 93.833 -35 119.5s-54.166 38.5 -92.499 38.5s-68 -9.83301 -89 -29.5s-37.167 -29.5 -48.5 -29.5c-22.667 0 -34 10.333 -34 31
s16.833 41.5 50.5 62.5s72.167 31.5 115.5 31.5s80.666 -9.83301 111.999 -29.5s55.333 -46.834 72 -81.501c48 74 112.667 111 194 111c48.667 0 89.667 -15 123 -45s50 -69.167 50 -117.5s-20.667 -84.833 -62 -109.5s-88.833 -37 -142.5 -37s-99.834 3.66699 -138.501 11
zM615.001 450.002c-44 0 -80.834 -16.668 -110.501 -50.001s-49.167 -72.666 -58.5 -117.999c34 -8.66699 74 -13 120 -13s82.667 7.66699 110 23s41 36.333 41 63s-9.16699 49.167 -27.5 67.5s-43.166 27.5 -74.499 27.5z" />
    <glyph glyph-name="ccedilla" unicode="&#xe7;" horiz-adv-x="509" 
d="M293 -15c2 -18.667 19.999 -36.8301 53.999 -54.4971s51 -39.834 51 -66.501s-11.667 -49 -35 -67s-50.833 -27 -82.5 -27s-58 7.33301 -79 22s-31.5 30.667 -31.5 48c0 4.66699 1.66699 9 5 13s7.66602 6 12.999 6s17 -4.33301 35 -13s34.167 -13 48.5 -13
s27 3.33301 38 10s16.5 13.667 16.5 21s-5.33301 15.333 -16 24c-1.33301 1.33301 -8.83301 6.66602 -22.5 15.999s-23.5 16.833 -29.5 22.5s-12.333 14.667 -19 27s-10 25.833 -10 40.5c-54 14 -98.333 44.667 -133 92c-33.333 47.333 -50 105 -50 173
s23.333 127.667 70 179s108.667 77 186 77c41.333 0 78.333 -9.5 111 -28.5s49 -37.833 49 -56.5s-6.66699 -30.667 -20 -36c-4 -1.33301 -9.5 -2 -16.5 -2s-15.833 4.66699 -26.5 14c-35.333 29.333 -70.666 44 -105.999 44c-46 0 -86.333 -19.333 -121 -58
c-34 -38.667 -51 -85.834 -51 -141.501s17.5 -103 52.5 -142s77.833 -58.5 128.5 -58.5c40 0 78.333 13.333 115 40c12.667 8.66699 22.334 13 29.001 13c16.667 0 25 -8.83301 25 -26.5s-19 -37.167 -57 -58.5s-78.333 -32.333 -121 -33z" />
    <glyph glyph-name="egrave" unicode="&#xe8;" horiz-adv-x="539" 
d="M317 450c-44 0 -80.834 -16.5 -110.501 -49.5s-49.167 -71.5 -58.5 -115.5c36 -10.667 76.5 -16 121.5 -16s81.167 7.66699 108.5 23s41 36.333 41 63s-9.16699 49.167 -27.5 67.5s-43.166 27.5 -74.499 27.5zM273.999 206c-34.667 0 -76.9971 5 -126.997 15
c4 -47.333 21.5 -87.666 52.5 -120.999s67.167 -50 108.5 -50s75.333 10.167 102 30.5s44.167 30.5 52.5 30.5s15 -2.5 20 -7.5s7.5 -11.167 7.5 -18.5c0 -18.667 -19.167 -40 -57.5 -64s-79.833 -36 -124.5 -36c-69.333 0 -124.5 24.5 -165.5 73.5
s-62.833 107.5 -65.5 175.5c-35.333 11.333 -53 28.666 -53 51.999c0 15.333 5.66699 25.333 17 30c4 1.33301 9.16699 2 15.5 2s15.166 -3 26.499 -9c15.333 60.667 43.166 110.167 83.499 148.5s87.666 57.5 141.999 57.5s98.166 -15 131.499 -45s50 -69.167 50 -117.5
s-20.667 -84.833 -62 -109.5s-92.666 -37 -153.999 -37zM336.002 614c0 -14 -8.99902 -21 -26.999 -21s-42.333 14.333 -73 43c-30 29.333 -45 58 -45 86c-0.666992 2 -1 4 -1 6c0 12.667 7.33301 22 22 28c5.33301 2.66699 12 4 20 4c15.333 0 30.666 -18 45.999 -54
c9.33301 -20.667 21.333 -39.167 36 -55.5s22 -28.5 22 -36.5z" />
    <glyph glyph-name="eacute" unicode="&#xe9;" horiz-adv-x="539" 
d="M317 450c-44 0 -80.834 -16.5 -110.501 -49.5s-49.167 -71.5 -58.5 -115.5c36 -10.667 76.5 -16 121.5 -16s81.167 7.66699 108.5 23s41 36.333 41 63s-9.16699 49.167 -27.5 67.5s-43.166 27.5 -74.499 27.5zM273.999 206c-34.667 0 -76.9971 5 -126.997 15
c4 -47.333 21.5 -87.666 52.5 -120.999s67.167 -50 108.5 -50s75.333 10.167 102 30.5s44.167 30.5 52.5 30.5s15 -2.5 20 -7.5s7.5 -11.167 7.5 -18.5c0 -18.667 -19.167 -40 -57.5 -64s-79.833 -36 -124.5 -36c-69.333 0 -124.5 24.5 -165.5 73.5
s-62.833 107.5 -65.5 175.5c-35.333 11.333 -53 28.666 -53 51.999c0 15.333 5.66699 25.333 17 30c4 1.33301 9.16699 2 15.5 2s15.166 -3 26.499 -9c15.333 60.667 43.166 110.167 83.499 148.5s87.666 57.5 141.999 57.5s98.166 -15 131.499 -45s50 -69.167 50 -117.5
s-20.667 -84.833 -62 -109.5s-92.666 -37 -153.999 -37zM399.002 722c0 -28.667 -15.3301 -57.501 -45.9971 -86.501s-54.667 -43.5 -72 -43.5s-26.333 7.33301 -27 22c0 8.66699 3.66699 16.834 11 24.501s16.666 18.5 27.999 32.5c5.33301 8 11.666 20.5 18.999 37.5
s14.833 29.833 22.5 38.5s17.167 13 28.5 13s20.166 -3.66699 26.499 -11s9.5 -16.333 9.5 -27z" />
    <glyph glyph-name="ecircumflex" unicode="&#xea;" horiz-adv-x="539" 
d="M317 450c-44 0 -80.834 -16.5 -110.501 -49.5s-49.167 -71.5 -58.5 -115.5c36 -10.667 76.5 -16 121.5 -16s81.167 7.66699 108.5 23s41 36.333 41 63s-9.16699 49.167 -27.5 67.5s-43.166 27.5 -74.499 27.5zM273.999 206c-34.667 0 -76.9971 5 -126.997 15
c4 -47.333 21.5 -87.666 52.5 -120.999s67.167 -50 108.5 -50s75.333 10.167 102 30.5s44.167 30.5 52.5 30.5s15 -2.5 20 -7.5s7.5 -11.167 7.5 -18.5c0 -18.667 -19.167 -40 -57.5 -64s-79.833 -36 -124.5 -36c-69.333 0 -124.5 24.5 -165.5 73.5
s-62.833 107.5 -65.5 175.5c-35.333 11.333 -53 28.666 -53 51.999c0 15.333 5.66699 25.333 17 30c4 1.33301 9.16699 2 15.5 2s15.166 -3 26.499 -9c15.333 60.667 43.166 110.167 83.499 148.5s87.666 57.5 141.999 57.5s98.166 -15 131.499 -45s50 -69.167 50 -117.5
s-20.667 -84.833 -62 -109.5s-92.666 -37 -153.999 -37zM354.002 638c-26.667 32 -45.002 48.001 -55.002 48.001s-28.667 -16 -56 -48c-3.33301 -2 -8.33301 -8 -15 -18c-15.333 -21.333 -28.5 -32 -39.5 -32s-19.833 2.66699 -26.5 8c-6.66699 6.66699 -10 14 -10 22
s3 15.167 9 21.5s13.333 13.166 22 20.499c24.667 20.667 43.334 40.334 56.001 59.001c12 15.333 21.667 26 29 32c8 6 18 9 30 9s21.833 -2.83301 29.5 -8.5s18 -16.667 31 -33s22.833 -27.833 29.5 -34.5s14.667 -14 24 -22c16 -12.667 25.333 -22.334 28 -29.001
c2.66699 -4 4 -8.33301 4 -13s-1 -9.66699 -3 -15c-4.66699 -11.333 -14 -17 -28 -17h-7c-3.33301 0 -8.66602 3 -15.999 9s-14.833 14.167 -22.5 24.5s-12.167 15.833 -13.5 16.5z" />
    <glyph glyph-name="edieresis" unicode="&#xeb;" horiz-adv-x="539" 
d="M317 450c-44 0 -80.834 -16.5 -110.501 -49.5s-49.167 -71.5 -58.5 -115.5c36 -10.667 76.5 -16 121.5 -16s81.167 7.66699 108.5 23s41 36.333 41 63s-9.16699 49.167 -27.5 67.5s-43.166 27.5 -74.499 27.5zM273.999 206c-34.667 0 -76.9971 5 -126.997 15
c4 -47.333 21.5 -87.666 52.5 -120.999s67.167 -50 108.5 -50s75.333 10.167 102 30.5s44.167 30.5 52.5 30.5s15 -2.5 20 -7.5s7.5 -11.167 7.5 -18.5c0 -18.667 -19.167 -40 -57.5 -64s-79.833 -36 -124.5 -36c-69.333 0 -124.5 24.5 -165.5 73.5
s-62.833 107.5 -65.5 175.5c-35.333 11.333 -53 28.666 -53 51.999c0 15.333 5.66699 25.333 17 30c4 1.33301 9.16699 2 15.5 2s15.166 -3 26.499 -9c15.333 60.667 43.166 110.167 83.499 148.5s87.666 57.5 141.999 57.5s98.166 -15 131.499 -45s50 -69.167 50 -117.5
s-20.667 -84.833 -62 -109.5s-92.666 -37 -153.999 -37zM226.002 725c27.333 0 41 -16 41 -48c0 -14.667 -4.83301 -28.5 -14.5 -41.5s-21.167 -19.5 -34.5 -19.5c-28 0 -42 17 -42 51c0 16 4.83301 29.667 14.5 41s21.5 17 35.5 17zM386.002 725c27.333 0 41 -16 41 -48
c0 -14.667 -4.83301 -28.5 -14.5 -41.5s-21.167 -19.5 -34.5 -19.5c-28 0 -42 17 -42 51c0 16 4.83301 29.667 14.5 41s21.5 17 35.5 17z" />
    <glyph glyph-name="igrave" unicode="&#xec;" 
d="M150 460l-5 -210l5 -210c0 -33.333 -12.667 -50 -38 -50s-38 16.667 -38 50l5 210c-1.33301 46.667 -3 116.667 -5 210c0 33.333 12.667 50 38 50s38 -16.667 38 -50zM175 614c0 -14 -8.99902 -21 -26.999 -21s-42.333 14.333 -73 43c-30 29.333 -45 58 -45 86
c-0.666992 2 -1 4 -1 6c0 12.667 7.33301 22 22 28c5.33301 2.66699 12 4 20 4c15.333 0 30.666 -18 45.999 -54c9.33301 -20.667 21.333 -39.167 36 -55.5s22 -28.5 22 -36.5z" />
    <glyph glyph-name="iacute" unicode="&#xed;" 
d="M150 460l-5 -210l5 -210c0 -33.333 -12.667 -50 -38 -50s-38 16.667 -38 50l5 210c-1.33301 46.667 -3 116.667 -5 210c0 33.333 12.667 50 38 50s38 -16.667 38 -50zM194 722c0 -28.667 -15.3291 -57.501 -45.9961 -86.501s-54.834 -43.5 -72.501 -43.5
s-26.5 7.33301 -26.5 22c0 8.66699 3.66699 16.834 11 24.501s16.666 18.5 27.999 32.5c5.33301 8 11.666 20.5 18.999 37.5s14.833 29.833 22.5 38.5s17.167 13 28.5 13s20.166 -3.66699 26.499 -11s9.5 -16.333 9.5 -27z" />
    <glyph glyph-name="icircumflex" unicode="&#xee;" 
d="M150 460l-5 -210l5 -210c0 -33.333 -12.667 -50 -38 -50s-38 16.667 -38 50l5 210c-1.33301 46.667 -3 116.667 -5 210c0 33.333 12.667 50 38 50s38 -16.667 38 -50zM168 638c-27.333 32 -45.834 48 -55.501 48s-28.167 -16 -55.5 -48c-3.33301 -2 -8.33301 -8 -15 -18
c-15.333 -21.333 -28.5 -32 -39.5 -32s-19.833 2.66699 -26.5 8c-6 8 -9 14.333 -9 19c0 12.667 4.66699 22.667 14 30c1.33301 1.33301 10.833 9.83301 28.5 25.5s32.167 31.834 43.5 48.501c12 15.333 21.667 26 29 32c8 6 18 9 30 9s21.833 -2.83301 29.5 -8.5
s18 -16.667 31 -33s22.833 -27.833 29.5 -34.5s14.667 -14 24 -22c16 -12.667 25.333 -22.334 28 -29.001c2.66699 -4 4 -8.33301 4 -13s-1 -9.66699 -3 -15c-4.66699 -11.333 -14 -17 -28 -17h-7c-3.33301 0 -8.66602 3 -15.999 9s-14.833 14.167 -22.5 24.5
s-12.167 15.833 -13.5 16.5z" />
    <glyph glyph-name="idieresis" unicode="&#xef;" 
d="M150 460l-5 -210l5 -210c0 -33.333 -12.667 -50 -38 -50s-38 16.667 -38 50l5 210c-1.33301 46.667 -3 116.667 -5 210c0 33.333 12.667 50 38 50s38 -16.667 38 -50zM37 725c27.333 0 41 -16 41 -48c0 -14.667 -4.83301 -28.5 -14.5 -41.5s-21.167 -19.5 -34.5 -19.5
c-28 0 -42 17 -42 51c0 16 4.83301 29.667 14.5 41s21.5 17 35.5 17zM197 725c27.333 0 41 -16 41 -48c0 -14.667 -4.83301 -28.5 -14.5 -41.5s-21.167 -19.5 -34.5 -19.5c-28 0 -42 17 -42 51c0 16 4.83301 29.667 14.5 41s21.5 17 35.5 17z" />
    <glyph glyph-name="eth" unicode="&#xf0;" horiz-adv-x="572" 
d="M510 301c0 -92.667 -19.8301 -167.671 -59.4971 -225.004s-98.834 -86 -177.501 -86c-66.667 0 -121 25.333 -163 76c-41.333 51.333 -62 109.833 -62 175.5s18.667 123.167 56 172.5s88.666 74 153.999 74c36 0 69.5 -7.83301 100.5 -23.5s55.167 -35.167 72.5 -58.5
c-16.667 84.667 -55.334 153.334 -116.001 206.001c-5.33301 -4.66699 -25 -24 -59 -58c-12.667 -12 -23.667 -18 -33 -18s-17.166 3.83301 -23.499 11.5s-9.5 14 -9.5 19s1.33301 9.16699 4 12.5c3.33301 7.33301 11.666 16 24.999 26c3.33301 3.33301 11.5 10 24.5 20
s21.5 16.667 25.5 20c-28 16.667 -59.667 26.667 -95 30c-12.667 0.666992 -23.334 2.33398 -32.001 5.00098c-16 4 -24 14 -24 30c0 8.66699 4.33301 16 13 22s20.334 9 35.001 9c46.667 0 97.667 -15.667 153 -47c12 10 30.333 27.333 55 52c12.667 12 23.667 18 33 18
s17.333 -3.16699 24 -9.5s10 -12.666 10 -18.999s-1.16699 -12.166 -3.5 -17.499s-9.5 -13.333 -21.5 -24l-48 -39c44.667 -40.667 79.5 -92.5 104.5 -155.5s37.5 -129.167 37.5 -198.5zM275.003 53.9961c44 0 81 17.832 111 53.499s45 78.334 45 128.001
s-15 93.5 -45 131.5s-68.333 57 -115 57s-83.5 -17.5 -110.5 -52.5s-40.5 -78.333 -40.5 -130s14.667 -96.167 44 -133.5c30 -36 67 -54 111 -54z" />
    <glyph glyph-name="ntilde" unicode="&#xf1;" horiz-adv-x="579" 
d="M496 315l-4.99707 -157.003v-43c1.33301 -27.333 8 -43.666 20 -48.999c4.66699 -1.33301 10 -2.5 16 -3.5s10.167 -2.16699 12.5 -3.5s3.5 -4 3.5 -8c0 -17.333 -5.5 -31.833 -16.5 -43.5s-23.833 -17.5 -38.5 -17.5c-24.667 0 -42 9.66699 -52 29s-15 49 -15 89l4 184
c0 46 -9.83301 82.833 -29.5 110.5s-46.5 41.5 -80.5 41.5s-66.833 -18.833 -98.5 -56.5s-54.167 -80.834 -67.5 -129.501l3 -217c0 -34 -12.667 -51 -38 -51c-30.667 0 -46 22.833 -46 68.5s6.66699 112.167 20 199.5c0 28 -2.83301 67.333 -8.5 118
s-8.5 81.334 -8.5 92.001s3.66699 20.334 11 29.001s16.666 13 27.999 13s20.666 -4.33301 27.999 -13s11 -18 11 -28s-0.166992 -25 -0.5 -45s-0.5 -33.667 -0.5 -41c48.667 84.667 108.667 127 180 127c53.333 0 94.666 -19.167 123.999 -57.5s44 -84.166 44 -137.499z
M461.003 681.997c0 -22.667 -8.49805 -42.5 -25.498 -59.5s-37 -25.5 -60 -25.5s-50.333 9.16699 -82 27.5s-53.167 27.5 -64.5 27.5s-21.333 -3 -30 -9s-14.167 -10.5 -16.5 -13.5l-17.5 -23.5c-8.66699 -10 -16.334 -15 -23.001 -15s-12.334 1 -17.001 3
c-14 6.66699 -21 19.667 -21 39s10.667 37.833 32 55.5s46 26.5 74 26.5s59 -9.33301 93 -28s58.333 -28 73 -28s27.5 8.5 38.5 25.5s19.5 25.5 25.5 25.5s11 -2.83301 15 -8.5s6 -12.167 6 -19.5z" />
    <glyph glyph-name="ograve" unicode="&#xf2;" horiz-adv-x="562" 
d="M163 108c30.667 -38.667 69.168 -58.001 115.501 -58.001s85.666 19.5 117.999 58.5s48.5 86.167 48.5 141.5s-15.5 102.5 -46.5 141.5s-69.333 58.5 -115 58.5s-85.167 -19.667 -118.5 -59c-32 -39.333 -48 -86.666 -48 -141.999s15.333 -102.333 46 -141z
M46.001 248.999c0 74 22.333 136.832 67 188.499s101 77.5 169 77.5s124 -25.5 168 -76.5s66 -113.667 66 -188s-22.5 -137.166 -67.5 -188.499s-101.333 -77 -169 -77s-123.5 25.5 -167.5 76.5s-66 113.5 -66 187.5zM333.001 613.998c0 -14 -8.99902 -21 -26.999 -21
s-42.333 14.333 -73 43c-30 29.333 -45 58 -45 86c-0.666992 2 -1 4 -1 6c0 12.667 7.33301 22 22 28c5.33301 2.66699 12 4 20 4c15.333 0 30.666 -18 45.999 -54c9.33301 -20.667 21.333 -39.167 36 -55.5s22 -28.5 22 -36.5z" />
    <glyph glyph-name="oacute" unicode="&#xf3;" horiz-adv-x="562" 
d="M163 108c30.667 -38.667 69.168 -58.001 115.501 -58.001s85.666 19.5 117.999 58.5s48.5 86.167 48.5 141.5s-15.5 102.5 -46.5 141.5s-69.333 58.5 -115 58.5s-85.167 -19.667 -118.5 -59c-32 -39.333 -48 -86.666 -48 -141.999s15.333 -102.333 46 -141z
M46.001 248.999c0 74 22.333 136.832 67 188.499s101 77.5 169 77.5s124 -25.5 168 -76.5s66 -113.667 66 -188s-22.5 -137.166 -67.5 -188.499s-101.333 -77 -169 -77s-123.5 25.5 -167.5 76.5s-66 113.5 -66 187.5zM383.001 721.998
c0 -28.667 -15.3291 -57.501 -45.9961 -86.501s-54.834 -43.5 -72.501 -43.5s-26.5 7.33301 -26.5 22c0 8.66699 3.66699 16.834 11 24.501s16.666 18.5 27.999 32.5c5.33301 8 11.666 20.5 18.999 37.5s14.833 29.833 22.5 38.5s17.167 13 28.5 13
s20.166 -3.66699 26.499 -11s9.5 -16.333 9.5 -27z" />
    <glyph glyph-name="ocircumflex" unicode="&#xf4;" horiz-adv-x="562" 
d="M163 108c30.667 -38.667 69.168 -58.001 115.501 -58.001s85.666 19.5 117.999 58.5s48.5 86.167 48.5 141.5s-15.5 102.5 -46.5 141.5s-69.333 58.5 -115 58.5s-85.167 -19.667 -118.5 -59c-32 -39.333 -48 -86.666 -48 -141.999s15.333 -102.333 46 -141z
M46.001 248.999c0 74 22.333 136.832 67 188.499s101 77.5 169 77.5s124 -25.5 168 -76.5s66 -113.667 66 -188s-22.5 -137.166 -67.5 -188.499s-101.333 -77 -169 -77s-123.5 25.5 -167.5 76.5s-66 113.5 -66 187.5zM336.001 637.998
c-26.667 32 -45.002 48.001 -55.002 48.001s-28.667 -16 -56 -48c-2 -1.33301 -8.83301 -10 -20.5 -26s-23 -24 -34 -24s-19.833 2.66699 -26.5 8c-6.66699 6.66699 -10 14 -10 22s3 15.167 9 21.5s13.333 13.166 22 20.499c24.667 20.667 43.334 40.334 56.001 59.001
c12 15.333 21.667 26 29 32c8 6 18 9 30 9s21.833 -2.83301 29.5 -8.5s18 -16.667 31 -33s22.833 -27.833 29.5 -34.5s14.667 -14 24 -22c16 -12.667 25.333 -22.334 28 -29.001c2.66699 -4 4 -8.33301 4 -13s-1 -9.66699 -3 -15c-4.66699 -11.333 -14 -17 -28 -17h-7
c-3.33301 0 -8.66602 3 -15.999 9s-14.833 14.167 -22.5 24.5s-12.167 15.833 -13.5 16.5z" />
    <glyph glyph-name="otilde" unicode="&#xf5;" horiz-adv-x="562" 
d="M163 108c30.667 -38.667 69.168 -58.001 115.501 -58.001s85.666 19.5 117.999 58.5s48.5 86.167 48.5 141.5s-15.5 102.5 -46.5 141.5s-69.333 58.5 -115 58.5s-85.167 -19.667 -118.5 -59c-32 -39.333 -48 -86.666 -48 -141.999s15.333 -102.333 46 -141z
M46.001 248.999c0 74 22.333 136.832 67 188.499s101 77.5 169 77.5s124 -25.5 168 -76.5s66 -113.667 66 -188s-22.5 -137.166 -67.5 -188.499s-101.333 -77 -169 -77s-123.5 25.5 -167.5 76.5s-66 113.5 -66 187.5zM459.001 681.998
c0 -22.667 -8.49805 -42.5 -25.498 -59.5s-37 -25.5 -60 -25.5s-50.333 9.16699 -82 27.5s-53.167 27.5 -64.5 27.5s-21.333 -3 -30 -9s-14.167 -10.5 -16.5 -13.5l-17.5 -23.5c-8.66699 -10 -16.334 -15 -23.001 -15s-12.334 1 -17.001 3c-14 6.66699 -21 19.667 -21 39
s10.667 37.833 32 55.5s46 26.5 74 26.5s59 -9.33301 93 -28s58.333 -28 73 -28s27.5 8.5 38.5 25.5s19.5 25.5 25.5 25.5s11 -2.83301 15 -8.5s6 -12.167 6 -19.5z" />
    <glyph glyph-name="odieresis" unicode="&#xf6;" horiz-adv-x="562" 
d="M163 108c30.667 -38.667 69.168 -58.001 115.501 -58.001s85.666 19.5 117.999 58.5s48.5 86.167 48.5 141.5s-15.5 102.5 -46.5 141.5s-69.333 58.5 -115 58.5s-85.167 -19.667 -118.5 -59c-32 -39.333 -48 -86.666 -48 -141.999s15.333 -102.333 46 -141z
M46.001 248.999c0 74 22.333 136.832 67 188.499s101 77.5 169 77.5s124 -25.5 168 -76.5s66 -113.667 66 -188s-22.5 -137.166 -67.5 -188.499s-101.333 -77 -169 -77s-123.5 25.5 -167.5 76.5s-66 113.5 -66 187.5zM205.001 724.998c27.333 0 41 -16 41 -48
c0 -14.667 -4.83301 -28.5 -14.5 -41.5s-21.167 -19.5 -34.5 -19.5c-28 0 -42 17 -42 51c0 16 4.83301 29.667 14.5 41s21.5 17 35.5 17zM365.001 724.998c27.333 0 41 -16 41 -48c0 -14.667 -4.83301 -28.5 -14.5 -41.5s-21.167 -19.5 -34.5 -19.5c-28 0 -42 17 -42 51
c0 16 4.83301 29.667 14.5 41s21.5 17 35.5 17z" />
    <glyph glyph-name="divide" unicode="&#xf7;" horiz-adv-x="558" 
d="M279 291l177 3h5c14 0 23.5 -4 28.5 -12s7.5 -15 7.5 -21s-2.5 -13 -7.5 -21s-14.5 -12 -28.5 -12h-5l-177 3l-177 -3h-5c-14 0 -23.5 4 -28.5 12s-7.5 15 -7.5 21s2.5 13 7.5 21s14.5 12 28.5 12h5zM282 151c28 0 41.999 -17.333 41.999 -52
c0 -14.667 -4.66699 -28.167 -14 -40.5s-20.666 -18.5 -33.999 -18.5s-23.666 5 -30.999 15s-11 22.5 -11 37.5s4.66699 28.5 14 40.5s20.666 18 33.999 18zM281.999 482c28 0 41.999 -17.333 41.999 -52c0 -14.667 -4.66699 -28.167 -14 -40.5s-20.666 -18.5 -33.999 -18.5
s-23.666 5 -30.999 15s-11 22.5 -11 37.5s4.66699 28.5 14 40.5s20.666 18 33.999 18z" />
    <glyph glyph-name="oslash" unicode="&#xf8;" horiz-adv-x="562" 
d="M516 250c0 -74 -22.501 -136.668 -67.501 -188.001s-100.833 -77 -167.5 -77c-18.667 0 -40 3 -64 9l-18 -50c-9.33301 -23.333 -23 -35 -41 -35c-9.33301 0 -17.5 3.5 -24.5 10.5s-10.5 15.833 -10.5 26.5s9 37.334 27 80.001
c-32.667 23.333 -58.167 54.666 -76.5 93.999s-27.5 82.666 -27.5 129.999c0 73.333 22.333 135.833 67 187.5s100.334 77.5 167.001 77.5c22 0 43 -3 63 -9l17 46c10 23.333 23.667 35 41 35c9.33301 0 17.5 -3.5 24.5 -10.5s10.5 -15.833 10.5 -26.5s-8.66699 -36 -26 -76
c33.333 -23.333 59.333 -54.666 78 -93.999s28 -82.666 28 -129.999zM381.999 409.999c-39.333 -90.667 -86.666 -209 -141.999 -355c16.667 -3.33301 30 -5 40 -5c45.333 0 84.166 19.5 116.499 58.5s48.5 89 48.5 150s-21 111.5 -63 151.5zM178.999 90.999
c54.667 126.667 102 244.332 142 352.999c-12 4 -25 6 -39 6c-44.667 0 -83.667 -19.667 -117 -59c-32 -39.333 -48 -89.666 -48 -150.999s20.667 -111 62 -149z" />
    <glyph glyph-name="ugrave" unicode="&#xf9;" horiz-adv-x="584" 
d="M151 428l-8 -220.001c0 -46 9.83301 -83 29.5 -111s46.5 -42 80.5 -42s67 19 99 57c31.333 38.667 53.666 82 66.999 130l-3 217c0 34 12.667 51 38 51c30.667 0 46 -22.833 46 -68.5s-6.66699 -112.167 -20 -199.5c0 -48.667 3.5 -89.167 10.5 -121.5
s15.833 -50.5 26.5 -54.5c4 -2 8.83301 -3.33301 14.5 -4s9.66699 -1.66699 12 -3s3.5 -4 3.5 -8c0 -18 -5.5 -32.667 -16.5 -44s-24.833 -17 -41.5 -17c-42 0 -63 42.667 -63 128c-49.333 -85.333 -111.333 -128 -186 -128c-53.333 0 -94.666 19.667 -123.999 59
c-29.333 40.667 -44 89.334 -44 146.001l6 151c0 20.667 -2.66699 45.5 -8 74.5s-8 47.167 -8 54.5s4.16699 15 12.5 23s18.5 12 30.5 12c30.667 0 46 -27.333 46 -82zM324 613.999c0 -14 -8.99902 -21 -26.999 -21s-42.333 14.333 -73 43c-30 29.333 -45 58 -45 86
c-0.666992 2 -1 4 -1 6c0 12.667 7.33301 22 22 28c5.33301 2.66699 12 4 20 4c15.333 0 30.666 -18 45.999 -54c9.33301 -20.667 21.333 -39.167 36 -55.5s22 -28.5 22 -36.5z" />
    <glyph glyph-name="uacute" unicode="&#xfa;" horiz-adv-x="584" 
d="M151 428l-8 -220.001c0 -46 9.83301 -83 29.5 -111s46.5 -42 80.5 -42s67 19 99 57c31.333 38.667 53.666 82 66.999 130l-3 217c0 34 12.667 51 38 51c30.667 0 46 -22.833 46 -68.5s-6.66699 -112.167 -20 -199.5c0 -48.667 3.5 -89.167 10.5 -121.5
s15.833 -50.5 26.5 -54.5c4 -2 8.83301 -3.33301 14.5 -4s9.66699 -1.66699 12 -3s3.5 -4 3.5 -8c0 -18 -5.5 -32.667 -16.5 -44s-24.833 -17 -41.5 -17c-42 0 -63 42.667 -63 128c-49.333 -85.333 -111.333 -128 -186 -128c-53.333 0 -94.666 19.667 -123.999 59
c-29.333 40.667 -44 89.334 -44 146.001l6 151c0 20.667 -2.66699 45.5 -8 74.5s-8 47.167 -8 54.5s4.16699 15 12.5 23s18.5 12 30.5 12c30.667 0 46 -27.333 46 -82zM384 721.999c0 -28.667 -15.3301 -57.501 -45.9971 -86.501s-54.834 -43.5 -72.501 -43.5
s-26.5 7.33301 -26.5 22c0 8.66699 3.5 16.834 10.5 24.501l28.5 32.5c5.33301 8 11.666 20.5 18.999 37.5s14.833 29.833 22.5 38.5s17.167 13 28.5 13s20.166 -3.66699 26.499 -11s9.5 -16.333 9.5 -27z" />
    <glyph glyph-name="ucircumflex" unicode="&#xfb;" horiz-adv-x="584" 
d="M151 428l-8 -220.001c0 -46 9.83301 -83 29.5 -111s46.5 -42 80.5 -42s67 19 99 57c31.333 38.667 53.666 82 66.999 130l-3 217c0 34 12.667 51 38 51c30.667 0 46 -22.833 46 -68.5s-6.66699 -112.167 -20 -199.5c0 -48.667 3.5 -89.167 10.5 -121.5
s15.833 -50.5 26.5 -54.5c4 -2 8.83301 -3.33301 14.5 -4s9.66699 -1.66699 12 -3s3.5 -4 3.5 -8c0 -18 -5.5 -32.667 -16.5 -44s-24.833 -17 -41.5 -17c-42 0 -63 42.667 -63 128c-49.333 -85.333 -111.333 -128 -186 -128c-53.333 0 -94.666 19.667 -123.999 59
c-29.333 40.667 -44 89.334 -44 146.001l6 151c0 20.667 -2.66699 45.5 -8 74.5s-8 47.167 -8 54.5s4.16699 15 12.5 23s18.5 12 30.5 12c30.667 0 46 -27.333 46 -82zM339 637.999c-26.667 32 -45.1699 47.999 -55.5029 47.999s-28.833 -16 -55.5 -48
c-2 -1.33301 -8.83301 -10 -20.5 -26s-23 -24 -34 -24s-19.833 2.66699 -26.5 8c-6 6 -9 12.667 -9 20c0 10.667 2.83301 18.834 8.5 24.501s12.834 12.167 21.501 19.5c24.667 20.667 43.334 40.334 56.001 59.001c12 15.333 21.667 26 29 32c8 6 18 9 30 9
s21.833 -2.83301 29.5 -8.5s18 -16.667 31 -33s22.833 -27.833 29.5 -34.5s14.667 -14 24 -22c16 -12.667 25.333 -22.334 28 -29.001c2.66699 -4 4 -8.33301 4 -13s-1 -9.66699 -3 -15c-4.66699 -11.333 -14 -17 -28 -17h-7c-3.33301 0 -8.66602 3 -15.999 9
s-14.833 14.167 -22.5 24.5s-12.167 15.833 -13.5 16.5z" />
    <glyph glyph-name="udieresis" unicode="&#xfc;" horiz-adv-x="584" 
d="M151 428l-8 -220.001c0 -46 9.83301 -83 29.5 -111s46.5 -42 80.5 -42s67 19 99 57c31.333 38.667 53.666 82 66.999 130l-3 217c0 34 12.667 51 38 51c30.667 0 46 -22.833 46 -68.5s-6.66699 -112.167 -20 -199.5c0 -48.667 3.5 -89.167 10.5 -121.5
s15.833 -50.5 26.5 -54.5c4 -2 8.83301 -3.33301 14.5 -4s9.66699 -1.66699 12 -3s3.5 -4 3.5 -8c0 -18 -5.5 -32.667 -16.5 -44s-24.833 -17 -41.5 -17c-42 0 -63 42.667 -63 128c-49.333 -85.333 -111.333 -128 -186 -128c-53.333 0 -94.666 19.667 -123.999 59
c-29.333 40.667 -44 89.334 -44 146.001l6 151c0 20.667 -2.66699 45.5 -8 74.5s-8 47.167 -8 54.5s4.16699 15 12.5 23s18.5 12 30.5 12c30.667 0 46 -27.333 46 -82zM216 724.999c27.333 0 41 -16 41 -48c0 -14.667 -4.83301 -28.5 -14.5 -41.5s-21.167 -19.5 -34.5 -19.5
c-28 0 -42 17 -42 51c0 16 4.83301 29.667 14.5 41s21.5 17 35.5 17zM376 724.999c27.333 0 41 -16 41 -48c0 -14.667 -4.83301 -28.5 -14.5 -41.5s-21.167 -19.5 -34.5 -19.5c-28 0 -42 17 -42 51c0 16 4.83301 29.667 14.5 41s21.5 17 35.5 17z" />
    <glyph glyph-name="yacute" unicode="&#xfd;" horiz-adv-x="568" 
d="M419 242l-3 216.998c0 34 12.667 51 38 51c30.667 0 46 -25 46 -75c0 -39.333 -7 -103.666 -21 -192.999c8 -81.333 12 -142 12 -182c0 -87.333 -21.5 -157.5 -64.5 -210.5s-102.833 -79.5 -179.5 -79.5c-40 0 -78.667 8.5 -116 25.5s-56 34 -56 51s7.66699 25.5 23 25.5
c6.66699 0 25 -6.16699 55 -18.5s61.333 -18.5 94 -18.5c55.333 0 99.5 19.833 132.5 59.5s49.5 91.5 49.5 155.5c0 23.333 -1 46 -3 68c-49.333 -85.333 -111.333 -128 -186 -128c-53.333 0 -94.666 19.667 -123.999 59c-29.333 40.667 -44 89.334 -44 146.001l6 151
c0 20.667 -2.66699 45.5 -8 74.5s-8 47.167 -8 54.5s4.16699 15 12.5 23s18.5 12 30.5 12c30.667 0 46 -27.333 46 -82l-8 -220c0 -46 9.83301 -83 29.5 -111s46.5 -42 80.5 -42s67 19 99 57c31.333 38.667 53.666 82 66.999 130zM390 721.998
c0 -28.667 -15.3291 -57.501 -45.9961 -86.501s-54.834 -43.5 -72.501 -43.5s-26.5 7.33301 -26.5 22c0 8.66699 3.66699 16.834 11 24.501s16.666 18.5 27.999 32.5c5.33301 8 11.666 20.5 18.999 37.5s14.833 29.833 22.5 38.5s17.167 13 28.5 13
s20.166 -3.66699 26.499 -11s9.5 -16.333 9.5 -27z" />
    <glyph glyph-name="thorn" unicode="&#xfe;" horiz-adv-x="568" 
d="M317 445c-70 0 -127.666 -57.667 -172.999 -173v-159c39.333 -38.667 86.666 -58 141.999 -58c42.667 0 80.167 19.5 112.5 58.5s48.5 85.167 48.5 138.5s-11.5 98.833 -34.5 136.5s-54.833 56.5 -95.5 56.5zM144.001 39
c-1.33301 -50.667 -2.00293 -92.834 -2.00293 -126.501s-0.333008 -58.5 -1 -74.5c-1.33301 -27.333 -4.33301 -44.666 -9 -51.999c-6 -10.667 -16.167 -16 -30.5 -16s-25.833 5.66699 -34.5 17s-13 30 -13 56s1 50.667 3 74l12 119c8 76.667 12.333 121.667 13 135v19l1 38
v16c0 51.333 -3.16699 140.833 -9.5 268.5s-9.5 196.334 -9.5 206.001s3.5 19.167 10.5 28.5s14.333 14 22 14s14.834 -1.66699 21.501 -5c16 -7.33301 24 -20.333 24 -39v-7v-329c23.333 43.333 48.833 75.666 76.5 96.999s62.834 32 105.501 32s79.334 -14 110.001 -42
c58 -51.333 87 -120.333 87 -207c0 -72.667 -22 -136 -66 -190s-100.333 -81 -169 -81c-50 0 -97.333 16.333 -142 49z" />
    <glyph glyph-name="ydieresis" unicode="&#xff;" horiz-adv-x="568" 
d="M419 242l-3 216.998c0 34 12.667 51 38 51c30.667 0 46 -25 46 -75c0 -39.333 -7 -103.666 -21 -192.999c8 -81.333 12 -142 12 -182c0 -87.333 -21.5 -157.5 -64.5 -210.5s-102.833 -79.5 -179.5 -79.5c-40 0 -78.667 8.5 -116 25.5s-56 34 -56 51s7.66699 25.5 23 25.5
c6.66699 0 25 -6.16699 55 -18.5s61.333 -18.5 94 -18.5c55.333 0 99.5 19.833 132.5 59.5s49.5 91.5 49.5 155.5c0 23.333 -1 46 -3 68c-49.333 -85.333 -111.333 -128 -186 -128c-53.333 0 -94.666 19.667 -123.999 59c-29.333 40.667 -44 89.334 -44 146.001l6 151
c0 20.667 -2.66699 45.5 -8 74.5s-8 47.167 -8 54.5s4.16699 15 12.5 23s18.5 12 30.5 12c30.667 0 46 -27.333 46 -82l-8 -220c0 -46 9.83301 -83 29.5 -111s46.5 -42 80.5 -42s67 19 99 57c31.333 38.667 53.666 82 66.999 130zM218 724.998c27.333 0 41 -16 41 -48
c0 -14.667 -4.83301 -28.5 -14.5 -41.5s-21.167 -19.5 -34.5 -19.5c-28 0 -42 17 -42 51c0 16 4.83301 29.667 14.5 41s21.5 17 35.5 17zM378 724.998c27.333 0 41 -16 41 -48c0 -14.667 -4.83301 -28.5 -14.5 -41.5s-21.167 -19.5 -34.5 -19.5c-28 0 -42 17 -42 51
c0 16 4.83301 29.667 14.5 41s21.5 17 35.5 17z" />
    <glyph glyph-name="Hbar" unicode="&#x126;" horiz-adv-x="750" 
d="M375 610l-174.999 -1c-1.33301 -76 -2 -149.333 -2 -220c29.333 -10 67.666 -15 114.999 -15c106.667 0 186 32.667 238 98l-2 137c-35.333 0.666992 -93.333 1 -174 1zM121.001 41l3.99512 292.998c-44 14.667 -66 35.667 -66 63c0 11.333 3 20 9 26s12.833 9 20.5 9
s19.5 -5.33301 35.5 -16v191h-66c-12 0 -21.833 3.16699 -29.5 9.5s-11.5 14.333 -11.5 24s3.83301 17.5 11.5 23.5s20.334 9 38.001 9s35.834 -0.333008 54.501 -1v37c0 14.667 4 26.834 12 36.501s17.667 14.5 29 14.5s21 -4.83301 29 -14.5s12 -21.667 12 -36
s-0.333008 -27.166 -1 -38.499c36 -0.666992 93.5 -1 172.5 -1s136.167 0.333008 171.5 1v38c0 15.333 3.66699 27.666 11 36.999s17 14 29 14s21.5 -2.66699 28.5 -8s12.167 -12.666 15.5 -21.999c4.66699 -16.667 7 -36 7 -58c16 0.666992 32.167 1 48.5 1
s28.333 -3 36 -9s11.5 -14 11.5 -24s-3.83301 -18 -11.5 -24s-17.5 -9 -29.5 -9h-55c-4 -66 -9.33301 -122.667 -16 -170l7 -396c0 -14.667 -4 -26.834 -12 -36.501s-17.667 -14.5 -29 -14.5s-21 4.83301 -29 14.5s-12 21.834 -12 36.501l6 304v32
c-27.333 -21.333 -63.166 -38.333 -107.499 -51s-88.666 -19 -132.999 -19s-82.166 3.33301 -113.499 10l5 -276c0 -14.667 -4 -26.834 -12 -36.501s-17.667 -14.5 -29 -14.5s-21 4.83301 -29 14.5s-12 21.834 -12 36.501z" />
    <glyph glyph-name="hbar" unicode="&#x127;" horiz-adv-x="577" 
d="M12 664l56.998 -2.00098v41c0 20 3.33301 34.667 10 44s13.834 14 21.501 14s14.834 -1.66699 21.501 -5c16 -7.33301 24 -20.333 24 -39v-7v-49l127 3h5c14 0 23.5 -4 28.5 -12s7.5 -15 7.5 -21s-2.5 -13 -7.5 -21s-14.5 -12 -28.5 -12h-5l-127 3v-218
c48.667 84.667 108.667 127 180 127c54 0 95.5 -19.167 124.5 -57.5s43.5 -84.166 43.5 -137.499l-5 -157v-43c1.33301 -27.333 8 -43.666 20 -48.999c4.66699 -1.33301 10 -2.5 16 -3.5s10.167 -2.16699 12.5 -3.5s3.5 -4 3.5 -8c0 -17.333 -5.5 -31.833 -16.5 -43.5
s-23.833 -17.5 -38.5 -17.5c-24.667 0 -42 9.66699 -52 29s-15 49 -15 89l4 184c0 46 -9.83301 82.833 -29.5 110.5s-46.5 41.5 -80.5 41.5s-66.833 -18.833 -98.5 -56.5s-54.167 -80.834 -67.5 -129.501l3 -217c0 -34 -12.667 -51 -38 -51c-30.667 0 -46 22.833 -46 68.5
s6.66699 112.167 20 199.5c0 54 -4.66699 168 -14 342l-60 -2c-8 0 -15.667 3.16699 -23 9.5s-11 14.333 -11 24s3.83301 17.5 11.5 23.5s15.167 9 22.5 9z" />
    <glyph glyph-name="Itilde" unicode="&#x128;" horiz-adv-x="598" 
d="M487 444l-1.00098 -168.999c0 -98.667 -23.5 -171.667 -70.5 -219s-104 -71 -171 -71s-118.5 19.333 -154.5 58c-35.333 39.333 -53 83.166 -53 131.499s15.333 87.666 46 117.999s66 45.5 106 45.5s71.667 -12.667 95 -38s35 -56.333 35 -93
s-12.333 -63.334 -37 -80.001c-8 -4.66699 -14.667 -7 -20 -7c-10 0 -14.333 5 -13 15c0 0.666992 1 4.33398 3 11.001c4 18.667 6 36.667 6 54s-7 33.5 -21 48.5s-31.667 22.5 -53 22.5s-39.166 -8.5 -53.499 -25.5s-21.5 -40 -21.5 -69s10.667 -56.833 32 -83.5
c22 -25.333 54 -38 96 -38c55.333 0 98.666 18.5 129.999 55.5s47 88.833 47 155.5l1 178c0 92.667 -0.666992 168.334 -2 227.001c-39.333 -6 -72.333 -9 -99 -9c-144 0 -216 21 -216 63c0 23.333 12.667 35 38 35c3.33301 0 25.166 -4.16699 65.499 -12.5
s77.833 -12.5 112.5 -12.5s75.834 4.16699 123.501 12.5s73.834 12.5 78.501 12.5c28 0 42 -11.167 42 -33.5s-23 -37.5 -69 -45.5c-1.33301 -62.667 -2 -141.667 -2 -237zM494.999 902.001c0 -22.667 -8.49805 -42.5 -25.498 -59.5s-37 -25.5 -60 -25.5
s-50.333 9.16699 -82 27.5s-53.167 27.5 -64.5 27.5s-21.333 -3 -30 -9s-14.167 -10.5 -16.5 -13.5l-17.5 -23.5c-8.66699 -10 -16.334 -15 -23.001 -15s-12.334 1 -17.001 3c-14 6.66699 -21 19.667 -21 39s10.667 37.833 32 55.5s46 26.5 74 26.5s59 -9.33301 93 -28
s58.333 -28 73 -28s27.5 8.5 38.5 25.5s19.5 25.5 25.5 25.5s11 -2.83301 15 -8.5s6 -12.167 6 -19.5z" />
    <glyph glyph-name="itilde" unicode="&#x129;" 
d="M150 460l-5 -210l5 -210c0 -33.333 -12.667 -50 -38 -50s-38 16.667 -38 50l5 210c-1.33301 46.667 -3 116.667 -5 210c0 33.333 12.667 50 38 50s38 -16.667 38 -50zM291 682c0 -22.667 -8.49805 -42.5 -25.498 -59.5s-37 -25.5 -60 -25.5s-50.333 9.16699 -82 27.5
s-53.167 27.5 -64.5 27.5s-21.333 -3 -30 -9s-14.167 -10.5 -16.5 -13.5l-17.5 -23.5c-8.66699 -10 -16.334 -15 -23.001 -15s-12.334 1 -17.001 3c-14 6.66699 -21 19.667 -21 39s10.667 37.833 32 55.5s46 26.5 74 26.5s59 -9.33301 93 -28s58.333 -28 73 -28
s27.5 8.5 38.5 25.5s19.5 25.5 25.5 25.5s11 -2.83301 15 -8.5s6 -12.167 6 -19.5z" />
    <glyph glyph-name="Idot" unicode="&#x130;" horiz-adv-x="598" 
d="M337 955c27.333 0 41 -16 41 -48c0 -14.667 -4.83301 -28.5 -14.5 -41.5s-21.167 -19.5 -34.5 -19.5c-28 0 -42 17 -42 51c0 16 4.83301 29.667 14.5 41s21.5 17 35.5 17zM487 444l-1.00098 -168.999c0 -98.667 -23.5 -171.667 -70.5 -219s-104 -71 -171 -71
s-118.5 19.333 -154.5 58c-35.333 39.333 -53 83.166 -53 131.499s15.333 87.666 46 117.999s66 45.5 106 45.5s71.667 -12.667 95 -38s35 -56.333 35 -93s-12.333 -63.334 -37 -80.001c-8 -4.66699 -14.667 -7 -20 -7c-10 0 -14.333 5 -13 15
c0 0.666992 1 4.33398 3 11.001c4 18.667 6 36.667 6 54s-7 33.5 -21 48.5s-31.667 22.5 -53 22.5s-39.166 -8.5 -53.499 -25.5s-21.5 -40 -21.5 -69s10.667 -56.833 32 -83.5c22 -25.333 54 -38 96 -38c55.333 0 98.666 18.5 129.999 55.5s47 88.833 47 155.5l1 178
c0 92.667 -0.666992 168.334 -2 227.001c-39.333 -6 -72.333 -9 -99 -9c-144 0 -216 21 -216 63c0 23.333 12.667 35 38 35c3.33301 0 25.166 -4.16699 65.499 -12.5s77.833 -12.5 112.5 -12.5s75.834 4.16699 123.501 12.5s73.834 12.5 78.501 12.5
c28 0 42 -11.167 42 -33.5s-23 -37.5 -69 -45.5c-1.33301 -62.667 -2 -141.667 -2 -237z" />
    <glyph glyph-name="dotlessi" unicode="&#x131;" 
d="M150 460l-5 -210l5 -210c0 -33.333 -12.667 -50 -38 -50s-38 16.667 -38 50l5 210c-1.33301 46.667 -3 116.667 -5 210c0 33.333 12.667 50 38 50s38 -16.667 38 -50z" />
    <glyph glyph-name="IJ" unicode="&#x132;" horiz-adv-x="1096" 
d="M980 485l-1.00195 -246.999v-163c0 -104 -22.5 -181.667 -67.5 -233s-101.333 -77 -169 -77s-120.5 21.333 -158.5 64c-37.333 43.333 -56 91.333 -56 144s16 96.5 48 131.5s69 52.5 111 52.5s75.5 -12.667 100.5 -38s37.5 -56.333 37.5 -93s-12.667 -63.334 -38 -80.001
c-8 -4.66699 -14.333 -7 -19 -7c-10 0 -14.333 5 -13 15c0 0.666992 1 4.66699 3 12c4 18 6 35.833 6 53.5s-7.33301 34 -22 49s-33.667 22.5 -57 22.5s-43.333 -11.5 -60 -34.5s-25 -52 -25 -87s12.333 -66.5 37 -94.5s58.334 -42 101.001 -42c54 0 96 21.5 126 64.5
s45 102.5 45 178.5c0 182 -0.5 318.667 -1.5 410s-1.5 153.333 -1.5 186c-38.667 -6 -71.667 -9 -99 -9c-144 0 -216 21 -216 63c0 23.333 12.667 35 38 35c3.33301 0 25.166 -4.16699 65.499 -12.5s77.833 -12.5 112.5 -12.5s75.834 4.16699 123.501 12.5
s73.834 12.5 78.501 12.5c28 0 42 -11.167 42 -33.5s-23 -37.5 -69 -45.5v-14zM486.998 444.001l-1.00098 -168.999c0 -98.667 -23.5 -171.667 -70.5 -219s-104 -71 -171 -71s-118.5 19.333 -154.5 58c-35.333 39.333 -53 83.166 -53 131.499s15.333 87.666 46 117.999
s66 45.5 106 45.5s71.667 -12.667 95 -38s35 -56.333 35 -93s-12.333 -63.334 -37 -80.001c-8 -4.66699 -14.667 -7 -20 -7c-10 0 -14.333 5 -13 15c0 0.666992 1 4.33398 3 11.001c4 18.667 6 36.667 6 54s-7 33.5 -21 48.5s-31.667 22.5 -53 22.5
s-39.166 -8.5 -53.499 -25.5s-21.5 -40 -21.5 -69s10.667 -56.833 32 -83.5c22 -25.333 54 -38 96 -38c55.333 0 98.666 18.5 129.999 55.5s47 88.833 47 155.5l1 178c0 92.667 -0.666992 168.334 -2 227.001c-39.333 -6 -72.333 -9 -99 -9c-144 0 -216 21 -216 63
c0 23.333 12.667 35 38 35c3.33301 0 25.166 -4.16699 65.499 -12.5s77.833 -12.5 112.5 -12.5s75.834 4.16699 123.501 12.5s73.834 12.5 78.501 12.5c28 0 42 -11.167 42 -33.5s-23 -37.5 -69 -45.5c-1.33301 -62.667 -2 -141.667 -2 -237z" />
    <glyph glyph-name="ij" unicode="&#x133;" horiz-adv-x="465" 
d="M117 725c27.333 0 41 -16 41 -48c0 -14.667 -4.83301 -28.5 -14.5 -41.5s-21.167 -19.5 -34.5 -19.5c-28 0 -42 17 -42 51c0 16 4.83301 29.667 14.5 41s21.5 17 35.5 17zM150 460l-5 -210l5 -210c0 -33.333 -12.667 -50 -38 -50s-38 16.667 -38 50l5 210l-5 210
c0 33.333 12.667 50 38 50s38 -16.667 38 -50zM359 725c27.333 0 41 -16 41 -48c0 -14.667 -4.83301 -28.5 -14.5 -41.5s-21.167 -19.5 -34.5 -19.5c-28 0 -42 17 -42 51c0 16 4.83301 29.667 14.5 41s21.5 17 35.5 17zM392 460l-5 -230l-1 -220
c0 -57.333 -14.5 -104.833 -43.5 -142.5s-55.833 -56.5 -80.5 -56.5c-18 0 -27 6.33301 -27 19c0 9.33301 14.333 28 43 56c12 11.333 22.333 29 31 53s13 51 13 81l-1 210l-5 230c0 33.333 12.667 50 38 50s38 -16.667 38 -50z" />
    <glyph glyph-name="Jcircumflex" unicode="&#x134;" horiz-adv-x="576" 
d="M460 485l-1.00195 -246.999v-163c0 -104 -22.5 -181.667 -67.5 -233s-101.333 -77 -169 -77s-120.5 21.333 -158.5 64c-37.333 43.333 -56 91.333 -56 144s16 96.5 48 131.5s69.167 52.5 111.5 52.5s75.833 -12.667 100.5 -38s37 -56.333 37 -93
s-12.667 -63.334 -38 -80.001c-8 -4.66699 -14.333 -7 -19 -7c-10 0 -14.333 5 -13 15c0 0.666992 1 4.66699 3 12c4 18 6 35.833 6 53.5s-7.33301 34 -22 49s-33.667 22.5 -57 22.5s-43.333 -11.5 -60 -34.5s-25 -52 -25 -87s12.333 -66.5 37 -94.5s58.334 -42 101.001 -42
c54 0 96 21.5 126 64.5s45 102.5 45 178.5c0 182 -0.5 318.667 -1.5 410s-1.5 153.333 -1.5 186c-38.667 -6 -71.667 -9 -99 -9c-144 0 -216 21 -216 63c0 23.333 12.667 35 38 35c3.33301 0 25 -4.16699 65 -12.5s77.5 -12.5 112.5 -12.5s76.333 4.16699 124 12.5
s73.834 12.5 78.501 12.5c28 0 42 -11.167 42 -33.5s-23 -37.5 -69 -45.5v-14zM353.998 863.001c-26.667 32 -45.002 47.999 -55.002 47.999s-28.667 -16 -56 -48c-2 -1.33301 -8.83301 -10 -20.5 -26s-23 -24 -34 -24s-19.833 2.66699 -26.5 8
c-6.66699 7.33301 -10 15 -10 23s3 15 9 21s13.333 12.667 22 20c24.667 20.667 43.334 40.334 56.001 59.001c12 15.333 21.667 26 29 32c8 6 18 9 30 9s21.833 -2.83301 29.5 -8.5s18 -16.667 31 -33s22.833 -27.833 29.5 -34.5s14.667 -13.667 24 -21
c16 -13.333 25.333 -23.333 28 -30c2.66699 -3.33301 4 -7.33301 4 -12s-1 -10 -3 -16c-4.66699 -11.333 -14 -17 -28 -17h-7c-3.33301 0 -8.66602 3 -15.999 9s-14.833 14.167 -22.5 24.5s-12.167 15.833 -13.5 16.5z" />
    <glyph glyph-name="jcircumflex" unicode="&#x135;" horiz-adv-x="223" 
d="M150 460l-5 -230l-1 -220c0 -57.333 -14.5 -104.833 -43.5 -142.5s-55.833 -56.5 -80.5 -56.5c-18 0 -27 6.33301 -27 19c0 9.33301 14.333 28 43 56c12 11.333 22.333 29 31 53s13 51 13 81l-1 210l-5 230c0 33.333 12.667 50 38 50s38 -16.667 38 -50zM167 638
c-27.333 32 -46.001 48 -56.001 48s-28.333 -16 -55 -48c-2 -1.33301 -8.83301 -10 -20.5 -26s-23 -24 -34 -24s-19.833 2.66699 -26.5 8c-6 8 -9 14.333 -9 19c0 12.667 4.66699 22.667 14 30c1.33301 1.33301 10.833 9.83301 28.5 25.5s32.167 31.834 43.5 48.501
c12 15.333 21.667 26 29 32c8 6 18 9 30 9s21.833 -2.83301 29.5 -8.5s18 -16.667 31 -33s22.833 -27.833 29.5 -34.5s14.667 -14 24 -22c16 -12.667 25.333 -22.334 28 -29.001c2.66699 -4 4 -8.33301 4 -13s-1 -9.66699 -3 -15c-4.66699 -11.333 -14 -17 -28 -17h-7
c-3.33301 0 -8.66602 3 -15.999 9s-14.833 14.167 -22.5 24.5s-12.167 15.833 -13.5 16.5z" />
    <glyph glyph-name="Kcommaaccent" unicode="&#x136;" horiz-adv-x="706" 
d="M358 -99c0 -28.667 -12.834 -58.5029 -38.501 -89.5029s-46.834 -46.5 -63.501 -46.5c-6.66699 0 -12.167 2 -16.5 6s-6.66602 8.16699 -6.99902 12.5s0.833984 9.5 3.50098 15.5s7 13.833 13 23.5s10.5 17.834 13.5 24.501s6.83301 19.834 11.5 39.501
s10.5 34.5 17.5 44.5s14.5 15 22.5 15s15 -1.33301 21 -4c16 -7.33301 24 -18.666 24 -33.999c0 -2 -0.333008 -4.33301 -1 -7zM237.999 436.997l0.999023 -88c42.667 4 74.334 13.333 95.001 28c-22 32.667 -54 52.667 -96 60zM169.998 354.997v86.001
c-18 -2.66699 -32.333 -7.83398 -43 -15.501s-16 -16.5 -16 -26.5c0 -20 19.667 -34.667 59 -44zM164.998 33.998l2.99414 248.998c-39.333 8 -70.166 22.833 -92.499 44.5s-33.5 46.5 -33.5 74.5s11.333 52.667 34 74s53.334 34.333 92.001 39l-5 194
c0 15.333 3.66699 27.666 11 36.999s17.333 14 30 14s22.667 -4.66699 30 -14s11 -20.166 11 -32.499s-1.66699 -79.5 -5 -201.5c65.333 -11.333 115.333 -40 150 -86c32 36 59.5 79.833 82.5 131.5s38.5 104.5 46.5 158.5c5.33301 29.333 19 44 41 44
c10 0 18.167 -3.33301 24.5 -10s9.5 -15.667 9.5 -27c0 -47.333 -16.667 -106.666 -50 -177.999s-71.333 -130.333 -114 -177c66.667 -136.667 120.334 -237.667 161.001 -303c27.333 -44 57 -67 89 -69h8c11.333 0 17 -1.66699 17 -5v-5
c0 -20 -5.83301 -36.167 -17.5 -48.5s-25.5 -18.5 -41.5 -18.5s-29.5 3.33301 -40.5 10s-18.667 12.334 -23 17.001s-11.166 12.667 -20.499 24c-19.333 22 -47.666 68.333 -84.999 139l-108 212c-38 -21.333 -81 -35 -129 -41l7 -239v-7c0 -17.333 -6.33301 -30 -19 -38
c-7.33301 -4 -14.666 -6 -21.999 -6l-22 6c-12.667 8 -19 20.667 -19 38z" />
    <glyph glyph-name="kcedilla" unicode="&#x137;" horiz-adv-x="510" 
d="M284 -99c0 -28.667 -12.832 -58.501 -38.499 -89.501s-46.834 -46.5 -63.501 -46.5c-6.66699 0 -12.167 2 -16.5 6s-6.5 8.16699 -6.5 12.5s1.5 9.33301 4.5 15l12.5 22.5c10.667 20 18.5 40.833 23.5 62.5s11 37.5 18 47.5s14.5 15 22.5 15s15 -1.33301 21 -4
c16 -7.33301 24 -18.666 24 -33.999c0 -2 -0.333008 -4.33301 -1 -7zM147.001 257.999l2.99805 -217c0 -34 -12.667 -51 -38 -51c-30.667 0 -46 22.833 -46 68.5s6.66699 112.167 20 199.5c0 45.333 -3 130.833 -9 256.5s-9 193.5 -9 203.5s3.5 19.667 10.5 29
s14.333 14 22 14s14.834 -1.66699 21.501 -5c16 -7.33301 24 -20.333 24 -39v-7v-327c48.667 84.667 108.667 127 180 127c38 0 68.833 -11.167 92.5 -33.5s35.5 -50.166 35.5 -83.499c0 -54.667 -28.333 -101.334 -85 -140.001l-49 -32l74 -114
c8.66699 -14 18.5 -24.667 29.5 -32s20.333 -11.5 28 -12.5s13.834 -2.16699 18.501 -3.5s6.66699 -4 6 -8c0 -16 -5 -30.167 -15 -42.5s-22 -18.5 -36 -18.5h-16c-16.667 0 -37.334 20.333 -62.001 61c-0.666992 2 -1.5 3.66699 -2.5 5s-13.167 20.833 -36.5 58.5
s-41.666 65.834 -54.999 84.501c-17.333 0 -31.666 4.66699 -42.999 14s-17 22.666 -17 39.999s9.66699 30 29 38c5.33301 2 10.666 3 15.999 3c15.333 0 31.666 -8.33301 48.999 -25c25.333 11.333 47.833 28.666 67.5 51.999s29.5 44.333 29.5 63c0 40 -20.667 60 -62 60
c-37.333 0 -72.666 -18.667 -105.999 -56s-56.333 -80.666 -69 -129.999z" />
    <glyph glyph-name="kgreenlandic" unicode="&#x138;" horiz-adv-x="505" 
d="M145 218l4.99805 -178c0 -33.333 -12.667 -50 -38 -50s-38 16.667 -38 50l5 210l-5 210c0 33.333 12.667 50 38 50s38 -16.667 38 -50c0 -4 -0.833008 -28.333 -2.5 -73s-2.5 -74.667 -2.5 -90c26.667 9.33301 49.834 14 69.501 14s34.834 -0.666992 45.501 -2
c24.667 16 46.834 40.5 66.501 73.5s34.5 63.833 44.5 92.5c7.33301 23.333 20.333 35 39 35c8.66699 0 16.167 -3.33301 22.5 -10s9.5 -14.334 9.5 -23.001c0 -26.667 -13.833 -61.834 -41.5 -105.501s-58.167 -80.167 -91.5 -109.5l91 -154
c16.667 -26 38.667 -41.333 66 -46c6 -1.33301 10.333 -2.66602 13 -3.99902s3.66699 -3.33301 3 -6c0 -16 -5.16699 -30.167 -15.5 -42.5s-22.333 -18.5 -36 -18.5s-26.334 3.33301 -38.001 10s-30.667 32.834 -57 78.501l-85.5 144.5c-16 -6.66699 -37.333 -10 -64 -10z
" />
    <glyph glyph-name="Ldot" unicode="&#x13f;" horiz-adv-x="621" 
d="M364 490c14 0 24.833 -5 32.5 -15s11.5 -23.167 11.5 -39.5s-5 -30.833 -15 -43.5s-21.667 -19 -35 -19s-24 5.16699 -32 15.5s-12 23.5 -12 39.5s4.83301 30.333 14.5 43s21.5 19 35.5 19zM160 13c-31.333 -14.667 -54.6641 -22.001 -69.9971 -22.001
s-28.333 5.5 -39 16.5s-16 24.5 -16 40.5s5 29.333 15 40c10 11.333 21.333 17 34 17s27 -2.33301 43 -7c13.333 44 20 138.667 20 284c0 76.667 -4.33301 151 -13 223s-13 112.167 -13 120.5s3.66699 16.5 11 24.5s16.666 12 27.999 12c24 0 38.667 -17 44 -51
c10 -72.667 15 -181.5 15 -326.5s-7 -247.5 -21 -307.5c46 -14.667 102 -22 168 -22c40 0 74.5 9.5 103.5 28.5s43.5 44.167 43.5 75.5c0 15.333 -4.83301 28.5 -14.5 39.5s-21.5 16.5 -35.5 16.5c-26 0 -41.667 -13 -47 -39c-6.66699 -26 -16.334 -39 -29.001 -39
c-8 0 -15 5.33301 -21 16s-9 22.334 -9 35.001c0 24.667 10.167 46.334 30.5 65.001s46.166 28 77.499 28s59.5 -11 84.5 -33s37.5 -51.667 37.5 -89c0 -52.667 -21.667 -94.334 -65 -125.001c-46 -32.667 -99.667 -49 -161 -49s-128.333 9.33301 -201 28z" />
    <glyph glyph-name="ldot" unicode="&#x140;" horiz-adv-x="338" 
d="M150 710l-5 -335l5 -335c0 -33.333 -12.667 -50 -38 -50s-38 16.667 -38 50l5 335l-5 335c0 33.333 12.667 50 38 50s38 -16.667 38 -50zM280 440c14 0 24.833 -5 32.5 -15s11.5 -23.167 11.5 -39.5s-5 -30.833 -15 -43.5s-21.667 -19 -35 -19s-24 5.16699 -32 15.5
s-12 23.5 -12 39.5s4.83301 30.333 14.5 43s21.5 19 35.5 19z" />
    <glyph glyph-name="Lslash" unicode="&#x141;" horiz-adv-x="621" 
d="M218 450l1.00391 -68c0 -143.333 -7 -245 -21 -305c46.667 -14.667 102.667 -22 168 -22c40 0 74.5 9.5 103.5 28.5s43.5 44.167 43.5 75.5c0 15.333 -4.83301 28.5 -14.5 39.5s-21.5 16.5 -35.5 16.5s-24.833 -4 -32.5 -12s-12.5 -17 -14.5 -27
c-6.66699 -26 -16.334 -39 -29.001 -39c-8.66699 0 -15.834 5.33301 -21.501 16s-8.5 22.334 -8.5 35.001c0 24 10 45.5 30 64.5s45.667 28.5 77 28.5s59.666 -11 84.999 -33s38 -51.667 38 -89c0 -52.667 -22.5 -94.834 -67.5 -126.501s-96.167 -47.5 -153.5 -47.5
s-126 9.33301 -206 28c-32 -14.667 -55.5 -22 -70.5 -22s-27.833 5.5 -38.5 16.5s-16 24.667 -16 41s5 29.833 15 40.5s20.667 16 32 16s26.333 -2.33301 45 -7c12.667 41.333 19 138 19 290l-42 -38c-10 -8 -19.5 -12 -28.5 -12s-16.5 3 -22.5 9s-9 14 -9 24
s5.66699 20 17 30c3.33301 3.33301 14.833 12.5 34.5 27.5l50.5 39.5c-2 50 -6.66699 102.833 -14 158.5s-11 88.167 -11 97.5s3.66699 18 11 26s16.666 12 27.999 12c24.667 0 39.667 -18.667 45 -56s9.33301 -98 12 -182l69 66c10 8 19.5 12 28.5 12s16.5 -3 22.5 -9
s9 -14 9 -24s-5.66699 -20 -17 -30c-0.666992 0 -14.667 -10.833 -42 -32.5z" />
    <glyph glyph-name="lslash" unicode="&#x142;" horiz-adv-x="256" 
d="M18 382l79.999 63l-5 265c0 33.333 12.667 50 38 50s38 -16.667 38 -50c0 -12 -0.333008 -24.333 -1 -37l-4 -172l47 41c26.667 24 42.334 36.833 47.001 38.5s9 2.5 13 2.5c14.667 0 24.667 -6.66699 30 -20c1.33301 -3.33301 2 -8.5 2 -15.5
s-5.66699 -16.167 -17 -27.5l-44 -35c-36 -28 -62 -49 -78 -63v-47c0 -130 0.666992 -213 2 -249c2 -54 3 -82.667 3 -86c0 -33.333 -12.667 -50 -38 -50s-38 16.667 -38 50c0 15.333 0.833008 44 2.5 86s2.5 121.333 2.5 238l-37 -33c-8.66699 -8 -16 -12 -22 -12
c-24.667 0 -37 9.66699 -37 29c0 10.667 5.33301 22 16 34z" />
    <glyph glyph-name="Nacute" unicode="&#x143;" horiz-adv-x="878" 
d="M159 -8c-39.333 0 -70.501 14.166 -93.501 42.499s-34.5 60.833 -34.5 97.5s12.5 69.5 37.5 98.5s54.833 43.5 89.5 43.5c14.667 0 26.834 -3.5 36.501 -10.5s14.5 -17.167 14.5 -30.5c0 -24.667 -16 -37 -48 -37c-14.667 0 -27.334 -6.16699 -38.001 -18.5
s-16 -27.666 -16 -45.999s5 -33.333 15 -45s24 -17.5 42 -17.5c62 0 93 96 93 288c0 52.667 -5.33301 121.667 -16 207s-16 135.166 -16 149.499s4.66699 25.833 14 34.5s20.333 13 33 13c18.667 0 33.667 -11.667 45 -35c36 -70 87.333 -163.667 154 -281
s124.334 -214.666 173.001 -291.999c-2.66699 0 -5.83398 46.5 -9.50098 139.5s-5.5 154.167 -5.5 183.5c0 74 7.33301 137 22 189c8.66699 30 22.834 53.5 42.501 70.5s42.334 25.5 68.001 25.5s47.5 -6.83301 65.5 -20.5s27 -29.5 27 -47.5s-7.66699 -27 -23 -27
c-4.66699 0 -14.334 3 -29.001 9s-27.667 9 -39 9c-42 0 -63 -96.333 -63 -289c0 -45.333 3.66699 -114.666 11 -207.999s11 -145.333 11 -156s-4.5 -20.334 -13.5 -29.001s-19.5 -13 -31.5 -13c-18 0 -33.667 11.667 -47 35l-114 199l-127 227
c-36.667 68 -62 112.667 -76 134c9.33301 -88 14 -171.667 14 -251c0 -227.333 -56 -341 -168 -341zM616.999 931.999c0 -28.667 -15.3311 -57.501 -45.998 -86.501s-54.667 -43.5 -72 -43.5s-26.333 7.33301 -27 22c0 8.66699 3.5 16.834 10.5 24.501l28.5 32.5
c5.33301 8 11.666 20.5 18.999 37.5s14.833 29.833 22.5 38.5s17.167 13 28.5 13s20.166 -3.66699 26.499 -11s9.5 -16.333 9.5 -27z" />
    <glyph glyph-name="nacute" unicode="&#x144;" horiz-adv-x="579" 
d="M496 315l-4.99707 -157.003v-43c1.33301 -27.333 8 -43.666 20 -48.999c4.66699 -1.33301 10 -2.5 16 -3.5s10.167 -2.16699 12.5 -3.5s3.5 -4 3.5 -8c0 -17.333 -5.5 -31.833 -16.5 -43.5s-23.833 -17.5 -38.5 -17.5c-24.667 0 -42 9.66699 -52 29s-15 49 -15 89l4 184
c0 46 -9.83301 82.833 -29.5 110.5s-46.5 41.5 -80.5 41.5s-66.833 -18.833 -98.5 -56.5s-54.167 -80.834 -67.5 -129.501l3 -217c0 -34 -12.667 -51 -38 -51c-30.667 0 -46 22.833 -46 68.5s6.66699 112.167 20 199.5c0 28 -2.83301 67.333 -8.5 118
s-8.5 81.334 -8.5 92.001s3.66699 20.334 11 29.001s16.666 13 27.999 13s20.666 -4.33301 27.999 -13s11 -18 11 -28s-0.166992 -25 -0.5 -45s-0.5 -33.667 -0.5 -41c48.667 84.667 108.667 127 180 127c53.333 0 94.666 -19.167 123.999 -57.5s44 -84.166 44 -137.499z
M400.003 721.997c0 -28.667 -15.3291 -57.501 -45.9961 -86.501s-54.834 -43.5 -72.501 -43.5s-26.5 7.33301 -26.5 22c0 8.66699 3.66699 16.834 11 24.501s16.666 18.5 27.999 32.5c5.33301 8 11.666 20.5 18.999 37.5s14.833 29.833 22.5 38.5s17.167 13 28.5 13
s20.166 -3.66699 26.499 -11s9.5 -16.333 9.5 -27z" />
    <glyph glyph-name="OE" unicode="&#x152;" horiz-adv-x="990" 
d="M558 -5l-168.003 -8.00488c-93.333 0 -172.5 36.333 -237.5 109s-97.5 166 -97.5 280c0 44 4.66699 81.167 14 111.5s24 45.5 44 45.5c9.33301 0 17 -3.16699 23 -9.5s9 -14.333 9 -24s-2.16699 -25.5 -6.5 -47.5s-6.5 -47.333 -6.5 -76c0 -98 25.667 -175.5 77 -232.5
s111.333 -85.5 180 -85.5s125.834 32 171.501 96s68.5 137.5 68.5 220.5s-20 156.667 -60 221s-83.167 96.5 -129.5 96.5s-85.166 -16.667 -116.499 -50s-53 -72.666 -65 -117.999s-18 -89.666 -18 -132.999s1.83301 -75.666 5.5 -96.999s5.5 -35.333 5.5 -42
c0 -16.667 -7.66699 -25 -23 -25c-13.333 0 -25.666 16.833 -36.999 50.5s-17 72.834 -17 117.501s5 88.834 15 132.501s25.167 83.667 45.5 120s48.166 65 83.499 86s76.333 31.5 123 31.5l111 -10l193 -5l150 5c33.333 0 50 -12.667 50 -38s-16.667 -38 -50 -38l-150 5
c-75.333 0 -124 -1.33301 -146 -4c60 -62 95.667 -144.333 107 -247c80 3.33301 126.167 5 138.5 5s23 -3.5 32 -10.5s13.5 -16.5 13.5 -28.5c0 -24.667 -16.667 -37 -50 -37c-1.33301 0 -44.666 1.33301 -129.999 4c-0.666992 -59.333 -11 -114.833 -31 -166.5
s-47 -95.167 -81 -130.5c35.333 -2 80.333 -3 135 -3l162 5c33.333 0 50 -12.667 50 -38s-16.667 -38 -50 -38l-162 5z" />
    <glyph glyph-name="oe" unicode="&#x153;" horiz-adv-x="908" 
d="M643 206c-34.667 0 -77.001 4.99805 -127.001 14.998c4 -47.333 21.5 -87.666 52.5 -120.999s67.167 -50 108.5 -50s75.333 10.167 102 30.5s44.167 30.5 52.5 30.5s15 -2.5 20 -7.5s7.5 -11.167 7.5 -18.5c0 -18.667 -19.167 -40 -57.5 -64s-79.833 -36 -124.5 -36
c-89.333 0 -155.333 40.333 -198 121c-20.667 -38 -48.334 -67.667 -83.001 -89s-73 -32 -115 -32c-68.667 0 -125 25.5 -169 76.5s-66 113.5 -66 187.5s22.333 136.833 67 188.5s100.334 77.5 167.001 77.5c44 0 83.833 -11.167 119.5 -33.5s63.5 -53.166 83.5 -92.499
c47.333 84 115 126 203 126c48 0 88.833 -15 122.5 -45s50.5 -69.167 50.5 -117.5s-20.667 -84.833 -62 -109.5s-92.666 -37 -153.999 -37zM162.999 107.998c30.667 -38.667 69.168 -58.001 115.501 -58.001s85.666 19.5 117.999 58.5s48.5 86.167 48.5 141.5
s-15.5 102.5 -46.5 141.5s-69.333 58.5 -115 58.5s-85.167 -19.667 -118.5 -59c-32 -39.333 -48 -86.666 -48 -141.999s15.333 -102.333 46 -141zM686 449.997c-44 0 -80.834 -16.5 -110.501 -49.5s-49.167 -71.5 -58.5 -115.5c36 -10.667 76.5 -16 121.5 -16
s81.167 7.66699 108.5 23s41 36.333 41 63s-9.16699 49.167 -27.5 67.5s-43.166 27.5 -74.499 27.5z" />
    <glyph glyph-name="Racute" unicode="&#x154;" horiz-adv-x="739" 
d="M236 672c0 -38 1.33301 -103.667 4 -197c38 -4 74.5 -17 109.5 -39s62.833 -48 83.5 -78c32.667 20 58.667 45.833 78 77.5s29 64.167 29 97.5c0 50 -19.333 89.5 -58 118.5s-86.667 43.5 -144 43.5c-31.333 0 -65.333 -7.66699 -102 -23zM239 410v-94.001
c15.333 -1.33301 34.333 -2 57 -2s45.334 4.33301 68.001 13c-28.667 42.667 -70.334 70.334 -125.001 83.001zM170 322.999v91c-39.333 -5.33301 -59 -18.5 -59 -39.5s19.667 -38.167 59 -51.5zM698 -6.00098c11.333 0 16.999 -1.66699 16.999 -5v-5
c0 -17.333 -5.83301 -32.833 -17.5 -46.5s-23.5 -20.5 -35.5 -20.5s-25.333 4 -40 12s-33.834 28.333 -57.501 61s-47.834 72.667 -72.501 120l-92 161c-41.333 -14.667 -83.666 -22 -126.999 -22c-17.333 0 -28.333 0.333008 -33 1l6 -209
c0 -15.333 -3.66699 -27.666 -11 -36.999s-17.333 -14 -30 -14s-22.667 4.66699 -30 14s-11 26.166 -11 50.499s1.33301 92.166 4 203.499c-41.333 9.33301 -72.666 24.333 -93.999 45s-32 44.334 -32 71.001s11.833 50 35.5 70s53.834 31.667 90.501 35l-8 199
c0 28.667 11.667 48.667 35 60c40 18 88 27 144 27c81.333 0 148.166 -22 200.499 -66s78.5 -98.667 78.5 -164c0 -46 -13.5 -90.167 -40.5 -132.5s-63.167 -76.5 -108.5 -102.5c75.333 -136 119.333 -213.667 132 -233c30.667 -46.667 60.334 -71 89.001 -73h8z
M456.999 931.999c0 -28.667 -15.3311 -57.501 -45.998 -86.501s-54.667 -43.5 -72 -43.5s-26.333 7.33301 -27 22c0 8.66699 3.5 16.834 10.5 24.501l28.5 32.5c5.33301 8 11.666 20.5 18.999 37.5s14.833 29.833 22.5 38.5s17.167 13 28.5 13s20.166 -3.66699 26.499 -11
s9.5 -16.333 9.5 -27z" />
    <glyph glyph-name="Rcommaaccent" unicode="&#x156;" horiz-adv-x="739" 
d="M236 672c0 -38 1.33301 -103.667 4 -197c38 -4 74.5 -17 109.5 -39s62.833 -48 83.5 -78c32.667 20 58.667 45.833 78 77.5s29 64.167 29 97.5c0 50 -19.333 89.5 -58 118.5s-86.667 43.5 -144 43.5c-31.333 0 -65.333 -7.66699 -102 -23zM239 410v-94.001
c15.333 -1.33301 34.333 -2 57 -2s45.334 4.33301 68.001 13c-28.667 42.667 -70.334 70.334 -125.001 83.001zM170 322.999v91c-39.333 -5.33301 -59 -18.5 -59 -39.5s19.667 -38.167 59 -51.5zM698 -6.00098c11.333 0 16.999 -1.66699 16.999 -5v-5
c0 -17.333 -5.83301 -32.833 -17.5 -46.5s-23.5 -20.5 -35.5 -20.5s-25.333 4 -40 12s-33.834 28.333 -57.501 61s-47.834 72.667 -72.501 120l-92 161c-41.333 -14.667 -83.666 -22 -126.999 -22c-17.333 0 -28.333 0.333008 -33 1l6 -209
c0 -15.333 -3.66699 -27.666 -11 -36.999s-17.333 -14 -30 -14s-22.667 4.66699 -30 14s-11 26.166 -11 50.499s1.33301 92.166 4 203.499c-41.333 9.33301 -72.666 24.333 -93.999 45s-32 44.334 -32 71.001s11.833 50 35.5 70s53.834 31.667 90.501 35l-8 199
c0 28.667 11.667 48.667 35 60c40 18 88 27 144 27c81.333 0 148.166 -22 200.499 -66s78.5 -98.667 78.5 -164c0 -46 -13.5 -90.167 -40.5 -132.5s-63.167 -76.5 -108.5 -102.5c75.333 -136 119.333 -213.667 132 -233c30.667 -46.667 60.334 -71 89.001 -73h8z
M337.999 -99.001c0 -28.667 -12.832 -58.501 -38.499 -89.501s-46.834 -46.5 -63.501 -46.5c-6.66699 0 -12.167 2 -16.5 6s-6.5 8.16699 -6.5 12.5s1.5 9.33301 4.5 15l12.5 22.5c10.667 20 18.5 40.833 23.5 62.5s11 37.5 18 47.5s14.5 15 22.5 15s15 -1.33301 21 -4
c16 -7.33301 24 -18.666 24 -33.999c0 -2 -0.333008 -4.33301 -1 -7z" />
    </font>
</defs>
</svg>
